<svg width="2235" height="1083" viewBox="0 0 2235 1083" fill="none" xmlns="http://www.w3.org/2000/svg">
<path d="M968 246.286L1005.27 176.95H1121.81C1142.46 176.95 1159.18 183.343 1171.97 196.128C1184.75 208.422 1191.14 224.895 1191.14 245.548V476.419C1191.14 487.238 1188.93 497.073 1184.51 505.924C1180.08 514.283 1174.18 521.414 1166.8 527.314L1214.01 693.276H1143.2L1101.16 545.017H1079.03V693.276H1008.96V245.548L968 246.286ZM1117.38 245.548H1079.03V476.419H1117.38C1119.84 476.419 1121.07 475.19 1121.07 472.731V249.236C1121.07 246.777 1119.84 245.548 1117.38 245.548Z" fill="#110C6C"/>
<path d="M1413.14 627.629C1413.14 648.282 1406.75 665.001 1393.96 677.787C1381.18 690.08 1364.46 696.227 1343.81 696.227H1290.7C1270.05 696.227 1253.33 690.08 1240.54 677.787C1227.76 665.001 1221.36 648.282 1221.36 627.629V242.598C1221.36 221.945 1227.76 205.471 1240.54 193.178C1253.33 180.393 1270.05 174 1290.7 174H1343.81C1364.46 174 1381.18 180.393 1393.96 193.178C1406.75 205.471 1413.14 221.945 1413.14 242.598V627.629ZM1295.12 242.598C1292.67 242.598 1291.44 243.827 1291.44 246.286V623.941C1291.44 626.4 1292.67 627.629 1295.12 627.629H1339.38C1341.84 627.629 1343.07 626.4 1343.07 623.941V246.286C1343.07 243.827 1341.84 242.598 1339.38 242.598H1295.12Z" fill="#110C6C"/>
<path d="M1435.3 245.548V176.95H1638.14V245.548H1571.76V693.276H1501.68V245.548H1435.3Z" fill="#110C6C"/>
<path d="M1835.4 624.679L1829.5 693.276H1667.96V245.548L1664.27 176.95H1835.4L1828.02 245.548H1738.04V400.446H1820.65L1813.27 469.043H1738.04V624.679H1835.4Z" fill="#110C6C"/>
<path d="M2049.18 527.314V627.629C2049.18 648.282 2042.79 665.001 2030.01 677.787C2017.22 690.08 2000.5 696.227 1979.85 696.227H1926.74C1906.09 696.227 1889.37 690.08 1876.58 677.787C1863.8 665.001 1857.41 648.282 1857.41 627.629V242.598C1857.41 221.945 1863.8 205.471 1876.58 193.178C1889.37 180.393 1906.09 174 1926.74 174H1979.85C2000.5 174 2017.22 180.393 2030.01 193.178C2042.79 205.471 2049.18 221.945 2049.18 242.598V338.354H1979.85L1979.11 246.286C1979.11 243.827 1977.88 242.598 1975.42 242.598H1931.17C1928.71 242.598 1927.48 243.827 1927.48 246.286V623.941C1927.48 626.4 1928.71 627.629 1931.17 627.629H1975.42C1977.88 627.629 1979.11 626.4 1979.11 623.941L1979.85 527.314H2049.18Z" fill="#110C6C"/>
<path d="M997.019 777.388C997.019 763.222 1000.44 752.39 1007.27 744.89C1014.1 737.224 1024.18 733.391 1037.52 733.391C1050.85 733.391 1060.93 737.224 1067.76 744.89C1074.6 752.39 1078.01 763.222 1078.01 777.388V782.888H1052.02V775.638C1052.02 769.638 1050.85 765.305 1048.52 762.639C1046.18 759.806 1042.77 758.389 1038.27 758.389C1033.77 758.389 1030.35 759.806 1028.02 762.639C1025.68 765.305 1024.52 769.638 1024.52 775.638C1024.52 782.971 1026.43 789.387 1030.27 794.887C1034.27 800.386 1040.18 806.636 1048.02 813.636C1054.52 819.635 1059.76 824.968 1063.76 829.634C1067.76 834.134 1071.18 839.634 1074.01 846.133C1076.85 852.633 1078.26 860.049 1078.26 868.382C1078.26 882.547 1074.76 893.463 1067.76 901.13C1060.76 908.629 1050.6 912.379 1037.27 912.379C1023.93 912.379 1013.77 908.629 1006.77 901.13C999.769 893.463 996.269 882.547 996.269 868.382V857.633H1022.27V870.132C1022.27 881.464 1027.02 887.13 1036.52 887.13C1046.02 887.13 1050.77 881.464 1050.77 870.132C1050.77 862.799 1048.77 856.383 1044.77 850.883C1040.93 845.383 1035.1 839.134 1027.27 832.134C1020.77 826.135 1015.52 820.885 1011.52 816.385C1007.52 811.719 1004.1 806.136 1001.27 799.636C998.436 793.137 997.019 785.721 997.019 777.388ZM1234.26 809.136V834.134H1196.51V885.381H1244.01V910.379H1169.01V735.391H1244.01V760.389H1196.51V809.136H1234.26ZM1393.54 910.379C1392.54 907.546 1391.87 904.879 1391.54 902.379C1391.21 899.88 1391.04 895.38 1391.04 888.88V861.382C1391.04 853.383 1389.62 847.717 1386.79 844.383C1383.96 840.884 1379.37 839.134 1373.04 839.134H1363.54V910.379H1336.04V735.391H1377.54C1391.71 735.391 1402.04 738.724 1408.54 745.39C1415.04 751.89 1418.29 761.972 1418.29 775.638V789.387C1418.29 807.386 1412.29 819.218 1400.29 824.885C1406.79 827.551 1411.45 832.051 1414.29 838.384C1417.12 844.55 1418.54 852.466 1418.54 862.132V889.13C1418.54 894.13 1418.7 898.213 1419.04 901.38C1419.37 904.379 1420.2 907.379 1421.54 910.379H1393.54ZM1363.54 814.135H1374.29C1379.79 814.135 1383.87 812.719 1386.54 809.886C1389.37 807.053 1390.79 802.303 1390.79 795.637V778.388C1390.79 772.055 1389.62 767.472 1387.29 764.639C1385.12 761.806 1381.62 760.389 1376.79 760.389H1363.54V814.135ZM1573.62 735.391H1598.87L1571.87 910.379H1530.88L1503.88 735.391H1531.63L1552.63 878.131L1573.62 735.391ZM1714.2 735.391V910.379H1686.7V735.391H1714.2ZM1889.05 868.382C1889.05 882.547 1885.55 893.463 1878.55 901.13C1871.55 908.629 1861.38 912.379 1848.05 912.379C1834.72 912.379 1824.55 908.629 1817.55 901.13C1810.55 893.463 1807.05 882.547 1807.05 868.382V777.388C1807.05 763.222 1810.55 752.39 1817.55 744.89C1824.55 737.224 1834.72 733.391 1848.05 733.391C1861.38 733.391 1871.55 737.224 1878.55 744.89C1885.55 752.39 1889.05 763.222 1889.05 777.388V794.387H1863.05V775.638C1863.05 764.139 1858.3 758.389 1848.8 758.389C1839.3 758.389 1834.55 764.139 1834.55 775.638V870.132C1834.55 881.464 1839.3 887.13 1848.8 887.13C1858.3 887.13 1863.05 881.464 1863.05 870.132V845.133H1889.05V868.382ZM2045.97 809.136V834.134H2008.22V885.381H2055.72V910.379H1980.73V735.391H2055.72V760.389H2008.22V809.136H2045.97Z" fill="#110C6C"/>
<g clip-path="url(#clip0_3023_8)">
<rect x="172" y="185" width="725" height="725" rx="42" fill="white"/>
<path d="M720.847 354.586C722.851 354.586 724.988 354.71 727.258 354.962V354.963L727.269 354.964C729.646 355.201 731.775 356.028 733.674 357.45L733.729 357.491L733.788 357.524C735.846 358.666 737.506 360.634 738.721 363.546L738.741 363.595L738.767 363.641C740.181 366.23 740.945 370.242 740.945 375.801V438.616C740.945 451.531 738.917 463.017 734.883 473.091C730.844 482.919 725.044 491.353 717.48 498.401L717.474 498.407L717.468 498.413C710.153 505.465 701.315 511.143 690.938 515.44C690.741 515.519 690.341 515.614 689.679 515.701C689.037 515.785 688.214 515.855 687.213 515.908C685.211 516.015 682.549 516.056 679.297 516.049C672.795 516.034 663.993 515.821 653.521 515.538C632.587 514.972 605.014 514.124 575.961 514.023C546.91 513.922 516.356 514.568 489.454 516.99C462.69 519.4 439.407 523.579 424.824 530.609C409.406 536.488 394.882 544.943 381.257 555.972C364.917 569.147 351.232 586.393 340.191 607.683L340.189 607.687C329.374 628.787 323.993 654.716 323.993 685.429C323.993 716.142 329.375 742.198 340.188 763.558L340.191 763.566C351.232 784.856 364.917 802.102 381.257 815.277L381.264 815.282C397.833 828.431 415.728 838.038 434.945 844.092L434.957 844.095C454.126 849.871 472.012 852.769 488.606 852.769H723.237C732.542 852.769 740.911 854.319 748.358 857.4L748.37 857.404C756.089 860.492 762.498 864.855 767.619 870.487L767.627 870.496L767.636 870.505C773.029 876.154 777.143 882.836 779.976 890.56C782.808 898.282 784.23 906.795 784.23 916.107V922H161.242V357.307L720.847 354.585V354.586ZM909.242 922H888.165C888.216 920 888.244 918.027 888.244 916.107C888.244 895.888 885.749 877.739 880.744 861.671C875.903 846.13 869.328 832.301 861.015 820.19L860.205 819.024C852.046 807.044 842.646 796.783 832.004 788.248L830.97 787.428C820.272 778.77 808.953 771.588 797.014 765.886L795.855 765.339C783.765 759.558 771.536 755.349 759.169 752.717H759.17C746.819 749.826 735.11 748.247 724.046 747.983L724.034 747.982H488.606C469.752 747.982 455.031 742.598 444.315 731.927L443.809 731.415C433.307 720.137 428.006 704.847 428.006 685.429C428.006 666.272 433.307 650.972 443.824 639.426C453.782 628.758 467.272 622.986 484.4 622.186C494.199 622.208 541.608 622.435 589.17 622.346C614.179 622.299 639.24 622.164 658.914 621.865C668.75 621.716 677.245 621.525 683.715 621.284C690.136 621.045 694.663 620.753 696.491 620.382L696.492 620.383C710.635 617.559 724.517 613.066 738.138 606.907L738.146 606.904C752.027 600.488 765.261 592.404 777.85 582.656C790.463 572.89 801.528 561.198 811.045 547.587C820.829 533.705 828.544 517.778 834.198 499.816C839.861 481.827 842.684 461.423 842.684 438.616V375.034C842.684 363.047 840.624 350.236 836.521 336.609L836.117 335.288C831.986 321.115 825.018 307.98 815.225 295.886C805.667 283.512 793.153 273.344 777.707 265.374H777.708C762.184 257.107 743.215 253 720.847 253H165.135L164.836 253.411L161.242 258.343V174H909.242V922ZM783.742 900.343C783.771 900.488 783.8 900.634 783.828 900.779C783.8 900.634 783.771 900.488 783.742 900.343ZM783.252 898.074C783.269 898.148 783.287 898.222 783.304 898.296C783.287 898.222 783.269 898.148 783.252 898.074ZM881.118 866.504C881.25 866.981 881.38 867.46 881.507 867.94C881.38 867.46 881.25 866.981 881.118 866.504ZM880.248 863.471C880.383 863.922 880.515 864.375 880.646 864.829L880.248 863.471ZM743.068 854.474C743.507 854.604 743.944 854.737 744.378 854.876C744.626 854.956 744.872 855.037 745.118 855.12C744.442 854.893 743.758 854.678 743.068 854.474ZM742.246 854.236C742.407 854.281 742.567 854.327 742.727 854.373C742.567 854.327 742.407 854.281 742.246 854.236ZM741.384 854C741.57 854.049 741.756 854.1 741.941 854.151C741.756 854.1 741.57 854.049 741.384 854ZM362.227 795.156C362.002 794.889 361.779 794.621 361.556 794.352C361.779 794.621 362.002 794.889 362.227 795.156ZM361.274 794.01C361.094 793.791 360.914 793.572 360.735 793.353C360.914 793.572 361.094 793.791 361.274 794.01ZM360.538 793.109C360.323 792.844 360.107 792.579 359.894 792.312C360.107 792.579 360.323 792.844 360.538 793.109ZM357.455 789.185C358.216 790.185 358.985 791.172 359.763 792.146C358.985 791.172 358.216 790.185 357.455 789.185ZM357.356 789.054C357.238 788.897 357.118 788.741 357 788.584C356.916 788.473 356.834 788.36 356.75 788.248C356.952 788.517 357.154 788.786 357.356 789.054ZM355.916 787.126C355.752 786.903 355.589 786.678 355.426 786.453C355.589 786.678 355.752 786.903 355.916 787.126ZM354.775 785.554C354.671 785.408 354.567 785.263 354.463 785.117C354.567 785.263 354.671 785.408 354.775 785.554ZM353.568 783.848C353.396 783.601 353.224 783.353 353.053 783.104C353.224 783.353 353.396 783.601 353.568 783.848ZM351.765 781.211C352.002 781.564 352.239 781.916 352.478 782.267C352.239 781.916 352.002 781.564 351.765 781.211ZM351.24 780.426C351.09 780.199 350.939 779.971 350.789 779.743C350.939 779.971 351.09 780.199 351.24 780.426ZM349.906 778.386C349.792 778.209 349.68 778.031 349.566 777.854C349.68 778.031 349.792 778.209 349.906 778.386ZM348.914 776.823C348.789 776.624 348.664 776.425 348.539 776.226C348.664 776.425 348.789 776.624 348.914 776.823ZM347.662 774.803C347.62 774.734 347.576 774.665 347.534 774.596C347.477 774.502 347.422 774.407 347.365 774.313C347.464 774.477 347.563 774.64 347.662 774.803ZM478.997 748.484C479.557 748.545 480.121 748.599 480.688 748.648C480.405 748.624 480.122 748.599 479.84 748.571L478.997 748.484ZM455.259 741.367V741.368C455.044 741.25 454.831 741.131 454.618 741.01V741.009C454.831 741.13 455.044 741.249 455.259 741.367ZM696.296 619.402C696.081 619.446 695.825 619.488 695.528 619.53C695.676 619.509 695.814 619.488 695.941 619.467L696.296 619.402ZM701.559 618.271L700.245 618.568C701.038 618.392 701.83 618.209 702.621 618.021C702.267 618.105 701.913 618.19 701.559 618.271ZM342.049 606.298C342.072 606.255 342.094 606.211 342.117 606.168C342.173 606.063 342.23 605.958 342.286 605.854C342.207 606.001 342.128 606.15 342.049 606.298ZM342.968 604.591C343.076 604.392 343.183 604.194 343.292 603.996C343.183 604.194 343.076 604.392 342.968 604.591ZM345.315 600.4C345.352 600.338 345.388 600.275 345.424 600.213C345.388 600.275 345.352 600.338 345.315 600.4ZM346.291 598.729C346.334 598.656 346.377 598.582 346.421 598.509C346.448 598.463 346.475 598.418 346.502 598.372C346.431 598.491 346.361 598.61 346.291 598.729ZM349.234 593.915C348.792 594.614 348.354 595.32 347.918 596.029C348.072 595.778 348.225 595.527 348.38 595.277L349.234 593.915ZM361.323 577.18C359.853 578.963 358.412 580.791 357.001 582.666L357 582.665C358.411 580.79 359.853 578.963 361.323 577.18ZM362.592 575.659C362.865 575.336 363.14 575.014 363.415 574.694C363.473 574.627 363.531 574.561 363.589 574.494C363.255 574.88 362.923 575.268 362.592 575.659ZM364.269 573.715C364.427 573.534 364.584 573.352 364.743 573.172L364.861 573.039C364.663 573.263 364.466 573.489 364.269 573.715ZM690.693 516.546C690.487 516.59 690.251 516.628 689.985 516.666C690.252 516.628 690.49 516.589 690.696 516.545L690.693 516.546ZM692.288 515.958L691.31 516.369C691.791 516.17 692.268 515.967 692.742 515.762C692.591 515.827 692.44 515.893 692.288 515.958ZM832.711 501.187C832.355 502.285 831.99 503.375 831.618 504.458C831.802 503.922 831.985 503.384 832.165 502.844L832.711 501.187ZM841.569 446.377C841.56 446.68 841.551 446.983 841.541 447.285C841.551 446.983 841.56 446.68 841.569 446.377ZM841.617 444.565C841.61 444.863 841.602 445.161 841.595 445.458C841.602 445.161 841.611 444.863 841.617 444.565ZM841.676 440.739C841.669 441.627 841.655 442.512 841.64 443.393C841.643 443.211 841.648 443.03 841.65 442.849L841.676 440.739ZM741.922 441.041C741.915 441.395 741.905 441.747 741.895 442.099C741.905 441.735 741.915 441.37 741.922 441.004V441.041ZM729.039 354.235C729.108 354.251 729.177 354.267 729.246 354.283C729.177 354.267 729.108 354.251 729.039 354.235ZM728.446 354.118C728.504 354.128 728.561 354.138 728.618 354.148C728.561 354.138 728.504 354.128 728.446 354.118ZM727.894 354.031C727.972 354.042 728.049 354.055 728.127 354.066C728.049 354.055 727.972 354.042 727.894 354.031ZM723.203 353.64L724.012 353.682C723.74 353.666 723.47 353.652 723.202 353.64L722.405 353.609C722.669 353.617 722.935 353.628 723.203 353.64ZM830.414 322.517C830.26 322.165 830.104 321.813 829.945 321.463V321.462C830.104 321.813 830.26 322.164 830.414 322.517ZM880.76 865.229C880.866 865.601 880.971 865.972 881.074 866.346C880.971 865.972 880.866 865.601 880.76 865.229ZM363.638 796.81C363.564 796.724 363.489 796.64 363.415 796.555C363.321 796.445 363.228 796.334 363.134 796.225C363.301 796.42 363.469 796.615 363.638 796.81ZM362.963 796.025C362.739 795.762 362.515 795.498 362.292 795.233C362.515 795.498 362.739 795.762 362.963 796.025Z" fill="#0C1360"/>
<path d="M483.192 621.182C495.467 621.182 682.487 622.211 696.297 619.402C710.363 616.593 724.173 612.125 737.727 605.996C751.537 599.613 764.707 591.569 777.238 581.866C789.77 572.163 800.766 560.545 810.229 547.011C819.947 533.222 827.619 517.391 833.245 499.516C838.872 481.642 841.685 461.342 841.685 438.616V375.035C841.685 362.778 839.511 349.628 835.163 335.583C831.072 321.539 824.167 308.517 814.449 296.515C804.986 284.259 792.583 274.172 777.238 266.257C761.894 258.086 743.097 254 720.848 254H160M160 353.585H720.848C722.894 353.585 725.068 353.713 727.369 353.968C729.927 354.224 732.228 355.118 734.274 356.65C736.576 357.926 738.366 360.097 739.645 363.161C741.179 365.97 741.946 370.183 741.946 375.801V438.616C741.946 451.639 739.901 463.257 735.809 473.471C731.717 483.43 725.835 491.984 718.163 499.133C710.746 506.283 701.796 512.028 691.31 516.369C681.081 520.455 482.673 503.622 425.099 531.588C406.005 537.342 398.365 543.412 381.886 556.75C365.668 569.827 352.067 586.958 341.081 608.143C330.356 629.066 324.994 654.828 324.994 685.428C324.994 716.029 330.356 741.921 341.081 763.106C352.067 784.291 365.668 801.422 381.886 814.499C398.365 827.576 416.152 837.122 435.247 843.138C454.342 848.891 472.129 851.768 488.608 851.768H723.239C732.655 851.768 741.156 853.338 748.742 856.476C756.589 859.615 763.128 864.061 768.36 869.815C773.853 875.569 778.038 882.369 780.915 890.215C783.793 898.061 785.231 906.692 785.231 916.107C785.231 935.462 785.231 944.803 785.231 944.803M887.245 944.803C887.245 944.803 887.245 936.246 887.245 916.107C887.245 895.969 884.76 877.922 879.79 861.968C874.82 846.014 868.019 831.891 859.387 819.599C851.017 807.306 841.339 796.845 830.353 788.214C819.367 779.322 807.727 771.998 795.433 766.245C783.4 760.491 771.237 756.306 758.943 753.691C746.649 750.814 735.009 749.244 724.023 748.983H488.608C469.251 748.983 454.08 743.36 443.094 732.113C432.369 720.606 427.007 705.044 427.007 685.428C427.007 666.074 432.369 650.513 443.094 638.743C454.08 626.974 469.251 621.089 488.608 621.089" stroke="#E42E00" stroke-width="40"/>
</g>
<defs>
<clipPath id="clip0_3023_8">
<rect x="172" y="185" width="725" height="725" rx="42" fill="white"/>
</clipPath>
</defs>
</svg>
