<svg width="1658" height="655" viewBox="0 0 1658 655" fill="none" xmlns="http://www.w3.org/2000/svg">
<path d="M502.637 84.3818C504.313 84.3818 506.094 84.4873 507.98 84.6967C510.076 84.9062 511.964 85.6399 513.641 86.8968C515.527 87.9442 516.994 89.7244 518.042 92.2378C519.299 94.542 519.929 97.9986 519.929 102.607V154.141C519.929 164.825 518.252 174.358 514.898 182.737C511.545 190.907 506.722 197.924 500.434 203.79C494.356 209.655 487.02 214.368 478.426 217.929C470.303 221.176 337.379 218.132 273.26 219.966L267.274 220.161C253.808 220.179 239.276 222.645 223.681 227.562C208.03 232.283 193.451 240.115 179.944 251.058C166.651 261.786 155.503 275.841 146.498 293.22C137.708 310.386 133.313 331.521 133.313 356.625C133.314 381.729 137.708 402.971 146.498 420.351C155.503 437.73 166.651 451.785 179.944 462.514C193.451 473.242 208.03 481.074 223.681 486.009C239.332 490.729 253.911 493.089 267.418 493.089H459.732C467.45 493.089 474.419 494.376 480.636 496.95C487.068 499.525 492.428 503.174 496.716 507.894C501.219 512.615 504.65 518.194 507.008 524.631C509.366 531.068 510.545 538.149 510.545 545.873V652.513C506.219 652.881 501.842 653.072 497.421 653.072H38.2636C17.1315 653.072 0.000215846 635.943 0 614.814V155.715C2.91203e-05 131.999 5.39605 109.542 15.0271 89.5063L502.637 84.3818Z" fill="#110C6C"/>
<path d="M612.212 2.68319C633.344 2.68326 650.475 19.8124 650.475 40.9417V500.038C650.475 549.729 626.786 593.886 590.087 621.841C591.864 593.956 594.159 555.997 594.159 545.873C594.159 529.352 592.122 514.546 588.048 501.457C583.975 488.369 578.401 476.782 571.326 466.697C564.466 456.613 556.532 448.03 547.527 440.949C538.523 433.654 528.982 427.647 518.906 422.927C509.043 418.206 499.074 414.772 488.997 412.627C478.921 410.266 469.38 408.978 460.376 408.764H267.418C251.553 408.763 239.118 404.151 230.113 394.925C221.323 385.484 216.928 372.717 216.928 356.625C216.928 340.748 221.323 327.981 230.113 318.325C239.118 308.67 251.553 303.841 267.418 303.841C277.479 303.841 471.181 304.762 482.512 302.458C494.041 300.154 505.361 296.487 516.471 291.459C527.79 286.222 538.585 279.622 548.856 271.662C559.127 263.701 568.141 254.17 575.897 243.068C583.862 231.756 590.15 218.767 594.762 204.103C599.373 189.439 601.678 172.785 601.678 154.141V101.979C601.678 91.924 599.898 81.1358 596.334 69.6145C592.98 58.0928 587.32 47.4086 579.355 37.5628C571.599 27.5075 561.432 19.2334 548.856 12.7393C536.279 6.03586 520.873 2.68328 502.637 2.68319H612.212Z" fill="#110C6C"/>
<path d="M692.846 64.1321L725.914 2.61764H829.325C847.651 2.61764 862.486 8.28919 873.83 19.6323C885.175 30.5391 890.847 45.1542 890.847 63.4776V268.308C890.847 277.906 888.884 286.631 884.957 294.484C881.03 301.9 875.794 308.226 869.249 313.462L911.137 460.704H848.305L810.999 329.168H791.364V460.704H729.187V63.4776L692.846 64.1321ZM825.398 63.4776H791.364V268.308H825.398C827.579 268.308 828.67 267.217 828.67 265.035V66.7497C828.67 64.5683 827.579 63.4776 825.398 63.4776Z" fill="#110C6C"/>
<path d="M1087.83 402.461C1087.83 420.785 1082.16 435.618 1070.81 446.961C1059.47 457.868 1044.63 463.321 1026.31 463.321H979.184C960.858 463.321 946.023 457.868 934.678 446.961C923.333 435.618 917.661 420.785 917.661 402.461V60.86C917.661 42.5366 923.333 27.9214 934.678 17.0146C946.023 5.67155 960.858 0 979.184 0H1026.31C1044.63 0 1059.47 5.67155 1070.81 17.0146C1082.16 27.9214 1087.83 42.5366 1087.83 60.86V402.461ZM983.111 60.86C980.929 60.86 979.838 61.9507 979.838 64.1321V399.189C979.838 401.371 980.929 402.461 983.111 402.461H1022.38C1024.56 402.461 1025.65 401.371 1025.65 399.189V64.1321C1025.65 61.9507 1024.56 60.86 1022.38 60.86H983.111Z" fill="#110C6C"/>
<path d="M1107.49 63.4776V2.61764H1287.48V63.4776H1228.57V460.704H1166.39V63.4776H1107.49Z" fill="#110C6C"/>
<path d="M1462.51 399.844L1457.27 460.704H1313.94V63.4776L1310.67 2.61764H1462.51L1455.96 63.4776H1376.11V200.903H1449.42L1442.87 261.763H1376.11V399.844H1462.51Z" fill="#110C6C"/>
<path d="M1652.2 313.462V402.461C1652.2 420.785 1646.53 435.618 1635.19 446.961C1623.84 457.868 1609.01 463.321 1590.68 463.321H1543.56C1525.23 463.321 1510.4 457.868 1499.05 446.961C1487.71 435.618 1482.04 420.785 1482.04 402.461V60.86C1482.04 42.5366 1487.71 27.9214 1499.05 17.0146C1510.4 5.67155 1525.23 0 1543.56 0H1590.68C1609.01 0 1623.84 5.67155 1635.19 17.0146C1646.53 27.9214 1652.2 42.5366 1652.2 60.86V145.815H1590.68L1590.03 64.1321C1590.03 61.9507 1588.94 60.86 1586.75 60.86H1547.49C1545.3 60.86 1544.21 61.9507 1544.21 64.1321V399.189C1544.21 401.371 1545.3 402.461 1547.49 402.461H1586.75C1588.94 402.461 1590.03 401.371 1590.03 399.189L1590.68 313.462H1652.2Z" fill="#110C6C"/>
<path d="M718.592 535.236C718.592 522.668 721.624 513.057 727.687 506.404C733.749 499.602 742.696 496.201 754.526 496.201C766.356 496.201 775.303 499.602 781.366 506.404C787.429 513.057 790.46 522.668 790.46 535.236V540.115H767.391V533.683C767.391 528.36 766.356 524.516 764.286 522.15C762.216 519.637 759.184 518.38 755.192 518.38C751.199 518.38 748.167 519.637 746.097 522.15C744.027 524.516 742.992 528.36 742.992 533.683C742.992 540.189 744.692 545.881 748.094 550.761C751.643 555.64 756.892 561.185 763.842 567.395C769.61 572.717 774.268 577.449 777.817 581.589C781.366 585.581 784.397 590.46 786.911 596.227C789.425 601.993 790.682 608.573 790.682 615.966C790.682 628.534 787.577 638.218 781.366 645.02C775.155 651.673 766.134 655 754.304 655C742.474 655 733.454 651.673 727.243 645.02C721.032 638.218 717.927 628.534 717.927 615.966V606.429H740.995V617.518C740.995 627.573 745.21 632.6 753.639 632.6C762.068 632.6 766.282 627.573 766.282 617.518C766.282 611.013 764.508 605.32 760.959 600.441C757.558 595.561 752.382 590.017 745.432 583.807C739.665 578.484 735.006 573.826 731.457 569.834C727.908 565.694 724.877 560.741 722.363 554.975C719.849 549.208 718.592 542.629 718.592 535.236Z" fill="#110C6C"/>
<path d="M929.1 563.402V585.581H895.606V631.047H937.751V653.226H871.206V497.976H937.751V520.154H895.606V563.402H929.1Z" fill="#110C6C"/>
<path d="M1070.43 653.226C1069.55 650.712 1068.95 648.346 1068.66 646.129C1068.36 643.911 1068.21 639.919 1068.21 634.152V609.756C1068.21 602.659 1066.96 597.631 1064.44 594.674C1061.93 591.569 1057.86 590.017 1052.24 590.017H1043.81V653.226H1019.41V497.976H1056.24C1068.81 497.976 1077.97 500.933 1083.74 506.847C1089.51 512.614 1092.39 521.559 1092.39 533.683V545.881C1092.39 561.85 1087.07 572.348 1076.42 577.375C1082.19 579.741 1086.33 583.733 1088.84 589.351C1091.36 594.822 1092.61 601.845 1092.61 610.421V634.374C1092.61 638.81 1092.76 642.432 1093.06 645.241C1093.35 647.903 1094.09 650.564 1095.28 653.226H1070.43ZM1043.81 567.838H1053.35C1058.23 567.838 1061.86 566.581 1064.22 564.068C1066.74 561.554 1067.99 557.34 1067.99 551.426V536.123C1067.99 530.504 1066.96 526.438 1064.89 523.925C1062.96 521.411 1059.86 520.154 1055.57 520.154H1043.81V567.838Z" fill="#110C6C"/>
<path d="M1230.23 497.976H1252.63L1228.67 653.226H1192.3L1168.34 497.976H1192.96L1211.59 624.615L1230.23 497.976Z" fill="#110C6C"/>
<path d="M1354.96 497.976V653.226H1330.56V497.976H1354.96Z" fill="#110C6C"/>
<path d="M1510.11 615.966C1510.11 628.534 1507 638.218 1500.79 645.02C1494.58 651.673 1485.56 655 1473.73 655C1461.9 655 1452.88 651.673 1446.67 645.02C1440.46 638.218 1437.35 628.534 1437.35 615.966V535.236C1437.35 522.668 1440.46 513.057 1446.67 506.404C1452.88 499.602 1461.9 496.201 1473.73 496.201C1485.56 496.201 1494.58 499.602 1500.79 506.404C1507 513.057 1510.11 522.668 1510.11 535.236V550.317H1487.04V533.683C1487.04 523.481 1482.82 518.38 1474.39 518.38C1465.97 518.38 1461.75 523.481 1461.75 533.683V617.518C1461.75 627.573 1465.97 632.6 1474.39 632.6C1482.82 632.6 1487.04 627.573 1487.04 617.518V595.34H1510.11V615.966Z" fill="#110C6C"/>
<path d="M1649.35 563.402V585.581H1615.86V631.047H1658V653.226H1591.46V497.976H1658V520.154H1615.86V563.402H1649.35Z" fill="#110C6C"/>
</svg>
