<svg width="1310" height="1310" viewBox="0 0 1310 1310" fill="none" xmlns="http://www.w3.org/2000/svg">
<g filter="url(#filter0_n_3059_23)">
<circle cx="654.648" cy="654.647" r="349.747" fill="#F8F8FF"/>
<circle cx="654.648" cy="654.647" r="346.787" stroke="#110C6C" stroke-width="5.91973"/>
</g>
<g filter="url(#filter1_n_3059_23)">
<circle cx="654.648" cy="654.647" r="346.787" stroke="#110C6C" stroke-width="5.91973"/>
</g>
<g filter="url(#filter2_n_3059_23)">
<path d="M1150 654.5C1150 928.157 928.157 1150 654.5 1150C380.843 1150 159 928.157 159 654.5C159 380.843 380.843 159 654.5 159C928.157 159 1150 380.843 1150 654.5ZM319.648 654.5C319.648 839.434 469.566 989.352 654.5 989.352C839.434 989.352 989.352 839.434 989.352 654.5C989.352 469.566 839.434 319.648 654.5 319.648C469.566 319.648 319.648 469.566 319.648 654.5Z" fill="#F8F8FF"/>
<path d="M654.5 164.5C925.12 164.5 1144.5 383.88 1144.5 654.5C1144.5 925.12 925.12 1144.5 654.5 1144.5C383.88 1144.5 164.5 925.12 164.5 654.5C164.5 383.88 383.88 164.5 654.5 164.5ZM654.5 314.147C466.529 314.147 314.147 466.529 314.147 654.5C314.147 842.471 466.529 994.853 654.5 994.853C842.471 994.853 994.853 842.471 994.853 654.5C994.853 466.529 842.471 314.147 654.5 314.147Z" stroke="#110C6C" stroke-width="11"/>
</g>
<g filter="url(#filter3_n_3059_23)">
<path d="M645.241 209.08C654.335 209.15 661.345 211.302 666.273 215.536C671.201 219.708 673.636 225.609 673.578 233.239C673.516 241.315 670.988 247.591 665.994 252.068C661 256.481 653.956 258.653 644.863 258.584L634.657 258.506L634.524 275.865L612.396 275.696L612.907 208.833L645.241 209.08ZM644.991 241.796C647.408 241.815 649.257 241.13 650.54 239.74C651.886 238.288 652.569 236.29 652.589 233.746C652.608 231.267 651.954 229.354 650.629 228.008C649.368 226.6 647.529 225.886 645.113 225.867L634.907 225.789L634.785 241.718L644.991 241.796ZM639.296 250.624L660.662 250.787L675.825 276.181L650.835 275.99L639.296 250.624Z" fill="#110C6C"/>
<path d="M762.179 220.977C767.322 222.421 771.804 224.571 775.626 227.427C779.448 230.283 782.529 233.658 784.871 237.552C787.212 241.445 788.664 245.684 789.227 250.267C789.868 254.806 789.51 259.494 788.152 264.331C786.794 269.168 784.643 273.418 781.699 277.083C778.833 280.704 775.379 283.598 771.336 285.765C767.31 287.872 762.914 289.18 758.147 289.692C753.397 290.141 748.451 289.645 743.308 288.201C738.165 286.757 733.683 284.607 729.861 281.751C726.057 278.834 722.984 275.428 720.643 271.535C718.318 267.58 716.844 263.302 716.22 258.702C715.658 254.118 716.064 249.378 717.439 244.48C718.814 239.582 720.925 235.353 723.774 231.794C726.701 228.19 730.169 225.366 734.177 223.321C738.203 221.215 742.591 219.937 747.341 219.487C752.09 219.037 757.037 219.534 762.179 220.977ZM757.479 238.779C755.643 238.263 753.755 238.163 751.818 238.477C749.958 238.748 748.18 239.438 746.482 240.546C744.862 241.61 743.418 242.988 742.151 244.68C740.883 246.372 739.923 248.381 739.27 250.707C738.634 252.973 738.408 255.188 738.593 257.353C738.778 259.519 739.306 261.517 740.18 263.347C741.07 265.116 742.23 266.631 743.66 267.891C745.089 269.151 746.722 270.038 748.559 270.554C750.396 271.07 752.222 271.153 754.037 270.804C755.852 270.455 757.57 269.748 759.19 268.684C760.827 267.558 762.257 266.11 763.48 264.34C764.704 262.57 765.633 260.552 766.269 258.287C766.922 255.96 767.179 253.754 767.038 251.667C766.897 249.58 766.412 247.66 765.583 245.908C764.771 244.095 763.672 242.598 762.287 241.416C760.919 240.174 759.316 239.294 757.479 238.779Z" fill="#110C6C"/>
<path d="M841.099 247.035L892.993 277.526L884.15 292.576L867.702 282.912L842.671 325.512L823.592 314.301L848.622 271.701L832.256 262.085L841.099 247.035Z" fill="#110C6C"/>
<path d="M935.887 306.396L976.235 346.038L964.469 358.013L939.907 333.88L934.158 339.732L956.475 361.658L944.709 373.633L922.392 351.707L916.576 357.626L941.751 382.361L929.985 394.336L889.025 354.092L935.887 306.396Z" fill="#110C6C"/>
<path d="M1016.5 442.59C1017.88 439.458 1018.56 436.266 1018.53 433.016C1018.53 429.821 1017.86 427.107 1016.51 424.874C1015.5 423.186 1014.19 421.82 1012.6 420.776C1011.09 419.754 1009.38 419.076 1007.47 418.742C1005.62 418.375 1003.66 418.401 1001.62 418.82C999.654 419.26 997.692 420.072 995.732 421.253C993.717 422.468 992.029 423.857 990.669 425.419C989.342 427.036 988.381 428.767 987.785 430.611C987.243 432.422 987.045 434.25 987.191 436.092C987.424 437.957 988.049 439.733 989.067 441.421C990.315 443.491 992.243 445.335 994.853 446.955C997.55 448.596 1000.46 449.735 1003.6 450.372L998.513 468.36C994.891 467.648 991.372 466.429 987.955 464.702C984.57 463.029 981.469 460.964 978.65 458.505C975.918 456.068 973.666 453.379 971.893 450.438C969.234 446.027 967.523 441.526 966.761 436.937C966.086 432.369 966.262 427.919 967.289 423.587C968.37 419.223 970.276 415.178 973.005 411.453C975.822 407.75 979.409 404.586 983.766 401.959C988.068 399.366 992.476 397.748 996.99 397.106C1001.5 396.464 1005.93 396.727 1010.27 397.896C1014.65 399.119 1018.71 401.166 1022.44 404.037C1026.21 406.963 1029.44 410.659 1032.13 415.124C1033.91 418.065 1035.24 421.269 1036.14 424.735C1037.08 428.255 1037.54 431.799 1037.54 435.365C1037.57 438.985 1037.09 442.433 1036.09 445.706L1016.5 442.59Z" fill="#110C6C"/>
<path d="M1073.72 601.173C1074.72 598.778 1075.61 596.077 1076.39 593.071C1077.17 590.066 1077.75 587.155 1078.11 584.339C1078.48 581.586 1078.52 579.234 1078.23 577.283C1078.06 576.088 1077.7 575.145 1077.15 574.454C1076.6 573.763 1075.79 573.495 1074.72 573.651C1073.46 573.835 1072.51 574.584 1071.86 575.899C1071.29 577.267 1070.87 579 1070.6 581.096C1070.33 583.255 1070.03 585.612 1069.7 588.167C1069.43 590.713 1068.96 593.255 1068.3 595.793C1067.72 598.384 1066.82 600.797 1065.6 603.031C1064.39 605.327 1062.68 607.248 1060.46 608.792C1058.26 610.399 1055.42 611.455 1051.96 611.96C1046.99 612.684 1042.71 611.99 1039.13 609.878C1035.6 607.757 1032.75 604.703 1030.56 600.716C1028.44 596.721 1027.01 592.237 1026.29 587.266C1025.73 583.428 1025.56 579.435 1025.79 575.289C1026.1 571.196 1026.77 567.21 1027.81 563.331C1028.91 559.443 1030.38 555.855 1032.22 552.567L1049.92 558.277C1048.3 560.826 1046.93 563.758 1045.8 567.07C1044.68 570.383 1043.87 573.65 1043.38 576.871C1042.88 580.092 1042.79 582.803 1043.12 585.006C1043.35 586.642 1043.83 587.89 1044.53 588.752C1045.3 589.604 1046.31 589.938 1047.57 589.755C1048.83 589.571 1049.74 588.795 1050.31 587.427C1050.96 586.112 1051.41 584.375 1051.67 582.216C1051.95 580.12 1052.19 577.803 1052.4 575.266C1052.67 572.721 1053.06 570.156 1053.59 567.574C1054.18 565.045 1055.05 562.637 1056.2 560.35C1057.41 558.116 1059.06 556.205 1061.15 554.616C1063.24 553.09 1065.98 552.079 1069.38 551.584C1073.85 550.933 1077.89 551.533 1081.5 553.384C1085.11 555.235 1088.1 558.14 1090.48 562.099C1092.87 566.121 1094.48 570.996 1095.31 576.722C1096.07 581.945 1096.1 587.21 1095.4 592.518C1094.7 597.889 1093.43 602.605 1091.58 606.666L1073.72 601.173Z" fill="#110C6C"/>
<path d="M1102.1 657.445L1096.31 713.711L1079.61 711.99L1083.14 677.737L1074.98 676.897L1071.77 708.018L1055.07 706.298L1058.28 675.176L1050.02 674.326L1046.41 709.432L1029.71 707.712L1035.59 650.592L1102.1 657.445Z" fill="#110C6C"/>
<path d="M1075.74 799.748C1072.54 808.259 1068.1 814.096 1062.42 817.26C1056.81 820.446 1050.43 820.695 1043.29 818.007C1035.73 815.163 1030.71 810.624 1028.23 804.392C1025.81 798.182 1026.2 790.821 1029.41 782.311L1033 772.759L1016.75 766.644L1024.55 745.932L1087.13 769.484L1075.74 799.748ZM1045.12 788.224C1044.27 790.485 1044.27 792.458 1045.13 794.141C1046.03 795.906 1047.67 797.236 1050.05 798.132C1052.37 799.006 1054.39 799.053 1056.11 798.273C1057.87 797.576 1059.18 796.096 1060.03 793.835L1063.62 784.283L1048.71 778.672L1045.12 788.224ZM1038.8 779.832L1031.27 799.829L1002.21 805.299L1011.01 781.909L1038.8 779.832Z" fill="#110C6C"/>
<path d="M1045.88 872.787L1032.03 891.964L988.362 877.484L1015.89 914.31L1002.65 932.636L963.415 872.762L976.82 854.204L1045.88 872.787Z" fill="#110C6C"/>
<path d="M972.041 970.61L955.536 985.351L910.995 935.48L927.5 920.739L972.041 970.61Z" fill="#110C6C"/>
<path d="M858.995 1020.75C862.1 1022.19 865.277 1022.93 868.526 1022.97C871.721 1023.04 874.448 1022.42 876.708 1021.12C878.416 1020.14 879.808 1018.86 880.884 1017.29C881.936 1015.8 882.648 1014.11 883.021 1012.2C883.425 1010.36 883.439 1008.4 883.062 1006.35C882.661 1004.38 881.89 1002.4 880.747 1000.41C879.574 998.375 878.219 996.66 876.685 995.269C875.095 993.91 873.384 992.913 871.552 992.28C869.752 991.702 867.93 991.468 866.084 991.576C864.215 991.771 862.427 992.36 860.718 993.344C858.624 994.549 856.741 996.441 855.069 999.017C853.374 1001.68 852.176 1004.57 851.477 1007.69L833.594 1002.24C834.379 998.637 835.67 995.143 837.465 991.761C839.206 988.412 841.333 985.352 843.848 982.584C846.34 979.902 849.074 977.705 852.05 975.992C856.514 973.422 861.048 971.802 865.652 971.133C870.233 970.551 874.679 970.816 878.989 971.931C883.331 973.1 887.336 975.087 891.004 977.891C894.65 980.782 897.741 984.432 900.279 988.841C902.786 993.195 904.314 997.634 904.865 1002.16C905.416 1006.69 905.063 1011.11 903.807 1015.43C902.496 1019.78 900.367 1023.79 897.421 1027.47C894.419 1031.18 890.659 1034.33 886.14 1036.93C883.164 1038.65 879.934 1039.92 876.451 1040.75C872.912 1041.61 869.36 1042.01 865.795 1041.93C862.174 1041.89 858.737 1041.33 855.484 1040.27L858.995 1020.75Z" fill="#110C6C"/>
<path d="M814.723 1072.54L760.188 1087.55L755.732 1071.37L788.932 1062.23L786.755 1054.32L756.59 1062.62L752.135 1046.44L782.3 1038.13L780.098 1030.13L746.07 1039.5L741.615 1023.31L796.978 1008.07L814.723 1072.54Z" fill="#110C6C"/>
<path d="M638.861 1111.19L623.084 1109.85L630.302 1024.41L646.08 1025.74L638.861 1111.19Z" fill="#110C6C"/>
<path d="M476.731 1062.95C471.746 1060.55 467.592 1057.67 464.27 1054.31C460.92 1051.01 458.447 1047.35 456.85 1043.33C455.253 1039.32 454.577 1035.08 454.822 1030.61C455.039 1026.2 456.25 1021.7 458.456 1017.11C460.661 1012.53 463.462 1008.76 466.859 1005.81C470.17 1002.88 473.935 1000.78 478.153 999.492C482.344 998.262 486.847 997.923 491.662 998.476C496.449 999.085 501.393 1000.62 506.493 1003.07L532.624 1015.64L503.635 1075.9L476.731 1062.95ZM497.76 1017.92C495.927 1017.04 494.128 1016.6 492.365 1016.6C490.601 1016.59 488.901 1016.98 487.263 1017.74C485.567 1018.48 484.034 1019.61 482.664 1021.14C481.236 1022.64 479.985 1024.51 478.91 1026.74C477.835 1028.98 477.185 1031.13 476.961 1033.21C476.651 1035.32 476.753 1037.31 477.265 1039.18C477.719 1041.02 478.584 1042.67 479.857 1044.13C481.074 1045.57 482.656 1046.75 484.604 1047.69L491.137 1050.83L505.238 1021.52L497.76 1017.92Z" fill="#110C6C"/>
<path d="M397.324 1020.88L354.394 984.05L365.325 971.308L391.459 993.729L396.801 987.503L373.055 967.132L383.986 954.391L407.732 974.762L413.135 968.464L386.349 945.484L397.28 932.742L440.862 970.131L397.324 1020.88Z" fill="#110C6C"/>
<path d="M304.232 890.942C304.421 893.531 304.845 896.343 305.504 899.378C306.163 902.414 306.968 905.269 307.917 907.944C308.831 910.568 309.855 912.685 310.989 914.297C311.685 915.285 312.434 915.963 313.237 916.331C314.041 916.699 314.884 916.571 315.768 915.949C316.808 915.217 317.318 914.119 317.299 912.655C317.191 911.176 316.785 909.44 316.082 907.446C315.342 905.401 314.545 903.163 313.689 900.732C312.782 898.338 312.048 895.86 311.49 893.299C310.842 890.722 310.557 888.162 310.633 885.62C310.674 883.025 311.334 880.538 312.615 878.16C313.859 875.729 315.911 873.507 318.771 871.494C322.879 868.602 327.009 867.289 331.162 867.554C335.262 867.856 339.189 869.292 342.941 871.861C346.642 874.466 349.937 877.823 352.829 881.931C355.062 885.103 357.011 888.591 358.678 892.395C360.256 896.183 361.456 900.043 362.279 903.974C363.05 907.942 363.36 911.806 363.208 915.568L344.836 918.468C345.131 915.461 345.031 912.227 344.537 908.763C344.044 905.3 343.29 902.02 342.277 898.923C341.264 895.826 340.116 893.368 338.835 891.548C337.883 890.196 336.899 889.294 335.882 888.844C334.813 888.43 333.759 888.589 332.719 889.321C331.679 890.053 331.213 891.159 331.321 892.638C331.34 894.102 331.72 895.856 332.46 897.902C333.163 899.895 333.994 902.07 334.954 904.428C335.861 906.822 336.665 909.289 337.364 911.83C337.975 914.355 338.286 916.896 338.298 919.454C338.221 921.996 337.613 924.447 336.473 926.804C335.297 929.11 333.304 931.251 330.496 933.227C326.804 935.826 322.929 937.115 318.871 937.095C314.812 937.074 310.829 935.834 306.921 933.375C302.976 930.864 299.338 927.242 296.007 922.51C292.969 918.194 290.566 913.509 288.797 908.455C286.992 903.349 285.997 898.567 285.814 894.108L304.232 890.942Z" fill="#110C6C"/>
<path d="M242.902 824.863C240.979 819.676 239.988 814.719 239.932 809.993C239.815 805.288 240.576 800.937 242.213 796.939C243.85 792.941 246.308 789.419 249.587 786.372C252.806 783.347 256.801 780.951 261.571 779.182C266.34 777.413 270.973 776.645 275.467 776.878C279.88 777.073 284.051 778.171 287.981 780.173C291.851 782.197 295.328 785.079 298.41 788.82C301.432 792.582 303.928 797.116 305.895 802.423L315.976 829.612L253.281 852.857L242.902 824.863ZM289.299 807.05C288.592 805.142 287.604 803.576 286.336 802.35C285.068 801.125 283.579 800.219 281.869 799.632C280.137 798.985 278.248 798.737 276.2 798.885C274.131 798.974 271.934 799.45 269.608 800.312C267.283 801.174 265.318 802.276 263.713 803.617C262.026 804.921 260.718 806.423 259.788 808.124C258.837 809.765 258.313 811.553 258.217 813.488C258.098 815.363 258.415 817.314 259.166 819.341L261.686 826.139L292.184 814.831L289.299 807.05Z" fill="#110C6C"/>
<path d="M214.953 739.374L209.689 683.056L226.404 681.493L229.609 715.778L237.776 715.015L234.865 683.864L251.58 682.302L254.491 713.453L262.754 712.68L259.47 677.541L276.185 675.979L281.528 733.151L214.953 739.374Z" fill="#110C6C"/>
<path d="M213.73 571.107L222.805 538.583L287.21 556.553L281.262 577.868L224.391 562L236.26 555.31L230.543 575.798L213.73 571.107Z" fill="#110C6C"/>
<path d="M284.967 500.475C287.091 499.581 288.994 498.356 290.677 496.799C292.304 495.212 293.71 493.293 294.895 491.043C296.229 488.511 296.919 486.179 296.964 484.047C297.009 481.914 296.439 479.996 295.252 478.293C294.009 476.56 292.177 475.056 289.758 473.781C290.513 475.76 290.834 478.014 290.724 480.543C290.587 482.987 289.777 485.615 288.295 488.428C286.339 492.141 283.804 494.974 280.69 496.928C277.606 498.825 274.187 499.791 270.431 499.824C266.649 499.773 262.817 498.724 258.935 496.679C254.716 494.456 251.548 491.601 249.432 488.114C247.315 484.627 246.303 480.751 246.393 476.487C246.484 472.222 247.715 467.839 250.086 463.338C252.932 457.937 256.572 453.961 261.006 451.41C265.471 448.803 270.474 447.629 276.015 447.889C281.5 448.119 287.28 449.835 293.356 453.036C299.658 456.356 304.535 460.399 307.99 465.166C311.444 469.933 313.353 475.108 313.718 480.691C314.113 486.217 312.813 491.822 309.82 497.504C308.012 500.936 305.681 504.2 302.827 507.297C300.004 510.338 297.137 512.709 294.228 514.41L284.967 500.475ZM265.166 470.528C264.513 471.766 264.175 472.953 264.151 474.091C264.157 475.172 264.491 476.174 265.154 477.099C265.79 477.937 266.784 478.712 268.134 479.423C270.047 480.431 271.747 480.752 273.234 480.385C274.75 479.962 276.012 478.794 277.02 476.881C277.731 475.531 278.084 474.316 278.079 473.235C278.047 472.068 277.699 471.022 277.036 470.098C276.373 469.173 275.423 468.385 274.185 467.733C273.229 467.229 272.339 466.94 271.516 466.866C270.666 466.705 269.854 466.745 269.081 466.985C268.281 467.138 267.576 467.522 266.966 468.134C266.299 468.717 265.699 469.515 265.166 470.528Z" fill="#110C6C"/>
<path d="M331.356 418.273C333.63 417.9 335.767 417.153 337.767 416.032C339.719 414.869 341.534 413.332 343.213 411.42C345.101 409.27 346.316 407.163 346.858 405.101C347.4 403.038 347.293 401.04 346.536 399.106C345.732 397.13 344.303 395.241 342.248 393.436C342.52 395.537 342.306 397.803 341.608 400.237C340.904 402.581 339.503 404.947 337.405 407.336C334.636 410.49 331.51 412.653 328.026 413.825C324.584 414.95 321.034 415.09 317.374 414.246C313.709 413.313 310.228 411.398 306.93 408.503C303.347 405.356 300.933 401.841 299.69 397.956C298.446 394.071 298.367 390.066 299.451 385.941C300.535 381.815 302.755 377.841 306.112 374.018C310.14 369.431 314.608 366.415 319.515 364.97C324.465 363.477 329.604 363.504 334.931 365.05C340.211 366.555 345.431 369.573 350.591 374.105C355.943 378.804 359.742 383.875 361.987 389.316C364.233 394.758 364.882 400.236 363.933 405.75C363.026 411.216 360.453 416.362 356.216 421.188C353.656 424.103 350.628 426.732 347.13 429.077C343.674 431.374 340.333 433.011 337.107 433.986L331.356 418.273ZM319.095 384.53C318.172 385.582 317.566 386.657 317.277 387.757C317.03 388.81 317.121 389.863 317.55 390.916C317.973 391.88 318.758 392.866 319.904 393.873C321.529 395.299 323.107 396.008 324.638 395.999C326.212 395.942 327.712 395.101 329.138 393.476C330.145 392.329 330.772 391.23 331.02 390.177C331.261 389.035 331.167 387.937 330.738 386.884C330.309 385.83 329.569 384.842 328.518 383.919C327.706 383.205 326.908 382.717 326.125 382.452C325.336 382.098 324.537 381.947 323.73 381.999C322.916 381.962 322.141 382.17 321.405 382.623C320.62 383.034 319.85 383.67 319.095 384.53Z" fill="#110C6C"/>
<path d="M409.51 314.464C413.887 312.613 418.206 312.166 422.467 313.123C426.743 313.992 430.332 316.477 433.235 320.577C435.733 324.107 437.021 327.908 437.099 331.982C437.178 336.055 436.055 340.083 433.732 344.065C431.423 347.958 427.959 351.539 423.339 354.809C419.083 357.821 414.446 360.13 409.427 361.734C404.371 363.287 399.696 363.947 395.402 363.714L393.19 347.049C397.063 347.347 400.612 347.133 403.838 346.408C407.027 345.631 409.894 344.342 412.437 342.542C413.891 341.513 414.974 340.513 415.688 339.54C416.417 338.479 416.758 337.419 416.711 336.362C416.716 335.268 416.332 334.176 415.561 333.086C414.459 331.529 413.069 330.721 411.391 330.662C409.676 330.551 407.729 331.267 405.549 332.81L395.35 340.028L388.737 330.685L393.998 303.941L399.925 307.692L373.454 326.428L364.251 313.425L404.192 285.157L411.411 295.356L404.352 325.009L397.712 319.425L409.51 314.464Z" fill="#110C6C"/>
<path d="M507.209 221.4L522.289 216.573L548.432 298.242L533.352 303.07L507.209 221.4Z" fill="#110C6C"/>
</g>
<circle cx="654.5" cy="654.5" r="499.5" stroke="#F8F8FF" stroke-width="8"/>
<g clip-path="url(#clip0_3059_23)" filter="url(#filter4_n_3059_23)">
<path d="M599.469 842.735C575.284 846.366 564.042 837.986 563.888 837.868C562.766 836.991 561.149 837.184 560.267 838.3C559.381 839.419 559.57 841.046 560.69 841.932C561.115 842.268 569.651 848.828 587.664 848.828C591.435 848.828 595.623 848.54 600.237 847.849C601.649 847.637 602.621 846.32 602.41 844.908C602.198 843.497 600.882 842.528 599.469 842.735H599.469Z" fill="#110C6C"/>
<path d="M675.9 791.602H675.883C675.883 791.602 675.469 791.223 674.762 790.585C674.418 790.275 674.005 789.878 673.522 789.447C673.056 788.966 672.506 788.534 671.97 787.947C670.851 786.879 669.644 785.552 668.404 784.172C667.835 783.431 667.145 782.775 666.612 781.965C666.336 781.586 666.024 781.207 665.714 780.845C665.438 780.448 665.181 780.034 664.921 779.638C664.353 778.861 663.922 778.018 663.439 777.225C662.922 776.448 662.629 775.57 662.198 774.793C661.768 774.035 661.544 773.19 661.233 772.467C660.889 771.743 660.682 771.001 660.474 770.311C660.286 769.64 660.009 769.053 659.905 768.484C659.767 767.915 659.647 767.433 659.544 767.019C659.303 766.208 659.166 765.761 659.166 765.761L659.063 765.346C658.596 763.777 657.08 762.709 655.39 762.881C653.512 763.089 652.134 764.778 652.341 766.657C652.341 766.657 652.41 767.243 652.512 768.277C652.582 768.777 652.668 769.397 652.772 770.104C648.239 770.483 587.471 774.949 533.751 756.071C533.751 756.071 533.717 756.123 533.665 756.175C532.632 755.934 531.493 756.157 530.615 756.916L530.58 756.951C530.58 756.951 530.373 757.124 530.011 757.434C529.684 757.727 529.15 758.158 528.495 758.674C527.839 759.192 527.029 759.744 526.185 760.364C525.306 760.916 524.376 761.587 523.393 762.14C522.428 762.691 521.446 763.329 520.497 763.76C519.532 764.226 518.653 764.742 517.86 765.035C516.275 765.691 515.206 766.121 515.206 766.121L515.138 766.156C514.878 766.259 514.707 766.535 514.724 766.828C514.758 767.208 515.085 767.483 515.465 767.449C515.465 767.449 516.654 767.328 518.429 767.173C519.343 767.104 520.359 766.879 521.48 766.707C522.617 766.535 523.771 766.225 524.961 765.949C526.15 765.691 527.305 765.294 528.408 764.983C528.477 764.965 528.53 764.948 528.597 764.914C525.978 771.413 524.083 781.172 528.115 793.135C535.664 815.547 560.654 832.149 588.644 834.097C616.253 835.994 660.769 827.839 664.527 787.998C664.647 788.084 664.785 788.171 664.906 788.257C665.837 788.826 666.715 789.377 667.593 789.809C668.491 790.239 669.335 790.636 670.145 790.912C671.748 791.497 673.144 791.826 674.126 791.963C674.626 792.05 675.023 792.083 675.28 792.083C675.557 792.101 675.694 792.101 675.694 792.101C675.78 792.118 675.868 792.083 675.935 792.015C676.039 791.894 676.023 791.704 675.901 791.601L675.9 791.602ZM615.873 821.806C611.599 825.03 603.843 827.099 591.02 827.408C579.387 827.702 568.788 824.392 562.376 819.754C555.948 815.134 552.174 802.084 566.754 800.221C574.389 799.239 580.421 802.481 583.333 804.497C583.178 804.583 582.988 804.669 582.834 804.773C581.714 805.479 580.679 806.325 579.767 807.306C579.007 808.134 578.249 808.996 577.836 810.065C577.715 810.41 577.68 810.616 577.749 810.738C577.871 811.031 578.37 810.876 578.887 810.686C582.179 809.049 595.449 799.998 610.959 803.825C616.32 805.135 619.853 808.065 620.18 811.893C620.491 815.772 619.336 819.169 615.872 821.806L615.873 821.806Z" fill="#110C6C"/>
<path d="M673.961 556.574C675.223 557.17 696.324 553.915 709.97 558.955C712.971 560.063 715.916 560.967 718.691 562.612C722.184 564.686 725.675 566.689 728.854 569.24C729.595 569.834 730.31 570.409 730.996 570.96C733.95 573.335 736.724 575.917 739.659 578.31C740.127 578.691 740.377 578.894 740.377 578.894C740.491 578.985 740.608 579.013 740.72 578.982C740.91 578.93 741.021 578.735 740.969 578.546C740.299 576.114 739.503 573.72 738.664 571.341C738.159 569.837 737.317 568.289 736.397 566.571C735.425 564.893 734.578 562.879 733.132 561.138C731.762 559.341 730.415 557.298 728.631 555.521C727.3 554.193 725.994 552.839 724.602 551.574C723.099 550.206 721.473 548.931 719.805 547.773C713.633 543.494 706.088 540.797 698.619 540.089C694.147 539.667 676.874 539.664 671.662 550.044C671.232 550.898 671.054 551.886 671.206 552.901C671.444 554.52 672.494 555.881 673.962 556.574H673.961Z" fill="#110C6C"/>
<path d="M489.551 560.134C489.551 560.134 489.828 559.982 490.347 559.698C493.602 557.905 496.74 555.899 500.01 554.128C500.77 553.717 501.561 553.288 502.381 552.847C505.899 550.945 509.607 549.642 513.329 548.269C516.284 547.179 519.259 546.851 522.327 546.332C536.272 543.971 555.681 551.154 556.996 550.809C558.525 550.408 559.788 549.27 560.332 547.728C560.674 546.761 560.696 545.758 560.455 544.841C557.532 533.673 541.123 530.408 536.793 529.976C529.56 529.257 521.865 530.476 515.167 533.505C513.357 534.325 511.565 535.268 509.868 536.325C508.299 537.303 506.794 538.384 505.271 539.433C503.229 540.84 501.553 542.588 499.9 544.092C498.188 545.526 496.987 547.34 495.737 548.803C494.527 550.312 493.426 551.673 492.653 553.051C491.39 555.225 490.166 557.422 489.056 559.681C488.968 559.857 489.036 560.069 489.206 560.156C489.308 560.208 489.424 560.202 489.55 560.135L489.551 560.134Z" fill="#110C6C"/>
<path d="M679.804 669.244C679.411 677.751 681.531 685.614 685.362 691.598C693.996 691.268 708.645 692.022 719.861 695.915C725.664 690.329 729.813 681.811 730.754 671.947C732.501 653.602 722.541 637.644 708.504 636.306C698.989 635.399 690.055 641.456 684.737 651.16L697.874 663.307L679.804 669.243V669.244Z" fill="#110C6C"/>
<path d="M851.173 753.771L850.865 753.788L850.785 753.797L850.625 753.813L850.305 753.849C849.875 753.902 849.438 753.955 849 754.009C846.594 754.428 844.541 755.088 842.531 756.089C840.544 757.093 838.641 758.325 837.055 759.845L835.869 760.98L834.816 762.207C834.088 763.001 833.516 763.887 832.921 764.738C831.76 766.455 830.888 768.273 830.169 770.033C829.767 770.9 829.509 771.792 829.219 772.648C828.926 773.504 828.687 774.35 828.52 775.185C828.336 776.011 828.157 776.814 827.984 777.591C827.873 778.373 827.764 779.128 827.66 779.853C827.432 781.294 827.398 782.628 827.321 783.795C827.242 784.965 827.262 785.984 827.28 786.822C827.341 788.49 827.375 789.443 827.375 789.443C827.38 789.582 827.471 789.709 827.611 789.754C827.79 789.81 827.979 789.711 828.037 789.533L828.041 789.514C828.041 789.514 828.326 788.615 828.822 787.042C829.05 786.258 829.322 785.309 829.734 784.25C829.959 783.637 830.185 782.965 830.434 782.272C830.621 782.042 830.822 781.795 831.038 781.529C831.502 781.069 832.027 780.551 832.6 779.984C833.116 779.377 833.879 778.994 834.542 778.482C834.862 778.199 835.242 778.017 835.629 777.86C836.011 777.698 836.375 777.489 836.76 777.354C837.147 777.275 837.541 777.194 837.938 777.113C838.314 776.988 838.734 777.124 839.105 777.079C839.476 777.028 839.869 777.133 840.247 777.224C840.621 777.291 840.995 777.348 841.374 777.534C842.119 777.763 842.866 778.188 843.598 778.561C844.317 779.052 845.049 779.464 845.697 780.055C846.397 780.527 846.961 781.211 847.568 781.726C848.1 782.348 848.671 782.87 849.105 783.443C849.556 783.997 850.006 784.513 850.264 784.936C850.559 785.396 850.859 785.643 851.113 786.139C851.611 786.99 851.929 787.46 851.929 787.46C852.805 788.754 854.488 789.345 856.018 788.776C857.816 788.108 858.731 786.109 858.063 784.312C858.063 784.312 857.866 783.78 857.463 782.88C857.309 782.475 856.9 781.75 856.478 781.043C856.046 780.275 855.518 779.586 854.946 778.798C854.408 777.986 853.623 777.259 852.886 776.422C852.034 775.672 851.213 774.829 850.151 774.128C849.155 773.385 847.977 772.738 846.758 772.153C845.455 771.659 844.129 771.167 842.636 771.048C842.271 771.008 841.921 770.935 841.55 770.931C841.173 770.936 840.798 770.963 840.426 770.986C839.682 771.025 838.957 771.079 838.246 771.319C837.547 771.542 836.822 771.661 836.218 772.029C835.872 772.217 835.551 772.406 835.222 772.595C836.094 771.255 837.12 769.994 838.195 768.818C838.763 768.243 839.294 767.632 839.929 767.151L840.835 766.382L841.806 765.729C843.085 764.85 844.436 764.174 845.81 763.697C847.164 763.188 848.666 763.026 849.715 762.898C850.147 762.882 850.578 762.866 851.004 762.85L851.326 762.836L851.407 762.833C851.356 762.835 851.326 762.838 851.403 762.833L851.418 762.835L851.866 762.868C852.472 762.878 853.025 762.964 853.557 763.05C854.602 763.276 855.551 763.548 856.385 763.978C857.213 764.406 857.993 764.862 858.637 765.389C859.28 765.914 859.859 766.412 860.289 766.874C860.736 767.32 861.067 767.706 861.284 767.941C861.401 768.079 861.454 768.125 861.498 768.153C861.54 768.18 861.592 768.278 861.587 768.263C862.055 769.077 862.872 769.697 863.869 769.87C865.65 770.182 867.345 768.989 867.654 767.209L867.938 765.583C867.933 765.569 867.944 765.557 867.889 765.379C867.839 765.223 867.764 764.994 867.666 764.691C867.489 764.144 867.186 763.41 866.718 762.501C865.77 760.73 864.039 758.209 860.845 756.193C859.26 755.197 857.31 754.444 855.213 754.042C854.687 753.969 854.154 753.894 853.615 753.817C853.077 753.768 852.54 753.785 851.993 753.773L851.172 753.771H851.173Z" fill="#110C6C"/>
<path d="M913.427 713.109C908.634 709.196 895.881 699.697 880.852 688.663C901.948 609.843 884.661 563.21 873.458 542.09C860.533 517.748 836.819 493.164 800.85 479.165C767.018 433.049 707.559 414.947 680.208 411.723C652.856 408.482 611.494 412.137 592.536 416.24C573.578 420.343 543.624 428.601 523.666 419.119C503.692 409.638 489.197 388.657 477.564 389.519C465.931 390.381 459.898 402.31 458.02 414.809C456.159 427.308 461.329 439.377 468.792 452.737C453.574 440.168 451.16 424.257 449.161 417.206C437.235 421.379 428.876 438.514 429.014 457.323C429.152 476.149 434.391 493.388 458.313 513.438C436.631 519.678 418.673 540.798 410.057 562.347C401.956 582.621 403.283 604.705 415.313 619.996C413.607 632.151 412.521 647.787 413.573 666.148C408.764 665.544 401.819 665.752 395.269 669.888C385.825 675.888 380.361 687.956 379.051 705.764C376.742 736.865 397.32 748.037 404.059 750.864C406.299 788.05 427.446 817.185 444.836 831.908C453.492 839.25 465.416 847.446 480.814 854.045C482.408 854.714 484.292 855.463 485.491 855.958C501.017 862.375 518.884 865.526 535.678 866.112C535.764 866.181 535.868 866.249 535.971 866.319C542.446 871.426 550.237 875.68 557.807 878.714C561.219 880.08 564.365 881.174 567.881 882.238C581.671 886.391 596.843 887.963 611.24 887.604C622.85 887.203 633.143 885.9 644.552 883.839C654.382 881.904 664.241 879.244 673.796 876.168C676.942 875.117 679.044 874.432 679.862 874.164C680.585 874.06 682.724 873.784 686.015 873.371C700.033 871.148 713.397 868.389 726.964 863.992C731.203 862.457 735.686 861.112 740.028 859.198C742.217 858.285 744.457 857.424 746.646 856.458C748.817 855.44 751.006 854.423 753.195 853.406C755.401 852.441 757.503 851.217 759.624 850.096C761.726 848.924 763.88 847.889 765.897 846.596C767.931 845.371 769.948 844.148 771.947 842.924C773.894 841.648 775.79 840.322 777.65 839.028C779.529 837.753 781.269 836.355 782.976 834.994C784.683 833.596 786.407 832.356 787.906 830.873C789.423 829.442 790.905 828.062 792.334 826.719C793.731 825.338 794.954 823.873 796.195 822.529C796.799 821.856 797.401 821.201 797.97 820.546C798.539 819.891 799.039 819.184 799.539 818.511C799.573 818.46 799.625 818.408 799.659 818.356C810.897 826.838 822.306 831.114 833.732 831.114C837.472 831.114 841.194 830.648 844.918 829.734C871.372 823.286 888.521 795.686 891.675 788.652C898.362 773.722 903.497 741.328 875.181 725.657C873.389 724.658 871.596 723.813 869.838 723.106C870.855 720.312 871.838 717.555 872.785 714.848C884.211 723.279 893.398 730.14 897.068 733.14C906.341 740.708 907.873 753.62 901.67 771.516C899.325 778.257 902.91 785.635 909.632 787.98C911.011 788.445 912.424 788.687 913.872 788.687C919.369 788.687 924.281 785.204 926.09 779.997C935.948 751.587 931.451 727.831 913.424 713.107L913.427 713.109ZM616.01 511.059C636.175 511.801 666.611 513.8 696.702 524.368C732.221 536.833 783.977 568.984 801.074 632.168C798.075 630.582 794.87 628.875 792.354 627.462C792.301 627.445 792.266 627.41 792.232 627.393C771.275 614.514 732.171 600.636 684.516 600.636C668.92 600.636 653.46 602.171 638.535 605.205C635.467 605.826 632.899 607.929 631.692 610.826C631.399 611.497 628.331 618.996 625.678 632.03C612.235 624.789 591.054 616.462 573.578 623.703C573.492 619.945 573.439 616.652 573.612 613.739C573.802 610.532 572.372 607.446 569.787 605.532C548.088 589.482 513.378 579.898 476.926 579.898C472.186 579.898 467.43 580.069 462.638 580.397C487.905 519.197 571.699 509.438 616.009 511.059L616.01 511.059ZM781.031 642.771C780.048 659.201 778.342 681.406 762.848 716.713C755.196 717.902 746.958 718.522 738.272 718.522C697.426 718.522 656.597 705.145 642.672 700.128C640.105 680.819 640.517 664.183 641.964 651.029C642.121 649.528 642.292 648.099 642.482 646.702C642.482 646.702 642.482 646.702 642.482 646.685C643.983 635.651 646.118 627.497 647.584 622.79C659.612 620.67 672.022 619.601 684.517 619.601C724.863 619.601 760.934 630.807 781.031 642.771ZM438.15 602.637C451.128 600.137 464.157 598.862 476.928 598.862C511.983 598.862 539.197 608.343 554.535 618.066C554.535 620.635 554.604 623.291 554.673 626.031C554.793 631.221 554.948 637.048 554.621 643.651C551.76 631.669 543.642 622.721 533.285 621.722C523.771 620.825 514.843 626.877 509.518 636.583L522.652 648.719L504.59 654.666C504.194 663.166 506.313 671.028 510.138 677.009C517.619 676.733 529.597 677.268 539.955 679.94C538.679 681.319 537.439 682.802 536.301 684.456C535.388 685.75 534.647 687.025 533.854 688.612C533.578 689.267 533.32 689.715 533.009 690.56C532.699 691.319 532.372 692.094 532.165 692.784C532.096 692.974 532.044 693.163 531.992 693.353C526.995 693.801 521.79 694.025 516.446 694.042C481.15 694.042 446.837 684.492 433.894 680.457C429.171 641.823 435.186 613.481 438.15 602.637ZM405.645 701.921C405.698 701.939 409.058 704.456 409.368 709.972C405.904 720.816 404.215 731.247 403.922 741.211C397.182 737.332 386.067 727.661 387.635 706.404C388.756 691.509 392.84 681.682 399.82 677.217C405.059 673.855 410.988 674.338 414.246 674.976C414.658 679.51 415.193 684.182 415.899 688.991C416.038 689.973 416.33 690.888 416.762 691.75C415.4 694.491 414.176 697.215 413.057 699.921C411.574 697.715 409.868 696.284 408.645 695.714C406.921 694.904 404.836 695.628 404.025 697.352C403.215 699.076 403.922 701.11 405.645 701.92L405.645 701.921ZM871.012 733.194C899.551 749.003 883.973 784.775 883.799 785.137C881.198 790.982 865.687 815.807 842.884 821.376C830.269 824.444 817.377 821.031 804.521 811.222C805.175 810.118 805.761 809.101 806.296 808.188C808.071 804.326 808.967 802.119 808.967 802.119C809.053 801.912 809.002 801.654 808.812 801.499C808.588 801.326 808.243 801.361 808.053 801.585L808.019 801.636C808.019 801.636 806.52 803.498 804.105 806.739C803.348 807.549 802.538 808.48 801.642 809.481C800.883 810.325 800.073 811.222 799.178 812.17C798.333 812.997 797.42 813.876 796.472 814.791C796.3 814.946 796.127 815.118 795.955 815.291C795.387 815.824 794.834 816.411 794.215 816.962C793.577 817.497 792.939 818.048 792.284 818.617C790.957 819.72 789.63 820.928 788.164 822.065C786.683 823.203 785.148 824.358 783.581 825.566C782.822 826.186 781.994 826.755 781.132 827.306C780.305 827.892 779.462 828.461 778.599 829.047C776.893 830.237 775.169 831.461 773.291 832.547C771.448 833.668 769.587 834.822 767.69 835.978C765.743 837.046 763.762 838.134 761.779 839.236C759.832 840.374 757.711 841.288 755.661 842.322C753.575 843.305 751.524 844.373 749.386 845.253C747.285 846.166 745.166 847.097 743.045 848.012C740.926 848.89 738.753 849.667 736.634 850.494C732.412 852.183 728.119 853.493 724.018 854.907C719.88 856.217 715.832 857.321 712.023 858.458C708.162 859.441 704.508 860.355 701.131 861.2C697.752 861.923 694.667 862.597 691.927 863.183C689.204 863.802 686.654 864.13 684.638 864.51C680.57 865.252 678.261 865.683 678.261 865.683C678.208 865.699 678.156 865.717 678.122 865.717C677.985 865.752 677.846 865.768 677.708 865.803L677.554 865.837C677.554 865.837 674.916 866.631 670.281 867.975C669.127 868.337 667.851 868.717 666.453 869.147C665.059 869.544 663.542 869.906 661.921 870.354C658.664 871.182 655.028 872.216 650.995 873.044C648.978 873.492 646.893 873.941 644.723 874.423C642.551 874.819 640.293 875.234 637.983 875.664C636.811 875.871 635.639 876.112 634.45 876.302C633.26 876.457 632.054 876.629 630.83 876.801C628.384 877.095 625.903 877.578 623.352 877.768C620.801 877.992 618.216 878.302 615.579 878.475C612.959 878.596 610.305 878.716 607.634 878.836C604.945 878.819 602.256 878.887 599.55 878.836C596.844 878.681 594.121 878.647 591.434 878.406C588.745 878.095 586.004 877.975 583.367 877.492C582.022 877.285 580.696 877.095 579.369 876.888C578.042 876.681 576.75 876.371 575.439 876.129C570.2 875.13 565.168 873.612 560.393 871.975C555.637 870.233 551.138 868.268 547.002 866.165C546.071 865.664 545.175 865.165 544.279 864.664H544.262C543.348 864.148 542.47 863.648 541.59 863.113H541.573C540.522 862.509 539.488 861.889 538.505 861.25C537.557 860.647 536.627 860.026 535.748 859.407C534.886 858.82 534.06 858.234 533.249 857.648C530.905 855.924 528.786 854.217 526.907 852.614C524.408 850.39 522.271 848.374 520.616 846.615C518.945 844.873 517.721 843.408 516.876 842.408C516.049 841.39 515.653 840.821 515.653 840.821C515.601 840.752 515.498 840.718 515.411 840.752C515.307 840.786 515.274 840.908 515.307 841.012C515.307 841.012 516.256 843.701 518.91 847.942C520.272 850.045 522.012 852.527 524.27 855.2C524.752 855.785 525.269 856.372 525.821 856.975C489.801 852.889 465.103 837.787 450.403 825.323C439.597 816.186 425.413 798.652 417.932 776.845C408.953 750.64 410.918 723.85 423.758 697.11C432.496 700.093 473.101 713.005 516.445 713.005C520.909 713.005 525.286 712.868 529.544 712.575C529.647 714.713 529.887 716.867 530.319 719.023C530.63 720.488 530.991 721.97 531.492 723.418L531.612 723.78L531.698 724.022L531.871 724.47L532.232 725.401C532.559 726.108 532.853 726.884 533.181 727.522C534.474 730.177 536.059 732.676 537.886 734.9C541.556 739.366 546.261 742.658 551.019 744.693C555.793 746.779 560.635 747.606 564.961 747.744C569.322 747.848 573.216 747.261 576.543 746.486C579.869 745.675 582.661 744.693 584.867 743.692C587.091 742.744 588.745 741.83 589.865 741.176C590.985 740.503 591.553 740.141 591.553 740.141C591.553 740.141 590.864 740.159 589.589 740.228C588.313 740.331 586.434 740.435 584.125 740.572C581.782 740.694 578.989 740.814 575.87 740.796C572.733 740.779 569.252 740.625 565.615 740.055C561.979 739.503 558.17 738.59 554.568 736.866C550.966 735.143 547.622 732.574 545.071 729.16C542.521 725.815 540.642 721.523 539.902 717.212C539.592 715.42 539.436 713.558 539.419 711.661C539.35 708.817 539.609 705.904 540.109 703.059C540.522 700.68 541.108 698.352 541.901 696.18C542.09 695.611 542.28 695.163 542.47 694.68C542.608 694.267 542.969 693.559 543.228 692.991C543.624 692.215 544.194 691.199 544.814 690.336C547.279 686.768 550.933 683.577 554.689 680.526C558.447 677.406 562.393 674.423 566.013 671.028C567.857 669.32 569.615 667.46 571.183 665.46C572.666 663.546 573.975 661.493 574.974 659.287C575.233 658.753 575.492 658.046 575.733 657.461C575.975 656.805 576.043 656.478 576.216 655.978L576.37 655.443L576.474 655.064L576.664 654.305C576.786 653.789 576.923 653.289 577.025 652.806C577.439 650.822 577.715 648.962 577.887 647.203C578.06 645.548 578.164 644.014 578.214 642.583C578.37 642.513 578.508 642.427 578.645 642.341C581.421 640.617 584.764 639.893 588.4 639.893C599.844 639.893 614.201 647.031 622.731 652.288C621.301 667.58 621.283 686.596 624.748 708.507C625.265 711.783 627.454 714.559 630.537 715.8C632.711 716.68 684.414 737.488 738.272 737.488C750.008 737.488 761.108 736.471 771.275 734.471C774.274 733.885 776.807 731.903 778.067 729.109C791.647 699.422 796.473 677.391 798.506 660.788C800.522 662.236 803.245 664.218 806.503 666.563C808.365 703.904 795.49 731.368 789.355 743.625C784.787 752.797 786.734 754.503 791.768 755.141C800.625 754.933 808.572 753.244 823.479 739.487C824.376 738.642 825.288 737.867 826.185 737.125C832.889 732.557 851.416 722.368 871.012 733.195V733.194ZM917.943 777.172C917.338 778.965 915.667 780.069 913.875 780.069C913.409 780.069 912.927 780 912.46 779.828C910.22 779.052 909.03 776.604 909.806 774.345C914.977 759.451 917.923 739.039 902.517 726.471C888.712 715.178 800.505 651.598 799.626 650.96C799.574 650.926 799.524 650.892 799.488 650.84C799.414 649.122 800.123 642.297 800.23 641.274C800.885 640.877 893.949 708.351 907.963 719.781C922.992 732.056 926.541 752.434 917.943 777.172Z" fill="#110C6C"/>
</g>
<defs>
<filter id="filter0_n_3059_23" x="304.9" y="304.899" width="699.494" height="699.494" filterUnits="userSpaceOnUse" color-interpolation-filters="sRGB">
<feFlood flood-opacity="0" result="BackgroundImageFix"/>
<feBlend mode="normal" in="SourceGraphic" in2="BackgroundImageFix" result="shape"/>
<feTurbulence type="fractalNoise" baseFrequency="0.061938431113958359 0.061938431113958359" stitchTiles="stitch" numOctaves="3" result="noise" seed="4739" />
<feColorMatrix in="noise" type="luminanceToAlpha" result="alphaNoise" />
<feComponentTransfer in="alphaNoise" result="coloredNoise1">
<feFuncA type="discrete" tableValues="0 0 0 0 0 0 0 0 0 0 0 0 0 0 0 0 1 1 1 1 1 1 1 1 1 1 1 1 1 1 1 1 1 1 0 0 0 0 0 0 0 0 0 0 0 0 0 0 0 0 0 0 0 0 0 0 0 0 0 0 0 0 0 0 0 0 0 0 0 0 0 0 0 0 0 0 0 0 0 0 0 0 0 0 0 0 0 0 0 0 0 0 0 0 0 0 0 0 0 0 "/>
</feComponentTransfer>
<feComposite operator="in" in2="shape" in="coloredNoise1" result="noise1Clipped" />
<feFlood flood-color="#FFFFFF" result="color1Flood" />
<feComposite operator="in" in2="noise1Clipped" in="color1Flood" result="color1" />
<feMerge result="effect1_noise_3059_23">
<feMergeNode in="shape" />
<feMergeNode in="color1" />
</feMerge>
</filter>
<filter id="filter1_n_3059_23" x="304.9" y="304.899" width="699.494" height="699.494" filterUnits="userSpaceOnUse" color-interpolation-filters="sRGB">
<feFlood flood-opacity="0" result="BackgroundImageFix"/>
<feBlend mode="normal" in="SourceGraphic" in2="BackgroundImageFix" result="shape"/>
<feTurbulence type="fractalNoise" baseFrequency="0.061938431113958359 0.061938431113958359" stitchTiles="stitch" numOctaves="3" result="noise" seed="4739" />
<feColorMatrix in="noise" type="luminanceToAlpha" result="alphaNoise" />
<feComponentTransfer in="alphaNoise" result="coloredNoise1">
<feFuncA type="discrete" tableValues="0 0 0 0 0 0 0 0 0 0 0 0 0 0 0 0 1 1 1 1 1 1 1 1 1 1 1 1 1 1 1 1 1 1 0 0 0 0 0 0 0 0 0 0 0 0 0 0 0 0 0 0 0 0 0 0 0 0 0 0 0 0 0 0 0 0 0 0 0 0 0 0 0 0 0 0 0 0 0 0 0 0 0 0 0 0 0 0 0 0 0 0 0 0 0 0 0 0 0 0 "/>
</feComponentTransfer>
<feComposite operator="in" in2="shape" in="coloredNoise1" result="noise1Clipped" />
<feFlood flood-color="#FFFFFF" result="color1Flood" />
<feComposite operator="in" in2="noise1Clipped" in="color1Flood" result="color1" />
<feMerge result="effect1_noise_3059_23">
<feMergeNode in="shape" />
<feMergeNode in="color1" />
</feMerge>
</filter>
<filter id="filter2_n_3059_23" x="159" y="159" width="991" height="991" filterUnits="userSpaceOnUse" color-interpolation-filters="sRGB">
<feFlood flood-opacity="0" result="BackgroundImageFix"/>
<feBlend mode="normal" in="SourceGraphic" in2="BackgroundImageFix" result="shape"/>
<feTurbulence type="fractalNoise" baseFrequency="0.12820093333721161 0.12820093333721161" stitchTiles="stitch" numOctaves="3" result="noise" seed="4739" />
<feColorMatrix in="noise" type="luminanceToAlpha" result="alphaNoise" />
<feComponentTransfer in="alphaNoise" result="coloredNoise1">
<feFuncA type="discrete" tableValues="0 0 0 0 0 0 0 0 0 0 0 0 0 0 0 0 0 0 0 0 0 1 1 1 1 1 1 1 0 0 0 0 0 0 0 0 0 0 0 0 0 0 0 0 0 0 0 0 0 0 0 0 0 0 0 0 0 0 0 0 0 0 0 0 0 0 0 0 0 0 0 0 0 0 0 0 0 0 0 0 0 0 0 0 0 0 0 0 0 0 0 0 0 0 0 0 0 0 0 0 "/>
</feComponentTransfer>
<feComposite operator="in" in2="shape" in="coloredNoise1" result="noise1Clipped" />
<feFlood flood-color="#FFFFFF" result="color1Flood" />
<feComposite operator="in" in2="noise1Clipped" in="color1Flood" result="color1" />
<feMerge result="effect1_noise_3059_23">
<feMergeNode in="shape" />
<feMergeNode in="color1" />
</feMerge>
</filter>
<filter id="filter3_n_3059_23" x="209.689" y="208.833" width="892.416" height="902.354" filterUnits="userSpaceOnUse" color-interpolation-filters="sRGB">
<feFlood flood-opacity="0" result="BackgroundImageFix"/>
<feBlend mode="normal" in="SourceGraphic" in2="BackgroundImageFix" result="shape"/>
<feTurbulence type="fractalNoise" baseFrequency="0.23024937510490417 0.23024937510490417" stitchTiles="stitch" numOctaves="3" result="noise" seed="4739" />
<feColorMatrix in="noise" type="luminanceToAlpha" result="alphaNoise" />
<feComponentTransfer in="alphaNoise" result="coloredNoise1">
<feFuncA type="discrete" tableValues="0 0 0 0 0 0 0 0 0 0 0 0 0 0 0 0 0 1 1 1 1 1 1 1 1 1 1 1 1 1 1 1 0 0 0 0 0 0 0 0 0 0 0 0 0 0 0 0 0 0 0 0 0 0 0 0 0 0 0 0 0 0 0 0 0 0 0 0 0 0 0 0 0 0 0 0 0 0 0 0 0 0 0 0 0 0 0 0 0 0 0 0 0 0 0 0 0 0 0 0 "/>
</feComponentTransfer>
<feComposite operator="in" in2="shape" in="coloredNoise1" result="noise1Clipped" />
<feFlood flood-color="#FFFFFF" result="color1Flood" />
<feComposite operator="in" in2="noise1Clipped" in="color1Flood" result="color1" />
<feMerge result="effect1_noise_3059_23">
<feMergeNode in="shape" />
<feMergeNode in="color1" />
</feMerge>
</filter>
<filter id="filter4_n_3059_23" x="378.871" y="389.493" width="552.332" height="498.161" filterUnits="userSpaceOnUse" color-interpolation-filters="sRGB">
<feFlood flood-opacity="0" result="BackgroundImageFix"/>
<feBlend mode="normal" in="SourceGraphic" in2="BackgroundImageFix" result="shape"/>
<feTurbulence type="fractalNoise" baseFrequency="0.20425230264663696 0.20425230264663696" stitchTiles="stitch" numOctaves="3" result="noise" seed="6312" />
<feColorMatrix in="noise" type="luminanceToAlpha" result="alphaNoise" />
<feComponentTransfer in="alphaNoise" result="coloredNoise1">
<feFuncA type="discrete" tableValues="0 0 0 0 0 0 0 0 0 0 0 0 0 0 0 0 0 0 0 0 0 1 1 1 1 1 1 1 1 0 0 0 0 0 0 0 0 0 0 0 0 0 0 0 0 0 0 0 0 0 0 0 0 0 0 0 0 0 0 0 0 0 0 0 0 0 0 0 0 0 0 0 0 0 0 0 0 0 0 0 0 0 0 0 0 0 0 0 0 0 0 0 0 0 0 0 0 0 0 0 "/>
</feComponentTransfer>
<feComposite operator="in" in2="shape" in="coloredNoise1" result="noise1Clipped" />
<feFlood flood-color="#FFFFFF" result="color1Flood" />
<feComposite operator="in" in2="noise1Clipped" in="color1Flood" result="color1" />
<feMerge result="effect1_noise_3059_23">
<feMergeNode in="shape" />
<feMergeNode in="color1" />
</feMerge>
</filter>
<clipPath id="clip0_3059_23">
<rect width="552.332" height="498.161" fill="white" transform="translate(378.871 389.493)"/>
</clipPath>
</defs>
</svg>
