<svg width="389" height="351" viewBox="0 0 389 351" fill="none" xmlns="http://www.w3.org/2000/svg">
<path d="M155.318 318.566C138.29 321.118 130.375 315.228 130.266 315.145C129.476 314.529 128.338 314.664 127.717 315.449C127.093 316.235 127.227 317.379 128.015 318.002C128.314 318.238 134.324 322.849 147.007 322.849C149.662 322.849 152.61 322.646 155.859 322.16C156.853 322.011 157.537 321.086 157.389 320.093C157.24 319.101 156.313 318.42 155.318 318.566H155.318Z" fill="#110C6C"/>
<path d="M209.129 282.623H209.117C209.117 282.623 208.826 282.357 208.328 281.909C208.085 281.69 207.795 281.412 207.455 281.109C207.127 280.77 206.739 280.467 206.362 280.055C205.574 279.304 204.724 278.371 203.851 277.401C203.451 276.88 202.965 276.419 202.589 275.85C202.395 275.583 202.175 275.317 201.957 275.063C201.763 274.784 201.582 274.493 201.399 274.215C200.999 273.668 200.696 273.076 200.355 272.518C199.991 271.973 199.785 271.355 199.482 270.809C199.179 270.276 199.021 269.682 198.802 269.174C198.56 268.665 198.414 268.144 198.268 267.659C198.135 267.187 197.941 266.774 197.867 266.375C197.77 265.975 197.686 265.636 197.613 265.345C197.443 264.775 197.347 264.461 197.347 264.461L197.275 264.169C196.946 263.066 195.878 262.316 194.688 262.437C193.366 262.583 192.396 263.77 192.542 265.09C192.542 265.09 192.59 265.502 192.662 266.229C192.711 266.581 192.772 267.017 192.845 267.513C189.654 267.78 146.868 270.918 109.046 257.65C109.046 257.65 109.022 257.687 108.985 257.723C108.258 257.554 107.456 257.711 106.838 258.244L106.813 258.268C106.813 258.268 106.668 258.39 106.413 258.608C106.182 258.814 105.806 259.117 105.345 259.48C104.883 259.844 104.313 260.232 103.719 260.667C103.1 261.056 102.445 261.527 101.753 261.916C101.073 262.303 100.382 262.752 99.7142 263.054C99.0345 263.382 98.4156 263.745 97.8573 263.951C96.7411 264.412 95.9888 264.714 95.9888 264.714L95.9406 264.738C95.7577 264.811 95.6373 265.005 95.6493 265.211C95.6736 265.478 95.9038 265.671 96.1713 265.648C96.1713 265.648 97.0085 265.562 98.258 265.453C98.9017 265.405 99.6168 265.247 100.406 265.126C101.207 265.005 102.019 264.787 102.857 264.593C103.694 264.411 104.507 264.132 105.284 263.914C105.333 263.902 105.37 263.89 105.417 263.865C103.573 268.434 102.239 275.292 105.078 283.701C110.393 299.453 127.988 311.122 147.694 312.491C167.133 313.824 198.476 308.093 201.122 280.09C201.206 280.15 201.303 280.212 201.388 280.272C202.044 280.672 202.662 281.059 203.281 281.363C203.913 281.666 204.507 281.944 205.077 282.138C206.206 282.55 207.189 282.781 207.88 282.877C208.232 282.938 208.512 282.961 208.693 282.961C208.887 282.974 208.984 282.974 208.984 282.974C209.044 282.986 209.106 282.961 209.154 282.914C209.227 282.828 209.215 282.695 209.13 282.623L209.129 282.623ZM166.865 303.852C163.856 306.118 158.396 307.572 149.367 307.79C141.177 307.996 133.714 305.67 129.2 302.41C124.674 299.163 122.017 289.99 132.282 288.681C137.658 287.991 141.905 290.269 143.955 291.686C143.846 291.747 143.712 291.807 143.603 291.88C142.815 292.377 142.087 292.971 141.444 293.661C140.909 294.243 140.375 294.849 140.084 295.6C139.999 295.843 139.975 295.988 140.024 296.073C140.109 296.279 140.461 296.17 140.825 296.036C143.143 294.886 152.486 288.524 163.406 291.214C167.181 292.135 169.667 294.194 169.898 296.885C170.117 299.611 169.304 301.999 166.865 303.853L166.865 303.852Z" fill="#110C6C"/>
<path d="M207.767 117.438C208.655 117.857 223.512 115.569 233.12 119.112C235.232 119.89 237.306 120.525 239.259 121.682C241.719 123.139 244.177 124.547 246.415 126.34C246.937 126.758 247.44 127.161 247.924 127.549C250.003 129.218 251.956 131.033 254.023 132.715C254.352 132.983 254.528 133.126 254.528 133.126C254.609 133.189 254.691 133.209 254.77 133.187C254.904 133.151 254.982 133.014 254.945 132.881C254.474 131.171 253.913 129.489 253.322 127.817C252.966 126.76 252.374 125.671 251.726 124.464C251.042 123.285 250.445 121.869 249.427 120.645C248.463 119.382 247.514 117.947 246.258 116.697C245.321 115.765 244.401 114.813 243.421 113.923C242.363 112.962 241.219 112.066 240.044 111.252C235.699 108.245 230.386 106.349 225.127 105.851C221.979 105.554 209.817 105.552 206.148 112.848C205.845 113.448 205.72 114.142 205.826 114.856C205.995 115.994 206.734 116.951 207.767 117.438H207.767Z" fill="#110C6C"/>
<path d="M77.9263 119.938C77.9263 119.938 78.1216 119.831 78.4865 119.631C80.7785 118.371 82.9879 116.961 85.2901 115.716C85.825 115.427 86.3824 115.125 86.9596 114.815C89.4364 113.479 92.0469 112.563 94.6676 111.598C96.7483 110.832 98.8432 110.602 101.003 110.236C110.822 108.577 124.486 113.626 125.412 113.383C126.489 113.101 127.379 112.301 127.761 111.217C128.002 110.538 128.018 109.833 127.848 109.188C125.79 101.339 114.237 99.0441 111.188 98.7408C106.095 98.2356 100.678 99.0918 95.962 101.221C94.6878 101.797 93.4255 102.46 92.2312 103.203C91.1265 103.89 90.0668 104.651 88.9943 105.387C87.5569 106.377 86.3764 107.605 85.2125 108.662C84.0071 109.67 83.1621 110.945 82.2816 111.973C81.4301 113.034 80.6549 113.99 80.1104 114.959C79.2212 116.487 78.3596 118.031 77.578 119.619C77.5159 119.743 77.5637 119.892 77.6837 119.953C77.7554 119.989 77.8367 119.985 77.9258 119.938L77.9263 119.938Z" fill="#110C6C"/>
<path d="M211.877 196.623C211.599 202.602 213.092 208.129 215.789 212.335C221.868 212.103 232.182 212.633 240.079 215.369C244.165 211.443 247.086 205.457 247.749 198.524C248.979 185.629 241.966 174.413 232.083 173.473C225.384 172.835 219.094 177.093 215.35 183.913L224.599 192.45L211.877 196.623V196.623Z" fill="#110C6C"/>
<path d="M332.533 256.037L332.316 256.049L332.26 256.055L332.147 256.066L331.922 256.092C331.619 256.129 331.312 256.166 331.003 256.204C329.31 256.499 327.864 256.962 326.449 257.666C325.049 258.371 323.71 259.238 322.593 260.306L321.758 261.104L321.017 261.966C320.504 262.524 320.102 263.147 319.683 263.745C318.865 264.952 318.251 266.229 317.745 267.467C317.462 268.076 317.28 268.703 317.076 269.305C316.87 269.906 316.702 270.501 316.584 271.087C316.454 271.668 316.329 272.233 316.206 272.779C316.128 273.328 316.051 273.859 315.978 274.369C315.818 275.382 315.794 276.319 315.74 277.139C315.684 277.961 315.698 278.678 315.711 279.267C315.754 280.439 315.778 281.109 315.778 281.109C315.781 281.206 315.845 281.296 315.943 281.328C316.07 281.367 316.203 281.298 316.243 281.172L316.247 281.159C316.247 281.159 316.447 280.527 316.797 279.421C316.957 278.87 317.149 278.203 317.438 277.459C317.597 277.028 317.756 276.556 317.931 276.069C318.063 275.907 318.204 275.733 318.356 275.546C318.683 275.223 319.053 274.859 319.456 274.461C319.82 274.034 320.357 273.765 320.824 273.405C321.049 273.206 321.317 273.078 321.589 272.968C321.858 272.854 322.114 272.707 322.385 272.612C322.657 272.557 322.935 272.5 323.214 272.443C323.479 272.355 323.775 272.45 324.036 272.419C324.298 272.383 324.574 272.457 324.84 272.52C325.104 272.568 325.367 272.608 325.634 272.738C326.158 272.9 326.684 273.199 327.2 273.461C327.706 273.805 328.221 274.095 328.678 274.511C329.17 274.842 329.568 275.323 329.995 275.685C330.37 276.122 330.771 276.489 331.077 276.892C331.395 277.281 331.711 277.644 331.893 277.942C332.101 278.265 332.312 278.438 332.491 278.787C332.841 279.385 333.066 279.715 333.066 279.715C333.682 280.625 334.867 281.04 335.945 280.64C337.21 280.171 337.855 278.766 337.384 277.502C337.384 277.502 337.245 277.129 336.961 276.496C336.853 276.211 336.565 275.702 336.268 275.205C335.964 274.665 335.593 274.181 335.19 273.627C334.811 273.056 334.258 272.546 333.739 271.957C333.14 271.43 332.562 270.838 331.813 270.345C331.112 269.823 330.283 269.368 329.424 268.956C328.507 268.609 327.573 268.264 326.523 268.18C326.265 268.152 326.019 268.101 325.758 268.097C325.493 268.102 325.228 268.12 324.967 268.136C324.443 268.164 323.932 268.202 323.432 268.371C322.939 268.527 322.429 268.611 322.004 268.869C321.76 269.001 321.534 269.135 321.302 269.267C321.916 268.326 322.639 267.439 323.396 266.613C323.795 266.209 324.17 265.779 324.617 265.441L325.254 264.901L325.938 264.441C326.839 263.824 327.79 263.348 328.757 263.013C329.711 262.655 330.768 262.542 331.506 262.452C331.811 262.441 332.114 262.429 332.414 262.418L332.641 262.408L332.698 262.406C332.662 262.408 332.641 262.409 332.695 262.406L332.706 262.408L333.021 262.43C333.447 262.437 333.837 262.498 334.212 262.559C334.947 262.717 335.616 262.909 336.203 263.211C336.785 263.512 337.335 263.832 337.788 264.202C338.241 264.572 338.648 264.922 338.952 265.247C339.266 265.56 339.499 265.831 339.652 265.996C339.735 266.093 339.771 266.126 339.803 266.145C339.832 266.164 339.869 266.233 339.865 266.223C340.195 266.794 340.77 267.23 341.472 267.352C342.726 267.571 343.919 266.733 344.137 265.482L344.337 264.339C344.333 264.329 344.341 264.321 344.303 264.195C344.267 264.086 344.214 263.925 344.145 263.712C344.021 263.328 343.807 262.811 343.478 262.173C342.811 260.928 341.592 259.156 339.343 257.739C338.227 257.039 336.854 256.51 335.377 256.228C335.008 256.176 334.632 256.123 334.253 256.069C333.873 256.034 333.496 256.047 333.11 256.038L332.532 256.037H332.533Z" fill="#110C6C"/>
<path d="M376.366 227.455C372.992 224.704 364.012 218.028 353.431 210.273C368.284 154.874 356.113 122.097 348.225 107.254C339.125 90.1444 322.428 72.8658 297.104 63.0263C273.284 30.6134 231.42 17.8905 212.163 15.6246C192.906 13.3463 163.783 15.9155 150.435 18.799C137.088 21.683 115.998 27.4872 101.946 20.8226C87.883 14.159 77.6775 -0.587596 69.487 0.018107C61.2965 0.624268 57.0492 9.00866 55.7267 17.7936C54.4161 26.5786 58.0564 35.0608 63.3106 44.451C52.596 35.6174 50.8966 24.4339 49.4891 19.4781C41.0923 22.4107 35.2068 34.4546 35.3042 47.6745C35.4016 60.9064 39.0902 73.0232 55.9325 87.1149C40.6673 91.5012 28.0235 106.345 21.9569 121.491C16.2534 135.74 17.1876 151.263 25.6575 162.01C24.4567 170.553 23.6921 181.543 24.4324 194.448C21.0466 194.024 16.1569 194.17 11.5456 197.077C4.89586 201.294 1.04921 209.776 0.126492 222.293C-1.49883 244.152 12.9894 252.004 17.7339 253.991C19.311 280.128 34.2 300.605 46.4439 310.953C52.5385 316.113 60.934 321.874 71.775 326.512C72.8976 326.982 74.2242 327.509 75.0684 327.856C85.9994 332.367 98.5793 334.582 110.404 334.994C110.464 335.042 110.537 335.09 110.61 335.139C115.168 338.729 120.654 341.718 125.984 343.851C128.386 344.811 130.601 345.58 133.076 346.328C142.786 349.247 153.468 350.352 163.605 350.099C171.779 349.818 179.026 348.901 187.059 347.453C193.98 346.093 200.921 344.223 207.649 342.061C209.864 341.323 211.343 340.841 211.92 340.653C212.429 340.58 213.934 340.386 216.252 340.095C226.122 338.533 235.531 336.594 245.082 333.503C248.067 332.424 251.223 331.479 254.281 330.134C255.822 329.492 257.399 328.887 258.94 328.208C260.469 327.493 262.01 326.778 263.551 326.063C265.105 325.385 266.584 324.524 268.078 323.737C269.558 322.913 271.074 322.185 272.494 321.276C273.926 320.416 275.346 319.556 276.754 318.696C278.125 317.799 279.46 316.867 280.77 315.958C282.092 315.061 283.317 314.079 284.519 313.122C285.721 312.14 286.935 311.268 287.99 310.225C289.058 309.22 290.102 308.25 291.108 307.306C292.091 306.336 292.953 305.306 293.826 304.361C294.251 303.888 294.676 303.427 295.076 302.967C295.477 302.507 295.829 302.01 296.181 301.537C296.204 301.501 296.241 301.464 296.265 301.428C304.178 307.39 312.21 310.395 320.255 310.395C322.888 310.395 325.509 310.068 328.131 309.425C346.756 304.893 358.831 285.494 361.051 280.55C365.759 270.057 369.374 247.289 349.438 236.274C348.176 235.572 346.914 234.978 345.676 234.481C346.392 232.518 347.084 230.58 347.751 228.677C355.796 234.603 362.264 239.425 364.848 241.533C371.377 246.852 372.456 255.928 368.088 268.506C366.438 273.244 368.961 278.43 373.694 280.078C374.665 280.405 375.66 280.575 376.679 280.575C380.55 280.575 384.008 278.127 385.282 274.467C392.223 254.499 389.057 237.802 376.364 227.453L376.366 227.455ZM166.963 85.4433C181.161 85.9646 202.59 87.3696 223.776 94.7973C248.784 103.558 285.224 126.156 297.261 170.565C295.15 169.451 292.894 168.251 291.122 167.257C291.085 167.245 291.06 167.221 291.036 167.209C276.281 158.157 248.749 148.403 215.196 148.403C204.215 148.403 193.331 149.482 182.822 151.614C180.662 152.05 178.854 153.529 178.004 155.564C177.798 156.037 175.638 161.307 173.77 170.468C164.305 165.379 149.392 159.526 137.088 164.615C137.027 161.974 136.99 159.659 137.112 157.612C137.245 155.358 136.238 153.189 134.419 151.844C119.141 140.563 94.7028 133.827 69.0381 133.827C65.7006 133.827 62.352 133.947 58.9782 134.178C76.7677 91.1626 135.765 84.3039 166.962 85.4428L166.963 85.4433ZM283.149 178.018C282.457 189.565 281.257 205.172 270.348 229.988C264.96 230.824 259.16 231.259 253.044 231.259C224.286 231.259 195.539 221.857 185.735 218.331C183.927 204.76 184.217 193.067 185.237 183.821C185.347 182.767 185.468 181.762 185.601 180.78C185.601 180.78 185.601 180.78 185.601 180.768C186.658 173.013 188.161 167.282 189.193 163.974C197.662 162.484 206.399 161.732 215.197 161.732C243.604 161.732 269 169.608 283.149 178.018ZM41.7366 149.809C50.8741 148.052 60.0475 147.156 69.039 147.156C93.7208 147.156 112.881 153.82 123.68 160.654C123.68 162.459 123.729 164.325 123.778 166.252C123.862 169.899 123.971 173.995 123.74 178.636C121.726 170.215 116.011 163.925 108.719 163.223C102.02 162.592 95.7344 166.846 91.9852 173.668L101.232 182.198L88.5153 186.378C88.2364 192.352 89.7284 197.878 92.4217 202.081C97.6883 201.888 106.122 202.264 113.415 204.142C112.517 205.111 111.643 206.153 110.842 207.316C110.199 208.225 109.678 209.121 109.119 210.237C108.925 210.697 108.743 211.012 108.524 211.606C108.306 212.139 108.076 212.684 107.93 213.169C107.881 213.303 107.845 213.436 107.808 213.569C104.29 213.884 100.625 214.041 96.863 214.054C72.0121 214.054 47.8528 207.341 38.74 204.505C35.4145 177.351 39.6499 157.431 41.7366 149.809ZM18.851 219.591C18.8878 219.604 21.2539 221.373 21.4722 225.25C19.033 232.871 17.8438 240.203 17.6375 247.206C12.8924 244.48 5.06634 237.683 6.17057 222.742C6.95957 212.273 9.83479 205.366 14.7494 202.228C18.4384 199.865 22.6127 200.204 24.9061 200.653C25.1966 203.839 25.5734 207.123 26.0706 210.503C26.168 211.194 26.3739 211.836 26.6776 212.443C25.719 214.369 24.8574 216.283 24.0694 218.185C23.0249 216.635 21.8241 215.629 20.963 215.229C19.7494 214.659 18.2812 215.168 17.7105 216.38C17.1398 217.592 17.6375 219.021 18.8506 219.591L18.851 219.591ZM346.503 241.572C366.597 252.683 355.628 277.825 355.506 278.08C353.674 282.188 342.753 299.637 326.699 303.55C317.817 305.707 308.74 303.308 299.688 296.414C300.149 295.638 300.561 294.923 300.938 294.281C302.188 291.567 302.819 290.016 302.819 290.016C302.879 289.87 302.844 289.689 302.709 289.58C302.552 289.458 302.309 289.483 302.175 289.64L302.151 289.676C302.151 289.676 301.096 290.985 299.396 293.263C298.863 293.833 298.293 294.487 297.662 295.19C297.127 295.784 296.557 296.414 295.926 297.08C295.332 297.662 294.688 298.279 294.021 298.922C293.9 299.031 293.778 299.152 293.657 299.274C293.257 299.649 292.868 300.061 292.432 300.448C291.983 300.824 291.534 301.212 291.073 301.611C290.138 302.387 289.204 303.236 288.172 304.035C287.129 304.835 286.049 305.646 284.945 306.495C284.411 306.931 283.828 307.331 283.221 307.719C282.639 308.13 282.045 308.53 281.438 308.942C280.237 309.779 279.023 310.639 277.7 311.402C276.403 312.19 275.092 313.001 273.757 313.814C272.386 314.565 270.991 315.329 269.595 316.104C268.224 316.903 266.731 317.546 265.287 318.273C263.819 318.963 262.375 319.714 260.87 320.332C259.39 320.974 257.898 321.629 256.405 322.272C254.913 322.889 253.383 323.435 251.891 324.016C248.918 325.203 245.896 326.124 243.008 327.118C240.095 328.039 237.245 328.815 234.563 329.614C231.844 330.305 229.272 330.947 226.894 331.541C224.515 332.05 222.343 332.523 220.414 332.935C218.497 333.37 216.701 333.601 215.282 333.868C212.418 334.389 210.792 334.692 210.792 334.692C210.755 334.703 210.718 334.716 210.695 334.716C210.598 334.74 210.5 334.752 210.403 334.776L210.294 334.8C210.294 334.8 208.437 335.358 205.173 336.303C204.361 336.557 203.463 336.825 202.479 337.127C201.497 337.405 200.429 337.66 199.288 337.975C196.995 338.557 194.434 339.284 191.595 339.865C190.175 340.181 188.707 340.496 187.179 340.835C185.65 341.114 184.06 341.405 182.434 341.707C181.609 341.853 180.783 342.022 179.946 342.156C179.108 342.265 178.259 342.386 177.398 342.507C175.675 342.713 173.928 343.052 172.132 343.186C170.336 343.343 168.516 343.561 166.66 343.683C164.815 343.768 162.946 343.852 161.065 343.937C159.173 343.925 157.279 343.973 155.374 343.937C153.469 343.828 151.551 343.804 149.66 343.634C147.766 343.416 145.836 343.331 143.98 342.992C143.033 342.847 142.099 342.713 141.165 342.568C140.231 342.422 139.321 342.204 138.398 342.034C134.709 341.332 131.166 340.265 127.805 339.114C124.456 337.89 121.288 336.509 118.376 335.031C117.721 334.679 117.09 334.328 116.459 333.976H116.447C115.804 333.613 115.185 333.261 114.566 332.886H114.554C113.814 332.461 113.086 332.025 112.394 331.576C111.727 331.153 111.071 330.716 110.453 330.281C109.846 329.869 109.264 329.457 108.693 329.044C107.043 327.833 105.551 326.633 104.228 325.507C102.469 323.943 100.964 322.526 99.7988 321.29C98.622 320.066 97.7604 319.036 97.1658 318.333C96.5831 317.618 96.3047 317.218 96.3047 317.218C96.2679 317.169 96.1953 317.145 96.1342 317.17C96.0611 317.193 96.0372 317.279 96.0611 317.352C96.0611 317.352 96.7292 319.242 98.5977 322.223C99.5562 323.701 100.781 325.445 102.371 327.324C102.711 327.735 103.075 328.147 103.464 328.571C78.103 325.699 60.7138 315.085 50.3636 306.325C42.7553 299.903 32.769 287.579 27.502 272.252C21.1799 253.834 22.5635 235.004 31.6037 216.21C37.7557 218.306 66.3444 227.382 96.8621 227.382C100.005 227.382 103.087 227.285 106.085 227.08C106.157 228.582 106.326 230.096 106.63 231.611C106.849 232.641 107.103 233.683 107.456 234.701L107.54 234.955L107.602 235.125L107.723 235.44L107.977 236.094C108.208 236.591 108.414 237.136 108.645 237.585C109.555 239.451 110.672 241.208 111.958 242.771C114.542 245.91 117.855 248.224 121.205 249.653C124.566 251.12 127.975 251.701 131.021 251.798C134.091 251.871 136.833 251.459 139.175 250.914C141.517 250.344 143.483 249.653 145.036 248.95C146.602 248.284 147.766 247.642 148.555 247.181C149.343 246.708 149.744 246.455 149.744 246.455C149.744 246.455 149.258 246.467 148.361 246.516C147.463 246.588 146.14 246.661 144.513 246.757C142.864 246.843 140.897 246.927 138.701 246.915C136.493 246.903 134.042 246.794 131.481 246.394C128.921 246.006 126.239 245.364 123.704 244.153C121.167 242.941 118.813 241.136 117.017 238.736C115.221 236.385 113.899 233.369 113.377 230.339C113.159 229.079 113.05 227.77 113.038 226.437C112.989 224.438 113.171 222.39 113.523 220.391C113.814 218.719 114.226 217.083 114.785 215.556C114.918 215.156 115.052 214.842 115.185 214.502C115.283 214.212 115.537 213.714 115.719 213.314C115.998 212.769 116.399 212.055 116.836 211.449C118.571 208.941 121.144 206.698 123.789 204.554C126.435 202.361 129.213 200.264 131.762 197.878C133.06 196.678 134.297 195.37 135.402 193.964C136.446 192.619 137.367 191.176 138.071 189.626C138.253 189.251 138.435 188.754 138.605 188.342C138.775 187.881 138.824 187.651 138.945 187.3L139.054 186.924L139.127 186.658L139.261 186.124C139.346 185.761 139.443 185.41 139.515 185.071C139.807 183.676 140 182.369 140.122 181.132C140.244 179.969 140.317 178.891 140.352 177.885C140.462 177.836 140.559 177.776 140.655 177.715C142.61 176.503 144.964 175.995 147.524 175.995C155.581 175.995 165.689 181.011 171.695 184.706C170.688 195.454 170.676 208.82 173.115 224.22C173.479 226.523 175.021 228.474 177.191 229.346C178.722 229.964 215.124 244.589 253.044 244.589C261.308 244.589 269.123 243.875 276.281 242.469C278.393 242.057 280.176 240.664 281.063 238.701C290.624 217.835 294.022 202.35 295.453 190.681C296.873 191.699 298.79 193.092 301.084 194.74C302.395 220.985 293.33 240.288 289.01 248.903C285.794 255.35 287.165 256.549 290.709 256.997C296.946 256.851 302.54 255.664 313.036 245.995C313.668 245.401 314.31 244.856 314.941 244.335C319.662 241.124 332.706 233.962 346.503 241.572V241.572ZM379.545 272.482C379.12 273.742 377.944 274.518 376.681 274.518C376.353 274.518 376.014 274.469 375.685 274.348C374.108 273.803 373.27 272.082 373.817 270.495C377.457 260.026 379.532 245.68 368.685 236.846C358.965 228.909 296.861 184.221 296.242 183.773C296.205 183.749 296.17 183.725 296.145 183.689C296.093 182.481 296.592 177.684 296.667 176.965C297.129 176.686 362.653 224.111 372.519 232.144C383.1 240.772 385.599 255.095 379.545 272.482Z" fill="#110C6C"/>
</svg>
