<svg width="555" height="753" viewBox="0 0 555 753" fill="none" xmlns="http://www.w3.org/2000/svg">
<path d="M317.587 328.66C317.74 329.679 317.038 330.629 316.018 330.782C312.687 331.281 309.666 331.489 306.943 331.489C293.943 331.489 287.781 326.755 287.475 326.512C286.667 325.873 286.53 324.698 287.169 323.891C287.806 323.086 288.972 322.947 289.783 323.579C289.894 323.665 298.008 329.712 315.466 327.091C316.486 326.943 317.435 327.642 317.587 328.66ZM370.655 290.487C370.607 290.537 370.543 290.561 370.481 290.549C370.481 290.549 370.381 290.549 370.182 290.537C369.997 290.537 369.71 290.512 369.349 290.449C368.641 290.35 367.632 290.114 366.475 289.691C365.891 289.491 365.281 289.205 364.634 288.894C364 288.583 363.365 288.185 362.694 287.775C362.607 287.712 362.507 287.65 362.42 287.588C359.707 316.34 327.577 322.225 307.649 320.857C287.447 319.451 269.409 307.469 263.961 291.295C261.05 282.661 262.418 275.619 264.309 270.929C264.259 270.954 264.222 270.966 264.172 270.979C263.376 271.202 262.543 271.489 261.684 271.675C260.826 271.874 259.993 272.098 259.172 272.223C258.363 272.347 257.629 272.509 256.97 272.559C255.688 272.671 254.83 272.758 254.83 272.758C254.556 272.783 254.32 272.583 254.295 272.31C254.283 272.098 254.407 271.899 254.594 271.825L254.644 271.8C254.644 271.8 255.415 271.489 256.559 271.016C257.131 270.804 257.766 270.431 258.462 270.095C259.147 269.784 259.856 269.324 260.552 268.926C261.261 268.528 261.933 268.042 262.568 267.644C263.177 267.196 263.762 266.798 264.234 266.425C264.707 266.052 265.093 265.741 265.329 265.529C265.59 265.305 265.74 265.181 265.74 265.181L265.765 265.156C266.399 264.608 267.22 264.447 267.966 264.621C268.004 264.584 268.029 264.546 268.029 264.546C306.801 278.17 350.665 274.947 353.936 274.674C353.86 274.164 353.799 273.716 353.75 273.355C353.675 272.608 353.625 272.185 353.625 272.185C353.476 270.829 354.471 269.61 355.827 269.461C357.046 269.336 358.141 270.108 358.478 271.24L358.553 271.538C358.553 271.538 358.652 271.862 358.826 272.447C358.902 272.745 358.988 273.094 359.087 273.504C359.163 273.915 359.362 274.338 359.498 274.823C359.647 275.321 359.797 275.856 360.045 276.378C360.269 276.901 360.431 277.51 360.742 278.058C361.053 278.618 361.264 279.252 361.638 279.812C361.986 280.384 362.297 280.994 362.707 281.554C362.894 281.84 363.081 282.139 363.28 282.425C363.504 282.686 363.727 282.96 363.928 283.233C364.313 283.818 364.811 284.291 365.221 284.826C366.117 285.821 366.988 286.779 367.795 287.551C368.182 287.974 368.579 288.285 368.915 288.633C369.263 288.944 369.562 289.23 369.81 289.454C370.32 289.914 370.619 290.188 370.619 290.188H370.631C370.718 290.263 370.731 290.4 370.655 290.487ZM330.414 304.832C330.179 302.07 327.628 299.955 323.759 299.009C312.563 296.247 302.985 302.779 300.609 303.961C300.236 304.098 299.875 304.21 299.788 303.998C299.738 303.911 299.762 303.762 299.85 303.513C300.149 302.742 300.696 302.12 301.245 301.522C301.903 300.813 302.649 300.204 303.458 299.694C303.57 299.619 303.706 299.557 303.818 299.494C301.716 298.039 297.362 295.7 291.852 296.409C281.328 297.753 284.052 307.171 288.692 310.505C293.319 313.852 300.97 316.241 309.366 316.029C318.62 315.805 324.218 314.312 327.304 311.986C329.805 310.082 330.638 307.631 330.414 304.832ZM239.549 510.918C238.176 510.918 237.061 512.033 237.061 513.406C237.061 514.78 238.176 515.895 239.549 515.895C240.923 515.895 242.037 514.78 242.037 513.406C242.037 512.033 240.923 510.918 239.549 510.918ZM333.234 516.992C331.861 516.992 330.746 518.107 330.746 519.48C330.746 520.854 331.861 521.969 333.234 521.969C334.608 521.969 335.722 520.854 335.722 519.48C335.722 518.107 334.609 516.992 333.234 516.992ZM298.87 514.005C297.497 514.005 296.382 515.12 296.382 516.493C296.382 517.867 297.497 518.981 298.87 518.981C300.243 518.981 301.358 517.867 301.358 516.493C301.358 515.12 300.245 514.005 298.87 514.005ZM143.398 157.437C124.975 148.89 96.1397 142.532 64.8667 156.691C31.6281 171.757 19.0268 195.546 14.4242 208.659C8.93832 209.144 -6.9719 197.959 3.47734 179.956C8.46561 171.322 14.2003 163.77 20.8679 157.126C29.7373 148.268 40.2487 140.977 52.85 134.794C66.9565 127.876 85.3422 124.094 103.243 124.343C113.369 124.48 123.333 125.911 132.289 128.784C152.143 135.155 147.789 154.165 143.398 157.437ZM14.9591 190.718C14.5734 190.246 13.8893 189.325 13.6654 188.914C12.5085 186.799 9.87129 186.028 7.75656 187.185C5.64183 188.342 4.87058 190.98 6.02746 193.095C6.6992 194.326 7.91828 195.869 8.15463 196.168C8.80149 196.976 9.6847 197.486 10.6177 197.698C11.8616 197.972 13.2051 197.698 14.2749 196.84C16.1533 195.347 16.4518 192.597 14.9591 190.718ZM149.779 189.213C149.779 205.088 144.356 219.707 135.275 231.327C127.686 228.702 117.61 228.155 106.141 232.733C91.3007 238.655 85.6283 250.413 83.4887 257.616C82.7796 257.641 82.0581 257.654 81.3366 257.654C52.5515 257.654 27.8962 239.875 17.8077 214.681C20.644 204.466 31.2922 177.369 66.9192 161.232C86.0637 152.56 105.979 150.943 126.107 156.43C133.384 158.408 139.728 161.083 144.89 163.758C148.05 171.621 149.779 180.205 149.779 189.213ZM75.0422 240.833C61.5204 238.991 51.2702 231.775 44.4035 224.995C37.5369 218.214 34.0289 211.856 33.9543 211.732C32.8099 209.617 30.1851 208.821 28.0579 209.953C25.9432 211.098 25.1471 213.735 26.2791 215.85C26.9259 217.045 42.3261 245.175 73.8605 249.467C74.0595 249.492 74.2585 249.504 74.4576 249.504C76.5972 249.504 78.4755 247.924 78.7616 245.735C79.0851 243.358 77.4182 241.156 75.0422 240.833ZM395.822 444.488C395.822 445.408 395.324 446.242 394.528 446.678L373.07 458.335C372.696 458.534 372.286 458.634 371.875 458.634C371.465 458.634 371.067 458.534 370.694 458.335C369.972 457.95 352.98 448.769 349.198 446.242C348.551 445.819 348.153 445.122 348.091 444.363C347.618 438.105 348.066 407.35 348.078 406.042C348.078 406.017 348.091 406.006 348.091 405.993C348.091 405.93 348.103 405.881 348.103 405.818C348.117 405.756 348.117 405.706 348.129 405.644V405.594C348.142 405.582 348.142 405.557 348.154 405.532C348.168 405.469 348.192 405.407 348.204 405.346C348.218 405.296 348.23 405.246 348.241 405.196C348.254 405.184 348.254 405.171 348.266 405.159C348.266 405.134 348.292 405.109 348.292 405.084C348.317 405.022 348.355 404.972 348.38 404.91C348.392 404.884 348.404 404.873 348.416 404.847C348.429 404.822 348.429 404.811 348.442 404.785C348.454 404.772 348.467 404.772 348.467 404.76C348.493 404.722 348.504 404.696 348.53 404.672C348.566 404.623 348.592 404.573 348.628 404.536C348.654 404.5 348.678 404.461 348.715 404.424C348.728 404.411 348.741 404.399 348.753 404.374C348.778 404.349 348.815 404.324 348.84 404.299C348.865 404.262 348.902 404.237 348.938 404.2C348.975 404.174 349.014 404.138 349.038 404.113C349.064 404.1 349.087 404.075 349.113 404.063C349.151 404.038 349.176 404.027 349.199 404.001C349.237 403.976 349.275 403.951 349.312 403.926C349.349 403.912 349.387 403.889 349.437 403.863C349.474 403.85 349.499 403.826 349.536 403.813C349.574 403.8 349.599 403.788 349.636 403.777C349.673 403.763 349.698 403.739 349.735 403.739C349.785 403.714 349.835 403.702 349.885 403.69C349.91 403.677 349.934 403.665 349.971 403.652C349.997 403.652 350.02 403.652 350.046 403.64C350.046 403.64 350.046 403.64 350.059 403.64C355.221 402.358 362.1 401.761 369.178 401.687C370.634 401.624 372.064 401.601 373.456 401.601C378.731 401.601 383.756 401.974 388.944 402.783C391.096 403.056 392.801 403.355 393.969 403.666C394.007 403.678 394.031 403.691 394.069 403.702C394.119 403.716 394.181 403.728 394.231 403.752C394.244 403.752 394.257 403.764 394.268 403.764C394.28 403.778 394.28 403.778 394.293 403.778C394.293 403.778 394.293 403.778 394.306 403.778C394.331 403.79 394.342 403.803 394.369 403.814C394.418 403.84 394.468 403.864 394.518 403.89C394.555 403.915 394.604 403.927 394.642 403.952C394.668 403.978 394.68 403.989 394.704 404.002C394.718 404.002 394.718 404.002 394.731 404.014C394.755 404.028 394.768 404.052 394.793 404.064C394.83 404.09 394.869 404.114 394.892 404.14C394.93 404.165 394.967 404.202 395.004 404.24C395.03 404.252 395.054 404.276 395.08 404.302C395.08 404.302 395.093 404.314 395.105 404.314C395.117 404.34 395.131 404.364 395.155 404.376C395.167 404.403 395.205 404.426 395.217 404.452C395.254 404.488 395.279 404.527 395.316 404.577C395.329 404.603 395.354 404.626 395.379 404.664C395.392 404.676 395.405 404.676 395.405 404.689C395.417 404.701 395.417 404.726 395.43 404.738C395.456 404.765 395.467 404.788 395.479 404.814C395.506 404.839 395.506 404.877 395.529 404.9C395.529 404.914 395.542 404.938 395.555 404.964C395.58 405 395.605 405.038 395.618 405.076C395.618 405.088 395.63 405.1 395.63 405.112C395.642 405.125 395.642 405.125 395.642 405.138C395.656 405.163 395.669 405.188 395.68 405.225C395.692 405.275 395.706 405.323 395.717 405.373C395.717 405.387 395.73 405.399 395.73 405.399C395.742 405.449 395.756 405.486 395.767 405.536C395.767 405.548 395.779 405.561 395.779 405.572V405.622C395.779 405.634 395.779 405.648 395.792 405.659C395.792 405.709 395.805 405.771 395.805 405.833C395.818 405.883 395.83 405.933 395.83 405.995V406.058C395.895 408.781 395.822 443.032 395.822 444.488ZM390.883 421.136C369.338 419.505 357.432 420.427 352.905 420.961C352.83 429.185 352.818 438.566 352.992 442.76C357.22 445.348 368.231 451.343 371.875 453.321L390.846 443.007C390.858 436.799 390.869 428.376 390.883 421.136ZM390.883 417.39C390.883 413.658 390.883 410.511 390.869 408.482C389.577 408.407 387.996 408.308 386.204 408.197C379.151 407.737 368.641 407.065 359.87 407.499C357.607 407.686 355.318 407.923 353.028 408.247C353.003 410.238 352.966 413.459 352.929 417.205C358.005 416.619 369.91 415.823 390.883 417.39ZM369.233 120.578C370.144 121.009 385.375 118.66 395.224 122.296C397.39 123.096 399.516 123.748 401.519 124.936C404.04 126.433 406.561 127.878 408.854 129.719C409.389 130.148 409.906 130.562 410.401 130.961C412.533 132.674 414.534 134.537 416.653 136.264C416.99 136.539 417.17 136.686 417.17 136.686C417.252 136.752 417.337 136.772 417.418 136.75C417.555 136.712 417.636 136.572 417.598 136.435C417.114 134.679 416.54 132.952 415.934 131.235C415.569 130.151 414.962 129.032 414.298 127.793C413.598 126.581 412.984 125.128 411.941 123.873C410.952 122.575 409.98 121.101 408.693 119.818C407.732 118.86 406.789 117.883 405.784 116.969C404.7 115.982 403.527 115.062 402.322 114.227C397.868 111.139 392.422 109.192 387.03 108.68C383.802 108.375 371.335 108.373 367.572 115.864C367.263 116.48 367.133 117.193 367.243 117.926C367.416 119.095 368.173 120.078 369.233 120.578ZM236.127 123.145C236.127 123.145 236.328 123.035 236.701 122.83C239.051 121.536 241.316 120.088 243.676 118.81C244.224 118.514 244.795 118.204 245.387 117.886C247.926 116.513 250.602 115.573 253.29 114.583C255.424 113.796 257.571 113.56 259.785 113.184C269.851 111.48 283.859 116.664 284.808 116.415C285.912 116.125 286.823 115.304 287.217 114.191C287.464 113.493 287.48 112.77 287.306 112.108C285.195 104.048 273.351 101.692 270.227 101.381C265.006 100.862 259.451 101.742 254.619 103.926C253.313 104.519 252.018 105.199 250.794 105.962C249.662 106.667 248.574 107.449 247.476 108.205C246.002 109.22 244.791 110.482 243.598 111.568C242.362 112.603 241.497 113.912 240.594 114.967C239.721 116.056 238.926 117.038 238.368 118.033C237.457 119.601 236.574 121.186 235.771 122.818C235.708 122.944 235.757 123.097 235.88 123.16C235.952 123.197 236.035 123.193 236.127 123.145ZM373.45 201.886C373.165 208.024 374.697 213.699 377.462 218.019C383.694 217.781 394.268 218.325 402.363 221.134C406.552 217.103 409.546 210.956 410.225 203.837C411.487 190.598 404.297 179.082 394.166 178.115C387.298 177.461 380.851 181.831 377.012 188.835L386.493 197.601L373.45 201.886ZM307.153 428.986C307.153 433.365 303.595 436.923 299.228 436.923C294.85 436.923 291.293 433.365 291.293 428.986C291.293 424.619 294.85 421.06 299.228 421.06C303.593 421.06 307.153 424.619 307.153 428.986ZM302.178 428.986C302.178 427.356 300.858 426.037 299.228 426.037C297.599 426.037 296.269 427.357 296.269 428.986C296.269 430.614 297.599 431.947 299.228 431.947C300.858 431.947 302.178 430.616 302.178 428.986ZM317.203 391.674C317.203 396.054 313.646 399.611 309.267 399.611C304.901 399.611 301.343 396.054 301.343 391.674C301.343 387.307 304.901 383.748 309.267 383.748C313.644 383.748 317.203 387.307 317.203 391.674ZM312.228 391.674C312.228 390.044 310.898 388.725 309.267 388.725C307.636 388.725 306.319 390.045 306.319 391.674C306.319 393.302 307.637 394.635 309.267 394.635C310.897 394.635 312.228 393.302 312.228 391.674ZM303.234 471.25C303.234 475.617 299.676 479.175 295.31 479.175C290.93 479.175 287.373 475.617 287.373 471.25C287.373 466.87 290.93 463.312 295.31 463.312C299.676 463.312 303.234 466.87 303.234 471.25ZM298.258 471.25C298.258 469.62 296.938 468.288 295.31 468.288C293.681 468.288 292.349 469.62 292.349 471.25C292.349 472.881 293.68 474.198 295.31 474.198C296.939 474.198 298.258 472.879 298.258 471.25ZM497.139 262.889L496.917 262.901L496.859 262.908L496.744 262.919L496.512 262.945C496.201 262.984 495.887 263.022 495.57 263.061C493.833 263.363 492.351 263.84 490.901 264.562C489.467 265.287 488.093 266.176 486.948 267.273L486.092 268.093L485.332 268.978C484.806 269.55 484.394 270.191 483.963 270.804C483.125 272.044 482.495 273.355 481.977 274.625C481.687 275.251 481.5 275.895 481.291 276.513C481.08 277.13 480.907 277.74 480.786 278.343C480.654 278.939 480.525 279.518 480.399 280.079C480.32 280.643 480.24 281.188 480.166 281.712C480 282.751 479.977 283.714 479.921 284.557C479.863 285.401 479.878 286.137 479.892 286.741C479.935 287.945 479.96 288.633 479.96 288.633C479.964 288.734 480.03 288.825 480.131 288.857C480.26 288.898 480.397 288.827 480.438 288.698L480.442 288.684C480.442 288.684 480.647 288.036 481.005 286.9C481.169 286.334 481.366 285.648 481.662 284.884C481.825 284.443 481.988 283.957 482.167 283.457C482.301 283.292 482.448 283.113 482.604 282.92C482.94 282.588 483.318 282.214 483.731 281.805C484.104 281.367 484.654 281.091 485.133 280.721C485.364 280.517 485.638 280.387 485.918 280.274C486.194 280.157 486.456 280.006 486.734 279.909C487.014 279.852 487.297 279.793 487.585 279.735C487.856 279.644 488.159 279.742 488.427 279.71C488.695 279.673 488.978 279.749 489.251 279.814C489.521 279.864 489.791 279.904 490.065 280.038C490.602 280.204 491.141 280.511 491.67 280.78C492.188 281.133 492.717 281.431 493.185 281.857C493.69 282.198 494.097 282.692 494.536 283.064C494.92 283.512 495.332 283.89 495.645 284.303C495.971 284.704 496.295 285.076 496.483 285.381C496.695 285.713 496.912 285.891 497.095 286.249C497.454 286.864 497.684 287.202 497.684 287.202C498.316 288.137 499.53 288.562 500.635 288.152C501.932 287.67 502.593 286.227 502.111 284.93C502.111 284.93 501.97 284.547 501.677 283.897C501.567 283.604 501.272 283.082 500.967 282.572C500.655 282.018 500.274 281.52 499.861 280.952C499.472 280.366 498.906 279.841 498.375 279.237C497.76 278.696 497.167 278.088 496.4 277.581C495.681 277.045 494.832 276.578 493.951 276.155C493.011 275.798 492.054 275.444 490.976 275.358C490.712 275.329 490.459 275.277 490.192 275.273C489.919 275.277 489.648 275.297 489.381 275.313C488.843 275.34 488.32 275.38 487.807 275.553C487.302 275.714 486.78 275.8 486.343 276.066C486.093 276.201 485.862 276.338 485.624 276.474C486.253 275.507 486.995 274.598 487.771 273.748C488.18 273.334 488.565 272.892 489.023 272.545L489.676 271.99L490.376 271.518C491.299 270.884 492.274 270.396 493.266 270.053C494.243 269.686 495.327 269.569 496.085 269.477C496.397 269.466 496.708 269.453 497.015 269.442L497.248 269.432L497.306 269.43C497.27 269.431 497.248 269.433 497.304 269.43L497.315 269.431L497.638 269.454C498.076 269.462 498.475 269.524 498.859 269.585C499.612 269.748 500.298 269.945 500.9 270.254C501.497 270.564 502.06 270.893 502.526 271.272C502.99 271.652 503.408 272.011 503.719 272.345C504.042 272.666 504.28 272.944 504.436 273.115C504.521 273.214 504.56 273.248 504.591 273.268C504.621 273.288 504.659 273.357 504.655 273.346C504.992 273.933 505.583 274.381 506.302 274.506C507.587 274.731 508.811 273.87 509.034 272.586L509.239 271.413C509.234 271.403 509.243 271.394 509.205 271.265C509.168 271.153 509.114 270.986 509.043 270.769C508.915 270.375 508.697 269.844 508.359 269.188C507.674 267.91 506.424 266.09 504.12 264.636C502.976 263.917 501.568 263.373 500.054 263.084C499.675 263.031 499.29 262.977 498.901 262.921C498.511 262.887 498.125 262.898 497.73 262.89L497.139 262.889ZM551.217 281.815C549.911 285.572 546.365 288.086 542.397 288.086C541.352 288.086 540.332 287.911 539.337 287.575C534.486 285.883 531.898 280.558 533.59 275.694C538.068 262.78 536.961 253.461 530.268 247.999C527.619 245.834 520.989 240.882 512.741 234.799C512.057 236.752 511.348 238.743 510.614 240.758C511.883 241.268 513.176 241.878 514.47 242.599C534.908 253.909 531.201 277.286 526.375 288.061C524.098 293.137 511.721 313.056 492.626 317.709C489.939 318.368 487.252 318.704 484.553 318.704C476.306 318.704 468.071 315.619 459.959 309.497C459.934 309.535 459.897 309.572 459.873 309.609C459.512 310.095 459.151 310.605 458.741 311.077C458.33 311.55 457.895 312.023 457.46 312.508C456.564 313.479 455.681 314.536 454.673 315.532C453.642 316.502 452.572 317.497 451.477 318.53C450.395 319.6 449.151 320.496 447.92 321.504C446.688 322.486 445.432 323.494 444.076 324.415C442.732 325.348 441.364 326.306 439.958 327.227C438.515 328.11 437.06 328.993 435.591 329.877C434.135 330.81 432.58 331.556 431.063 332.402C429.533 333.211 428.015 334.094 426.423 334.791C424.843 335.525 423.263 336.259 421.696 336.993C420.116 337.69 418.5 338.312 416.919 338.971C413.784 340.352 410.55 341.323 407.49 342.43C405.3 343.139 403.173 343.761 401.096 344.371C447.856 350.393 471.641 378.909 480.683 390.193C491.581 390.655 500.014 393.69 502.278 396.625C507.254 403.096 509.655 415.835 509.754 416.371C509.767 416.407 509.754 416.433 509.767 416.457C511.335 417.354 512.814 418.399 514.208 419.567C514.705 419.978 515.066 420.289 515.551 420.737L516.87 422.106C517.803 422.989 518.438 424.009 519.21 424.967C519.917 425.938 520.516 426.947 521.138 427.942C521.71 428.937 522.233 429.944 522.767 430.927C523.24 431.936 523.713 432.918 524.173 433.875C524.596 434.846 525.02 435.791 525.417 436.724C526.188 438.591 526.897 440.357 527.482 441.962C528.104 443.617 528.776 446.043 527.892 448.309C527.432 449.403 526.724 450.337 525.964 450.883C525.217 451.492 524.509 451.816 523.875 452.091C523.302 452.302 522.805 452.438 522.356 452.537C522.331 456.707 522.418 460.998 522.231 465.304C522.057 470.342 521.597 475.419 520.639 480.431C520.192 482.957 519.57 485.445 518.873 487.91C518.537 489.14 518.101 490.348 517.716 491.579L516.346 495.176C515.824 496.344 515.339 497.538 514.779 498.697C514.194 499.841 513.647 501.01 513.012 502.131C511.768 504.383 510.4 506.56 508.92 508.662C508.148 509.695 507.415 510.753 506.618 511.747L504.155 514.709L501.532 517.521C500.635 518.441 499.691 519.3 498.769 520.183C497.862 521.091 496.853 521.888 495.895 522.721L494.44 523.965L492.921 525.123C491.902 525.881 490.92 526.704 489.861 527.399L486.701 529.552C485.644 530.261 484.551 530.883 483.467 531.555C482.385 532.225 481.303 532.874 480.171 533.457L476.837 535.261L473.428 536.928C471.177 538.073 468.827 538.994 466.524 540.001C464.523 540.849 462.469 541.583 460.441 542.365C459.944 543.361 459.383 544.331 458.799 545.301C458.414 545.91 458.028 546.519 457.582 547.105C457.157 547.701 456.723 548.286 456.238 548.846C455.913 549.244 455.566 549.63 455.193 550.003C455.467 550.278 455.765 550.6 456.063 550.973C456.933 552.043 457.854 553.512 458.352 555.39C458.849 557.27 458.911 559.46 458.439 561.611C458.339 562.158 458.19 562.693 458.003 563.23C457.916 563.491 457.828 563.765 457.742 564.026L457.68 564.237L457.643 564.337L457.543 564.561L457.058 565.643C456.871 565.942 456.683 566.253 456.498 566.564L456.199 567.012L455.889 567.398L455.254 568.144C453.438 570.048 451.135 571.404 448.723 572.387C446.285 573.332 443.698 573.979 441.061 574.378C439.729 574.564 438.386 574.689 437.043 574.739L436.024 574.764L435.763 574.777L435.402 574.752L434.929 574.739L433.013 574.652H432.976L448.264 651.429C451.387 649.6 454.733 648.02 458.278 646.838C459.696 646.365 461.139 645.892 462.62 645.557C464.075 645.147 465.568 644.886 467.073 644.611C468.566 644.3 470.083 644.214 471.588 644.002C472.346 643.939 473.106 643.915 473.865 643.865L475.009 643.803L475.582 643.777L475.718 643.765H476.215L480.531 643.802C482.061 643.914 483.591 644.014 485.122 644.126C486.602 644.325 488.095 644.524 489.587 644.723C491.055 645.02 492.535 645.281 493.991 645.63C499.813 647.06 505.41 649.4 510.238 652.634C515.051 655.906 519.044 659.987 522.092 664.304C525.116 668.659 527.229 673.189 528.685 677.494C530.142 681.798 530.975 685.866 531.448 689.498C531.908 693.119 532.032 696.316 531.958 698.942C531.908 700.957 531.782 702.638 531.633 703.956C533.014 704.503 534.171 705.425 535.054 706.669C537.257 709.766 537.467 714.593 535.69 721.002C532.891 731.141 528.623 734.389 527.702 734.998C514.33 744.665 484.289 748.958 467.569 750.65C458.303 751.595 447.33 752.093 435.836 752.093C394.861 752.093 346.495 746.107 333.682 729.311C333.371 728.901 333.197 728.404 333.173 727.893C332.699 714.158 335.324 703.955 335.436 703.532C335.71 702.45 336.68 701.692 337.8 701.679H337.836C338.072 701.679 338.284 701.728 338.507 701.791C338.383 698.357 338.657 694.836 338.905 691.626C339.067 689.574 339.204 687.632 339.216 686.077C335.062 682.52 333.022 678.562 332.861 675.578C332.735 673.363 332.563 669.033 332.686 664.965C332.711 664.094 332.698 663.186 332.698 662.29C332.662 658.882 332.624 655.945 334.34 654.253C334.85 653.744 335.472 653.433 336.143 653.27L321.789 588.687C321.789 588.687 321.03 583.674 320.769 583.499H320.744C320.744 583.499 317.67 582.74 313.069 581.607C311.924 581.308 310.666 581.035 309.362 580.674C308.055 580.338 306.662 579.977 305.232 579.604C303.813 579.218 302.333 578.808 300.842 578.397C299.349 577.999 297.844 577.526 296.337 577.091C294.833 576.605 293.314 576.182 291.859 575.672C290.391 575.212 288.973 574.652 287.581 574.192C286.2 573.694 284.882 573.184 283.625 572.711C282.381 572.215 281.198 571.753 280.128 571.282C279.046 570.834 278.101 570.361 277.23 569.951C276.373 569.54 275.688 569.129 275.066 568.818C273.871 568.061 273.187 567.638 273.187 567.638C273.125 567.6 273.05 567.6 272.988 567.638C272.914 567.7 272.901 567.799 272.951 567.873C272.951 567.873 273.075 568.034 273.299 568.346C273.523 568.657 273.847 569.105 274.307 569.652C274.804 570.15 275.426 570.834 276.198 571.493C276.983 572.103 277.84 572.887 278.872 573.534C279.382 573.871 279.917 574.255 280.476 574.604C281.049 574.927 281.646 575.275 282.256 575.624C283.474 576.321 284.806 576.954 286.187 577.602C288.959 578.871 291.982 580.014 295.031 581.109C298.09 582.118 301.175 583.112 304.098 583.859C304.174 583.885 304.249 583.909 304.335 583.922L312.906 654.54C317.297 655.361 317.534 662.652 317.657 666.284C317.782 670.353 317.608 674.682 317.482 676.896C317.334 679.646 316.96 681.811 314.51 684.137C314.523 685.693 314.658 687.609 314.821 689.649C315.069 692.859 315.344 696.38 315.218 699.814C315.454 699.752 315.703 699.702 315.952 699.714C317.059 699.74 318.017 700.486 318.303 701.555C318.403 701.979 321.027 712.168 320.556 725.904C320.531 726.426 320.357 726.923 320.046 727.333C307.233 744.129 258.868 750.115 217.892 750.115C206.398 750.115 195.426 749.617 186.159 748.672C169.44 746.979 139.398 742.686 126.026 733.008C125.105 732.41 120.839 729.149 118.04 719.023C116.261 712.604 116.472 707.789 118.674 704.678C119.557 703.434 120.714 702.527 122.095 701.979C121.946 700.66 121.821 698.98 121.771 696.965C121.697 694.327 121.821 691.142 122.282 687.509C122.754 683.889 123.588 679.82 125.043 675.503C126.499 671.212 128.626 666.669 131.636 662.327C134.684 657.999 138.677 653.917 143.491 650.657C148.318 647.423 153.915 645.085 159.737 643.653C161.192 643.292 162.673 643.043 164.141 642.744C165.633 642.547 167.126 642.348 168.606 642.136C170.137 642.037 171.667 641.925 173.197 641.825L177.513 641.788H178.011L178.148 641.8L178.72 641.826L179.864 641.888C180.623 641.938 181.382 641.951 182.141 642.024C183.646 642.223 185.164 642.323 186.656 642.621C188.161 642.895 189.654 643.156 191.11 643.567C192.59 643.915 194.033 644.376 195.451 644.861C200.813 646.641 205.726 649.341 210.08 652.463C201.733 627.231 179.752 553.279 187.739 496.135C181.245 488.11 182.539 480.186 183.708 476.527C182.763 475.719 181.904 474.81 181.158 473.803V473.79C179.267 473.927 177.414 474.015 175.61 474.015C161.317 474.015 149.524 469.796 140.505 461.448C119.159 441.691 119.383 404.055 119.445 391.69C119.769 382.917 118.201 378.539 116.932 376.449C112.392 376.225 109.344 375.802 108.299 375.615C108.287 375.615 108.287 375.615 108.275 375.615C108.076 375.653 107.876 375.69 107.677 375.715C107.441 375.765 107.205 375.79 106.981 375.802C106.844 375.814 106.707 375.827 106.57 375.839C106.309 375.852 106.048 375.864 105.799 375.864C105.637 375.877 105.501 375.864 105.364 375.852C93.5959 375.404 89.3042 365.413 88.6822 360.188C88.6698 360.138 88.6698 360.088 88.6698 360.039C88.6325 359.504 88.6449 358.993 88.6698 358.483C88.7071 357.998 88.7569 357.538 88.8564 357.078C88.8813 356.903 88.9186 356.729 88.9683 356.555C88.9932 356.443 89.0181 356.331 89.043 356.219C82.9724 354.913 77.8722 350.135 76.1058 343.778C74.924 339.523 75.2723 334.086 78.743 329.37C75.1853 322.826 73.9538 308.033 86.779 300.083L86.8909 300.008C88.2219 299.287 89.6028 298.665 91.0209 298.142C91.307 291.386 95.0637 282.192 103.423 277.987C98.3851 278.086 94.5412 276.904 93.4963 274.565L87.7119 261.029C89.043 255.306 93.4839 243.151 107.976 237.365C119.881 232.613 129.77 234.13 136.363 237.179L143.192 253.527C144.275 256.227 141.774 260.469 137.172 264.45L145.295 285.924L145.743 285.663C146.091 285.464 146.613 285.228 147.049 285.016C147.944 284.631 148.74 284.332 149.611 284.096C151.328 283.61 153.057 283.349 154.786 283.287C156.503 283.225 158.219 283.349 159.936 283.697C160.794 283.859 161.665 284.108 162.548 284.419C163.009 284.606 163.432 284.755 163.917 285.016C164.166 285.153 164.389 285.253 164.638 285.414L164.875 285.564L165.198 285.775C166.753 286.87 167.873 287.952 168.967 289.134C170.049 290.304 171.007 291.523 171.878 292.792C175.374 297.843 177.401 303.492 178.297 308.916C178.508 310.285 178.67 311.629 178.745 312.96C178.807 313.619 178.807 314.279 178.844 314.938V316.73C178.869 317.961 178.931 319.044 178.882 320.35C178.882 321.607 178.819 322.814 178.732 323.971C178.409 328.624 177.551 332.804 176.63 336.437C175.697 340.057 174.615 343.143 173.595 345.619C173.097 346.863 172.612 347.958 172.177 348.916C171.94 349.401 171.729 349.849 171.53 350.272C171.343 350.645 171.157 350.994 171.007 351.305C170.771 351.753 170.597 352.088 170.448 352.387L172.699 358.359C175.498 360.126 178.658 362.552 181.307 364.704C197.429 345.47 218.937 338.876 233.193 336.636C220.43 331.672 210.714 325.103 203.848 319.28C191.296 308.655 176.033 287.629 174.416 260.793C169.552 258.752 154.699 250.69 156.366 228.246C157.311 215.394 161.255 206.685 168.072 202.355C172.799 199.369 177.812 199.22 181.282 199.655C180.524 186.405 181.307 175.12 182.539 166.349C173.856 155.314 172.898 139.376 178.745 124.745C184.965 109.193 197.927 93.952 213.576 89.4482C196.309 74.9787 192.528 62.5372 192.428 48.9511C192.329 35.3774 198.362 23.0105 206.97 19.9997C208.413 25.0883 210.155 36.5718 221.139 45.6416C215.752 35.9995 212.021 27.2904 213.364 18.2703C214.72 9.25021 219.074 0.640676 227.471 0.018601C235.867 -0.603474 246.329 14.5379 260.746 21.3807C275.151 28.2235 296.771 22.264 310.455 19.303C324.139 16.3419 353.993 13.7043 373.735 16.0433C393.477 18.3698 436.393 31.4334 460.812 64.7145C486.774 74.817 503.89 92.5586 513.22 110.126C521.306 125.367 533.783 159.021 518.557 215.904C529.404 223.866 538.609 230.722 542.067 233.546C555.085 244.167 558.332 261.311 551.217 281.815ZM216.704 137.767C220.162 137.531 223.596 137.406 227.017 137.406C253.326 137.406 278.38 144.324 294.041 155.907C295.907 157.288 296.939 159.515 296.804 161.829C296.678 163.932 296.717 166.308 296.778 169.02C309.391 163.795 324.681 169.804 334.381 175.03C336.298 165.624 338.511 160.212 338.723 159.727C339.593 157.636 341.447 156.118 343.662 155.671C354.435 153.481 365.593 152.374 376.851 152.374C411.247 152.374 439.472 162.389 454.599 171.683C454.623 171.695 454.648 171.72 454.686 171.733C456.502 172.753 458.814 173.984 460.98 175.129C448.64 129.531 411.284 106.328 385.646 97.3324C363.926 89.7057 341.958 88.2625 327.404 87.7275C295.422 86.558 234.94 93.5999 216.704 137.767ZM376.851 166.059C367.833 166.059 358.876 166.831 350.193 168.361C349.135 171.757 347.593 177.642 346.511 185.605C346.511 185.617 346.511 185.617 346.511 185.617C346.374 186.625 346.25 187.658 346.137 188.74C345.092 198.233 344.794 210.239 346.647 224.174C356.698 227.794 386.168 237.449 415.65 237.449C421.92 237.449 427.865 237.001 433.389 236.142C444.572 210.662 445.803 194.637 446.513 182.781C432.008 174.146 405.972 166.059 376.851 166.059ZM195.955 209.978C205.297 212.889 230.064 219.782 255.54 219.782C259.397 219.769 263.154 219.608 266.761 219.284C266.798 219.147 266.836 219.01 266.885 218.873C267.035 218.376 267.271 217.816 267.495 217.269C267.719 216.659 267.905 216.335 268.104 215.863C268.677 214.718 269.212 213.797 269.871 212.864C270.692 211.67 271.588 210.6 272.508 209.605C265.032 207.676 256.386 207.29 250.988 207.489C248.226 203.172 246.696 197.499 246.982 191.365L260.019 187.073L250.54 178.314C254.384 171.31 260.827 166.943 267.694 167.59C275.17 168.311 281.03 174.768 283.094 183.415C283.33 178.65 283.22 174.445 283.131 170.7C283.082 168.722 283.032 166.806 283.032 164.952C271.961 157.935 252.319 151.092 227.017 151.092C217.799 151.092 208.394 152.013 199.027 153.817C196.888 161.643 192.546 182.096 195.955 209.978ZM174.397 222.17C174.982 220.926 176.487 220.404 177.731 220.989C178.614 221.399 179.846 222.432 180.915 224.024C181.724 222.071 182.607 220.105 183.59 218.127C183.279 217.505 183.067 216.845 182.968 216.136C182.458 212.665 182.072 209.293 181.774 206.021C179.423 205.561 175.143 205.213 171.362 207.639C166.324 210.861 163.376 217.953 162.567 228.702C161.435 244.043 169.459 251.022 174.322 253.822C174.534 246.63 175.753 239.103 178.253 231.278C178.029 227.296 175.604 225.48 175.566 225.467C174.322 224.883 173.812 223.415 174.397 222.17ZM175.902 366.791L199.898 430.217C202.212 424.581 206.006 415.362 210.236 405.209C206.989 400.297 192.845 379.73 175.902 366.791ZM143.286 297.927C139.628 302.456 136.108 307.146 132.836 311.836C132.04 313.006 131.269 314.126 130.485 315.332L129.316 317.149L129.03 317.609L128.819 317.958L128.284 318.878L127.736 319.799L127.599 320.035V320.06C127.587 320.11 127.562 320.098 127.55 320.185C127.45 320.409 127.376 320.881 127.326 321.329C127.301 321.802 127.288 322.374 127.338 322.822L127.363 323.171L127.438 323.681L127.5 324.116L127.575 324.527C127.997 326.692 128.943 328.72 130.249 330.15C130.883 330.872 131.617 331.432 132.401 331.855C132.774 332.066 133.247 332.24 133.595 332.352C133.695 332.402 134.031 332.477 134.317 332.552C134.329 332.552 134.354 332.564 134.367 332.564H134.379L134.454 332.576L134.628 332.601C134.727 332.626 134.852 332.651 134.964 332.664C136.767 332.925 138.807 332.564 140.748 331.917C141.731 331.594 142.689 331.183 143.634 330.723C144.107 330.499 144.53 330.262 144.978 330.038L145.699 329.615L146.072 329.416L146.358 329.23C149.841 327.164 152.404 324.601 154.32 322.113C156.248 319.588 157.492 317.037 158.325 314.773C159.159 312.508 159.569 310.555 159.83 309.199C160.079 307.843 160.154 307.071 160.154 307.071C160.166 306.972 160.253 306.897 160.353 306.91C160.415 306.91 160.465 306.947 160.502 306.997C160.502 306.997 160.925 307.681 161.373 309.087C161.597 309.784 161.833 310.679 161.982 311.749C162.157 312.819 162.256 314.076 162.194 315.482C162.094 317.895 161.522 320.819 160.067 323.818C160.166 323.88 160.266 323.942 160.365 324.017C160.689 324.203 161.074 324.365 161.447 324.539C161.846 324.676 162.244 324.85 162.642 324.962C163.04 325.062 163.413 325.174 163.736 325.236C164.383 325.385 164.831 325.447 164.831 325.447C165.018 325.46 165.155 325.634 165.13 325.821C165.117 325.958 165.018 326.07 164.893 326.107H164.881C164.881 326.107 164.433 326.244 163.736 326.381C163.388 326.468 162.978 326.53 162.53 326.592C162.082 326.654 161.597 326.679 161.099 326.716H160.738L167.866 345.565C168.09 344.993 168.314 344.371 168.538 343.712C169.334 341.348 170.28 338.449 171.026 335.065C171.76 331.681 172.407 327.824 172.556 323.606C172.606 322.549 172.618 321.479 172.593 320.434C172.606 319.426 172.494 318.169 172.432 317C172.419 316.39 172.394 315.793 172.369 315.171C172.32 314.611 172.307 314.051 172.233 313.479C172.133 312.347 171.946 311.202 171.747 310.057C170.914 305.479 169.123 300.813 166.224 296.782C165.503 295.774 164.707 294.804 163.861 293.921C163.04 293.05 162.057 292.179 161.273 291.644L161.161 291.557L160.925 291.42C160.888 291.383 160.776 291.345 160.714 291.295C160.577 291.208 160.315 291.134 160.116 291.047C159.644 290.885 159.134 290.736 158.562 290.636C157.454 290.425 156.248 290.337 155.054 290.387C153.872 290.437 152.69 290.624 151.583 290.947C151.048 291.084 150.463 291.32 150.016 291.519C149.792 291.631 149.63 291.681 149.344 291.83L148.498 292.328L148.473 292.341V292.353H148.461L148.423 292.378L148.349 292.44L148.174 292.552C148.063 292.639 147.938 292.701 147.839 292.789C147.652 292.963 147.378 293.149 147.242 293.286C147.08 293.448 146.943 293.535 146.657 293.858L146.333 294.207L146.321 294.219L146.284 294.257L146.259 294.294L146.234 294.331L146.06 294.543L143.286 297.927ZM109.997 273.454L110.893 275.818C111.142 275.781 111.403 275.756 111.664 275.744C113.642 275.607 115.782 275.719 117.984 276.08C130.647 278.145 136.208 286.543 138.571 292.316L140.537 289.939L140.723 289.728L140.81 289.616L141.034 289.367L141.221 289.18L133.036 267.57L132.103 265.094C130.361 260.503 127.811 256.434 122.462 256.434C120.857 256.434 118.991 256.795 116.839 257.629L114.812 258.5C106.465 262.506 107.796 267.657 109.997 273.454ZM96.1397 296.77C102.061 295.712 108.604 296.26 115.732 298.4C117.809 299.034 119.924 299.793 122.151 300.739C125.211 302.032 127.724 303.364 129.428 304.347C131.194 301.833 133.036 299.358 134.926 296.907C133.906 292.925 130.075 283.084 117.187 280.981C115.359 280.695 113.617 280.596 111.988 280.72C110.445 280.807 108.99 281.093 107.671 281.554C100.469 284.005 96.8986 291.159 96.1397 296.77ZM82.506 325.572C83.0782 325.124 83.6877 324.701 84.347 324.29C98.6774 315.93 114.364 319.015 120.335 320.695C120.434 319.787 120.534 318.866 120.932 317.796C121.006 317.547 121.168 317.224 121.293 316.937C121.38 316.788 121.429 316.664 121.529 316.49L121.666 316.253L122.201 315.332L122.736 314.399L123.071 313.827L123.358 313.379L124.514 311.55C125.149 310.53 125.858 309.485 126.555 308.44C125.012 307.569 122.823 306.424 120.223 305.317C118.158 304.446 116.217 303.749 114.302 303.177C107.024 300.987 100.506 300.651 94.8211 302.182C94.3982 302.281 93.9753 302.406 93.5648 302.555C93.5523 302.543 93.5523 302.543 93.5399 302.555C92.0844 303.015 90.6912 303.613 89.3477 304.347C79.8688 310.269 80.7271 320.72 82.506 325.572ZM92.694 349.82C93.3035 349.124 93.9877 348.452 94.7092 347.817C95.3436 347.233 96.0029 346.685 96.6995 346.163C97.11 345.852 97.5205 345.54 97.9559 345.242C98.5903 344.794 99.2621 344.359 99.9338 343.936C99.9836 343.898 100.033 343.873 100.083 343.848C100.481 343.6 100.879 343.363 101.29 343.127C101.688 342.89 102.098 342.654 102.509 342.443C104.014 341.621 105.569 340.85 107.124 340.141C107.398 340.016 107.671 339.904 107.945 339.78C108.231 339.656 108.53 339.531 108.816 339.407C109.239 339.233 109.662 339.046 110.085 338.884C110.184 338.835 110.284 338.797 110.396 338.76C110.706 338.635 111.017 338.511 111.341 338.387C112.361 337.989 113.369 337.615 114.351 337.279C114.6 337.192 114.861 337.105 115.11 337.018C116.466 336.558 117.76 336.147 118.954 335.799C119.29 335.699 119.613 335.612 119.924 335.513C120.061 335.488 120.21 335.45 120.347 335.401C120.633 335.326 120.919 335.251 121.193 335.177C122.711 334.779 123.967 334.492 124.838 334.331C122.748 331.942 121.442 329.055 120.77 326.032C119.389 325.572 113.443 323.743 105.917 323.743C100.071 323.743 93.2662 324.85 86.9096 328.545C81.6725 331.817 79.4085 337.018 80.9013 342.443C82.2945 347.432 86.4991 351.065 91.3256 351.525C91.562 351.201 91.7983 350.878 92.0596 350.567C92.2586 350.306 92.4701 350.069 92.694 349.82ZM121.778 364.788C122.201 364.539 122.611 364.29 123.022 364.029C123.445 363.767 123.855 363.506 124.266 363.232C128.831 360.246 132.911 356.813 135.063 353.752C135.996 352.421 136.568 351.177 136.655 350.057C136.979 346.088 135.474 343.537 134.143 342.094C132.911 340.751 131.319 339.817 129.615 339.37H129.602C129.416 339.32 129.241 339.27 129.055 339.245C128.843 339.195 128.619 339.17 128.408 339.133C128.234 339.121 128.072 339.096 127.898 339.096C127.711 339.071 127.525 339.071 127.326 339.071C126.977 339.071 126.642 339.096 126.293 339.133C119.887 339.929 93.092 348.763 93.6394 359.649C93.7762 360.62 95.4307 370.486 105.556 370.871L105.805 370.884C106.278 370.884 106.8 370.847 107.348 370.759C107.597 370.735 107.845 370.685 108.107 370.635C108.393 370.585 108.679 370.523 108.965 370.448C109.176 370.399 109.388 370.349 109.612 370.287C109.91 370.212 110.221 370.112 110.545 370.025C111.565 369.702 112.659 369.316 113.779 368.843C114.053 368.731 114.339 368.62 114.625 368.483C114.899 368.371 115.172 368.246 115.446 368.122C115.782 367.973 116.118 367.811 116.466 367.649C118.208 366.815 120.011 365.845 121.778 364.788ZM141.258 370.125L137.041 358.99C136.208 359.91 135.275 360.831 134.279 361.739C133.993 362.001 133.707 362.249 133.409 362.511C133.359 362.56 133.297 362.61 133.235 362.66C132.961 362.896 132.687 363.133 132.401 363.357C131.356 364.215 130.274 365.049 129.142 365.845C128.52 366.293 127.898 366.716 127.251 367.151C125.721 368.159 124.154 369.117 122.574 370C122.188 370.212 121.815 370.424 121.429 370.623C121.181 370.772 120.919 370.909 120.658 371.033C120.322 371.207 119.974 371.369 119.638 371.543C119.651 371.543 119.651 371.543 119.663 371.543C125.273 371.693 132.737 371.456 141.258 370.125ZM178.639 468.96L143.049 374.878C135.163 376.171 128.147 376.582 122.499 376.582C123.756 379.828 124.689 384.644 124.427 391.761C124.365 403.543 124.154 439.535 143.883 457.788C151.956 465.253 162.617 469.021 175.629 469.021C176.624 469.022 177.619 469.01 178.639 468.96ZM188.64 473.974C190.444 475.057 192.534 475.641 194.661 475.641C196.054 475.641 197.46 475.405 198.841 474.882C204.949 472.57 208.021 465.75 205.72 459.642L156.372 329.242C154.544 331.27 152.267 333.124 149.717 334.704C149.12 335.09 148.722 335.301 148.212 335.612C147.652 335.923 147.08 336.247 146.52 336.52C145.388 337.105 144.194 337.64 142.9 338.1C141.482 338.598 139.927 339.034 138.26 339.233V339.245C138.409 339.432 138.546 339.606 138.696 339.793C139.591 340.987 140.3 342.331 140.798 343.761C140.947 344.184 141.071 344.607 141.183 345.03C141.233 345.242 141.283 345.466 141.333 345.677C141.644 347.208 141.743 348.813 141.619 350.467C141.569 351.127 141.42 351.811 141.183 352.508C141.134 352.682 141.071 352.856 140.997 353.03C140.922 353.204 140.86 353.379 140.773 353.553C140.698 353.727 140.611 353.901 140.524 354.088C140.524 354.088 140.524 354.088 140.524 354.1L183.615 468.002C184.423 470.166 185.817 471.946 187.533 473.24C187.882 473.514 188.255 473.763 188.64 473.974ZM192.945 494.515C193.989 495.61 195.495 496.58 197.41 497.426C197.385 497.389 197.373 497.341 197.348 497.302C197.037 496.766 196.826 496.193 196.577 495.66C196.365 495.1 196.154 494.552 195.98 494.018C195.644 492.949 195.395 491.94 195.246 491.07C194.922 489.339 194.91 488.171 194.91 488.171C194.91 488.046 195.009 487.946 195.121 487.946C195.233 487.934 195.32 488.009 195.345 488.108C195.345 488.108 195.631 489.204 196.341 490.733C196.689 491.504 197.149 492.364 197.684 493.247C197.958 493.683 198.269 494.117 198.58 494.554C198.916 494.964 199.214 495.411 199.587 495.798C199.948 496.195 200.296 496.582 200.694 496.916C201.055 497.277 201.453 497.602 201.839 497.887C202.212 498.185 202.598 498.434 202.971 498.658C203.332 498.882 203.68 499.094 204.028 499.243C204.376 499.392 204.663 499.542 204.949 499.666C205.222 499.753 205.471 499.841 205.67 499.902C205.745 499.927 205.807 499.952 205.869 499.977C205.894 499.977 205.919 499.991 205.944 499.991C205.956 499.991 205.956 499.991 205.956 499.991C208.419 500.499 211.156 500.924 214.142 501.247C218.184 501.695 222.675 501.981 227.539 502.093C235.923 502.305 245.452 501.994 255.727 501.186C258.974 500.937 262.283 500.626 265.666 500.266C267.545 500.067 269.448 499.855 271.364 499.606C271.364 499.581 271.351 499.544 271.364 499.52C268.789 498.2 266.587 496.883 264.82 495.712C262.842 494.381 261.362 493.25 260.392 492.415C259.409 491.595 258.949 491.096 258.949 491.096L258.936 491.084C258.812 490.958 258.812 490.747 258.949 490.623C259.061 490.524 259.223 490.499 259.335 490.574C259.335 490.574 259.919 490.897 261.039 491.432C262.146 491.991 263.813 492.739 265.927 493.645C266.997 494.069 268.179 494.554 269.473 495.076C270.02 495.275 270.58 495.487 271.165 495.698C269.896 461.26 280.931 411.32 287.883 389.459V389.447C285.643 375.96 280.916 370.498 279.089 368.843C275.058 370.038 261.3 374.305 246.683 381.311C245.763 381.758 244.656 381.584 243.909 380.874C243.151 380.165 242.927 379.07 243.312 378.125C250.565 360.52 264.049 348.539 269.635 344.11C269.56 344.06 269.485 344.01 269.423 343.96C269.112 344.06 268.776 344.122 268.428 344.122H268.229C259.882 343.625 252.269 342.343 245.352 340.539C236.147 340.8 205.533 343.55 185.108 367.935C197.137 378.622 206.951 391.686 211.828 398.689C211.902 398.143 211.965 397.582 212.027 397.01C212.251 395.156 212.388 393.153 212.537 391.15C212.699 389.134 212.798 387.12 212.898 385.228C212.985 383.335 213.059 381.57 213.134 380.052C213.246 377.004 213.333 374.976 213.333 374.976C213.333 374.926 213.37 374.889 213.432 374.889C213.47 374.889 213.507 374.914 213.52 374.963C213.52 374.963 213.594 375.461 213.731 376.344C213.868 377.228 214.067 378.484 214.241 380.002C214.415 381.521 214.614 383.299 214.776 385.203C214.925 387.106 215.075 389.134 215.162 391.188C215.186 391.898 215.199 392.619 215.211 393.328C222.24 376.657 229.405 360.134 232.54 354.349C233.199 353.142 234.704 352.694 235.911 353.341C237.117 354.001 237.565 355.506 236.918 356.713C236.234 357.97 235.351 359.786 234.306 362.013C234.94 361.428 235.563 360.868 236.11 360.408C236.819 359.798 237.453 359.313 237.889 358.977C238.337 358.641 238.585 358.455 238.585 358.455C238.635 358.405 238.722 358.417 238.759 358.467C238.797 358.517 238.784 358.579 238.747 358.629C238.747 358.629 238.548 358.865 238.212 359.301C237.864 359.724 237.379 360.346 236.806 361.08C236.222 361.814 235.575 362.697 234.878 363.63C234.207 364.588 233.485 365.596 232.788 366.616C232.129 367.624 231.433 368.582 230.873 369.54C221.033 391.674 204.824 431.325 202.486 437.062L210.372 457.887C211.965 462.08 211.815 466.646 209.974 470.739C208.121 474.82 204.799 477.957 200.595 479.536C198.692 480.257 196.689 480.618 194.661 480.618C192.372 480.618 190.146 480.145 188.118 479.274C187.372 482.571 187.197 488.568 192.945 494.515ZM250.789 373.957C265.865 367.326 278.367 363.867 278.964 363.705C279.599 363.531 280.294 363.618 280.866 363.954C281.115 364.091 284.973 366.455 288.454 373.895C288.355 369.229 288.069 364.962 287.771 361.466C287.46 357.97 287.123 355.245 286.899 353.64C286.389 353.441 285.892 353.254 285.395 353.055C281.763 351.6 278.391 349.87 275.318 348.041C274.833 347.743 274.348 347.432 273.875 347.133C270.281 349.883 258.526 359.525 250.789 373.957ZM261.014 514.733C261.064 515.641 261.76 516.35 262.643 516.462C262.718 516.488 262.805 516.488 262.892 516.488H262.979C263.004 516.488 264.335 516.412 266.375 516.401C266.786 516.389 267.209 516.389 267.669 516.389C269.062 516.389 270.667 516.413 272.359 516.488H272.433C273.429 516.488 274.25 515.717 274.299 514.709C274.349 513.676 273.553 512.805 272.52 512.767C270.742 512.68 269.062 512.655 267.619 512.655C267.171 512.655 266.749 512.655 266.35 512.667C264.248 512.68 262.867 512.754 262.768 512.767C262.718 512.767 262.668 512.779 262.619 512.793C261.673 512.904 260.952 513.75 261.014 514.733ZM262.569 509.034H262.643C262.668 507.678 262.706 506.496 262.731 505.551C261.487 505.663 260.243 505.775 258.986 505.887C258.949 507.168 258.912 508.835 258.899 510.689C259.845 509.744 261.126 509.121 262.569 509.034ZM253.911 522.086L255.354 522.148C255.068 516.537 255.142 510.017 255.242 506.185C247.529 506.77 239.829 507.106 232.502 507.106C230.86 507.106 229.243 507.094 227.651 507.056C226.37 511.896 226.643 517.034 226.917 520.63C236.371 521.327 245.937 521.737 253.911 522.086ZM235.127 621.445C234.853 620.448 233.821 619.863 232.838 620.137C224.69 622.39 218.533 619.529 218.433 619.479C217.513 619.031 216.406 619.415 215.945 620.336C215.497 621.269 215.883 622.378 216.804 622.837C217.028 622.936 220.797 624.74 226.482 624.74C228.671 624.74 231.159 624.467 233.821 623.733C234.816 623.459 235.401 622.426 235.127 621.445ZM212.027 513.837C212.151 511.273 212.5 508.735 212.96 506.097C210.534 505.812 208.233 505.475 206.056 505.052C206.043 505.052 206.031 505.039 206.018 505.039C205.633 505.102 205.235 505.077 204.849 504.94C204.675 504.89 204.513 504.804 204.364 504.705C204.352 504.705 204.352 504.705 204.339 504.705C199.401 503.646 195.271 502.179 192.235 500.263C191.676 505.053 191.315 509.955 191.141 514.919C196.353 516.835 203.767 518.204 212.052 519.21C211.94 516.872 211.99 514.695 212.027 513.837ZM212.587 643.975C203.891 605.482 192.335 550.991 193.89 520.77C193.037 520.421 191.91 520.013 191.041 519.682C190.096 566.885 204.513 618.308 212.587 643.975ZM143.248 735.557C131.194 728.515 127.811 721.66 127.512 711.632C126.02 709.941 124.962 708.372 124.079 707.053C123.905 706.991 123.756 706.904 123.606 706.805C123.27 706.991 122.972 707.241 122.736 707.563C122.014 708.582 121.056 711.259 122.835 717.691C125.261 726.45 128.719 728.826 128.756 728.838C128.831 728.888 128.843 728.901 128.906 728.938C132.19 731.327 137.066 733.554 143.248 735.557ZM309.864 690.033C309.801 689.15 309.738 688.292 309.678 687.458C309.33 687.657 308.968 687.844 308.583 688.043C296.827 694.089 277.894 695.98 261.959 695.98C254.496 695.98 247.704 695.557 242.591 694.961C243.001 695.434 243.412 695.907 243.797 696.405C244.308 697.039 244.83 697.674 245.315 698.333C249.258 703.559 252.306 709.232 252.306 709.232C252.368 709.331 252.331 709.443 252.232 709.493C252.144 709.543 252.032 709.518 251.983 709.443C251.983 709.443 250.988 708.199 249.395 706.395C247.815 704.605 245.626 702.277 243.312 700.138C242.74 699.591 242.143 699.08 241.571 698.57C240.999 698.059 240.389 697.612 239.829 697.151C238.996 696.492 238.2 695.932 237.441 695.434C237.503 695.845 237.578 696.268 237.627 696.652C237.951 699.228 238.013 701.268 237.976 702.674C237.914 704.055 237.814 704.789 237.814 704.789V704.803C237.789 704.964 237.64 705.076 237.478 705.064C237.366 705.038 237.279 704.964 237.242 704.865C237.242 704.865 236.981 704.181 236.508 702.887C236.048 701.643 235.339 699.801 234.381 697.512C232.465 692.958 229.592 686.576 225.449 679.372C223.372 675.777 220.846 672.044 217.811 668.436C214.751 664.841 211.181 661.357 207.063 658.383C202.921 655.46 198.331 652.872 193.293 651.242C192.036 650.832 190.78 650.421 189.474 650.135C188.193 649.786 186.874 649.562 185.555 649.326C184.237 649.079 182.881 649.002 181.55 648.83C180.878 648.767 180.206 648.754 179.535 648.718L178.515 648.668L178.017 648.642H177.582L173.278 648.692C171.947 648.779 170.615 648.866 169.284 648.953C167.941 649.128 166.61 649.301 165.266 649.475C163.96 649.75 162.629 649.962 161.336 650.273C156.173 651.503 151.384 653.557 147.204 656.232C143.049 658.956 139.591 662.377 136.892 666.072C134.217 669.792 132.202 673.724 130.796 677.545C129.403 681.377 128.52 685.046 127.96 688.344C127.413 691.641 127.214 694.565 127.139 696.966C127.089 699.355 127.164 701.234 127.288 702.49C127.313 702.675 127.326 702.826 127.338 702.986C127.55 703.285 127.761 703.608 127.997 703.957C131.02 708.536 136.083 716.199 154.792 719.645C176.213 723.589 208.432 726.14 232.353 725.667C256.411 725.194 289.328 720.728 300.51 714.333C303.383 712.692 305.635 711.011 307.414 709.432C311.046 705.324 310.399 696.876 309.864 690.033ZM223.583 665.623C226.395 669.23 228.758 672.889 230.699 676.397C233.124 680.752 234.754 684.92 235.873 688.652C235.936 688.677 236.01 688.69 236.073 688.727C240.725 690.842 285.867 694.128 306.319 683.615C312.315 680.542 312.377 679.396 312.526 676.623C312.612 674.906 312.811 670.464 312.688 666.445C312.539 661.954 312.066 660.237 311.755 659.577C310.461 660.074 307.687 661.455 305.585 662.513C303.123 663.757 300.583 665.026 298.706 665.809C284.352 671.757 256.473 679.01 223.583 665.623ZM301.878 532.362C301.852 532.337 301.827 532.3 301.802 532.275C301.256 531.578 300.694 530.423 300.956 528.706C299.027 528.818 296.08 528.903 292.646 528.903C289.262 528.903 285.394 528.829 281.575 528.619C264.384 527.659 263.053 524.973 263.028 524.973V524.798C262.903 523.392 262.804 521.837 262.754 520.208C261.286 520.182 259.943 519.586 258.96 518.627C259.022 520.891 259.134 523.118 259.308 525.071C259.321 525.869 259.619 526.987 260.838 528.02C265.205 531.779 280.89 532.611 292.012 532.611C296.269 532.611 299.85 532.488 301.878 532.362ZM301.977 509.93C301.939 509.918 301.914 509.918 301.878 509.905C299.489 509.432 297.187 508.798 294.937 508.238C292.673 507.691 290.507 507.03 288.418 506.397C286.317 505.801 284.338 505.053 282.422 504.381C281.639 504.096 280.88 503.797 280.133 503.498C280.121 503.498 280.121 503.498 280.121 503.498C275.705 504.12 271.127 504.68 266.475 505.165C266.45 506.112 266.413 507.418 266.388 508.935C266.773 508.922 267.184 508.922 267.619 508.922C269.348 508.922 271.053 508.96 272.682 509.034C274.175 509.097 275.556 509.744 276.563 510.851C277.571 511.946 278.092 513.376 278.032 514.882C277.896 517.88 275.444 520.219 272.435 520.219H272.161C270.73 520.157 269.225 520.12 267.67 520.12C267.247 520.12 266.849 520.12 266.476 520.132C266.513 521.04 266.551 521.924 266.613 522.757C268.28 523.342 272.422 524.362 281.777 524.885C285.172 525.07 288.929 525.17 292.649 525.17C296.816 525.17 299.95 525.045 301.492 524.935C301.816 520.792 301.939 514.16 301.977 509.93ZM314.852 512.406C312.937 512.095 311.045 511.722 309.179 511.398C307.998 511.212 306.841 510.975 305.696 510.726C305.658 514.509 305.559 520.841 305.223 525.17C305.087 526.801 304.924 528.156 304.713 528.978C304.688 529.053 304.677 529.14 304.664 529.239C304.613 529.524 304.601 529.812 304.738 529.986C304.764 530.023 304.851 530.112 305.036 530.222C305.459 530.457 306.417 530.795 308.508 530.795H308.768C309.179 530.795 309.602 530.768 310.025 530.745C312.974 530.558 314.753 530.446 314.888 524.611L314.952 522.285C315.051 518.39 315.14 515.081 314.852 512.406ZM353.191 528.791C353.6 525.059 354.011 520.058 353.216 515.579C351.698 515.579 350.156 515.529 348.626 515.479C347.284 515.443 345.926 515.404 344.57 515.367C343.227 515.305 341.908 515.193 340.577 515.118L336.584 514.857L334.593 514.733L332.554 514.546C329.879 514.285 327.216 514.023 324.58 513.762C322.589 513.488 320.612 513.216 318.645 512.955C318.857 515.667 318.771 518.802 318.671 522.385L318.62 524.698C318.595 525.681 318.521 526.564 318.409 527.362C322.926 527.722 337.492 528.804 353.191 528.791ZM347.419 685.604C367.448 695.881 411.359 692.858 417.84 690.706C418.958 686.948 420.601 682.755 423.039 678.389C424.768 675.254 426.833 672.007 429.247 668.785C395.511 678.228 364.124 671.558 355.032 667.789C352.893 666.905 348.937 664.679 345.118 662.526C342.655 661.145 339.483 659.354 337.766 658.52C337.642 659.553 337.667 661.158 337.679 662.239C337.679 663.198 337.691 664.181 337.667 665.126C337.53 669.157 337.741 673.586 337.828 675.303C337.94 677.443 340.652 682.121 347.419 685.604ZM368.517 528.381C374.525 528.034 380.272 527.435 385.224 526.479C385.137 520.93 385.049 515.953 384.988 512.843C384.453 512.967 383.931 513.078 383.396 513.203C382.201 513.401 381.007 513.6 379.789 513.799C377.351 514.247 374.863 514.496 372.326 514.77C370.895 514.955 369.44 515.055 367.972 515.131C368.283 517.097 368.494 519.025 368.594 520.978C368.629 521.712 368.703 525.084 368.517 528.381ZM392.09 522.434C392.102 520.904 392.301 519.236 392.649 517.493C392.985 515.727 393.668 513.923 394.515 512.131C394.938 511.322 395.411 510.526 395.958 509.767C393.656 510.601 391.23 511.372 388.706 511.994C388.756 514.719 388.842 519.36 388.93 524.685L392.115 524.473C392.077 523.827 392.065 523.143 392.09 522.434ZM399.64 618.358C402.314 619.104 404.79 619.366 406.979 619.366C412.663 619.366 416.445 617.575 416.657 617.463C417.577 617.015 417.963 615.908 417.515 614.975C417.067 614.054 415.946 613.669 415.027 614.104C414.964 614.142 408.794 617.028 400.634 614.764C399.639 614.502 398.607 615.075 398.332 616.07C398.061 617.064 398.644 618.084 399.64 618.358ZM526.213 713.623C525.74 716.385 524.969 719.357 523.949 722.742C522.481 727.606 518.501 734.224 518.289 734.587C518.574 734.45 523.128 732.16 524.832 730.93C524.895 730.88 524.969 730.83 525.031 730.793C525.031 730.793 525.888 730.196 527.059 728.516C528.228 726.824 529.696 724.037 530.903 719.67C532.682 713.251 531.724 710.564 531.002 709.543C530.767 709.219 530.468 708.971 530.132 708.784C529.982 708.884 529.821 708.983 529.659 709.045C528.788 710.363 527.705 711.943 526.213 713.623ZM428.289 681.349C424.146 688.553 421.273 694.935 419.357 699.501C418.399 701.778 417.69 703.621 417.23 704.865C416.757 706.159 416.496 706.843 416.496 706.843C416.446 707.005 416.272 707.078 416.109 707.029C416.011 706.98 415.935 706.893 415.924 706.781V706.767C415.924 706.767 415.824 706.047 415.762 704.666C415.725 703.248 415.787 701.207 416.109 698.631C416.159 698.245 416.235 697.823 416.296 697.413C415.549 697.91 414.741 698.47 413.907 699.129C413.348 699.59 412.738 700.038 412.166 700.56C411.594 701.057 410.998 701.568 410.426 702.115C408.112 704.255 405.922 706.582 404.341 708.372C402.75 710.176 401.754 711.433 401.754 711.433C401.705 711.509 401.592 711.52 401.506 711.483C401.407 711.42 401.37 711.308 401.431 711.209C401.431 711.209 404.478 705.536 408.422 700.323C408.907 699.651 409.43 699.016 409.939 698.394C410.337 697.859 410.786 697.362 411.209 696.876C405.972 697.485 399.093 697.895 391.567 697.895C375.595 697.895 356.811 696.017 345.154 690.02C344.768 689.834 344.408 689.634 344.059 689.424C343.997 690.27 343.935 691.128 343.874 692.012C343.338 698.842 342.705 707.277 346.3 711.396C348.078 712.976 350.342 714.655 353.227 716.31C364.41 722.705 397.325 727.17 421.384 727.643C445.305 728.116 477.523 725.578 498.946 721.621C517.655 718.175 522.716 710.511 525.74 705.945C525.976 705.597 526.187 705.273 526.399 704.962C526.412 704.8 526.425 704.663 526.448 704.464C526.574 703.22 526.647 701.341 526.598 698.94C526.523 696.552 526.324 693.628 525.764 690.318C525.217 687.034 524.334 683.351 522.94 679.532C521.533 675.7 519.519 671.782 516.845 668.049C514.146 664.353 510.687 660.931 506.533 658.208C502.353 655.544 497.564 653.48 492.401 652.249C491.107 651.95 489.778 651.726 488.471 651.465C487.128 651.289 485.797 651.116 484.454 650.942C483.122 650.855 481.791 650.756 480.46 650.667L476.156 650.617H475.858L475.722 650.631L475.225 650.656L474.205 650.706C473.533 650.743 472.861 650.756 472.189 650.805C470.86 650.98 469.504 651.054 468.184 651.316C466.878 651.551 465.547 651.762 464.265 652.123C462.959 652.409 461.703 652.808 460.448 653.218C455.41 654.849 450.819 657.437 446.677 660.359C442.56 663.345 438.989 666.829 435.929 670.412C432.891 674.021 430.365 677.766 428.289 681.349ZM517.394 450.248C515.901 446.542 507.516 434.286 487.539 434.286C487.102 434.286 486.654 434.298 486.219 434.312C467.995 434.797 453.902 451.405 446.823 462.84C449.398 459.829 451.326 458.088 451.326 458.088C451.463 457.952 451.674 457.963 451.798 458.114C451.898 458.2 451.91 458.338 451.873 458.462L451.861 458.475C451.861 458.475 450.679 461.523 448.34 465.653C447.768 466.686 447.122 467.795 446.4 468.95C445.715 470.107 444.932 471.302 444.147 472.546C443.588 473.479 443.028 474.425 442.444 475.395C441.884 476.354 441.298 477.323 440.702 478.306C440.279 479.04 439.831 479.776 439.396 480.51C437.779 483.222 436.1 485.883 434.594 488.435C433.066 490.959 431.659 493.336 430.402 495.34C429.158 497.356 428.126 499.035 427.404 500.217C427.404 500.217 427.404 500.23 427.392 500.23C427.541 500.256 427.678 500.279 427.815 500.305C428.959 500.503 429.942 500.728 430.739 500.952C431.536 501.164 432.182 501.413 432.592 501.562C432.99 501.736 433.201 501.823 433.201 501.823C433.313 501.873 433.363 501.997 433.327 502.108C433.277 502.208 433.178 502.257 433.078 502.245C433.078 502.245 432.842 502.195 432.419 502.096C431.971 502.021 431.386 501.934 430.565 501.861C429.497 501.747 428.103 501.685 426.473 501.711C425.677 501.711 424.818 501.736 423.923 501.786C423.288 501.812 422.629 501.862 421.957 501.923C421.173 501.985 420.366 502.085 419.531 502.221C418.761 502.333 417.964 502.445 417.169 502.632C416.372 502.794 415.564 502.968 414.756 503.217C414.359 503.316 413.948 503.428 413.538 503.54C413.14 503.677 412.729 503.802 412.319 503.938C411.498 504.187 410.702 504.523 409.907 504.858C408.315 505.53 406.771 506.338 405.317 507.284C404.57 507.707 403.936 508.304 403.252 508.789L403.04 508.951L402.916 509.077L402.418 509.562C402.12 509.885 401.71 510.221 401.485 510.521C400.578 511.604 399.719 512.996 399.073 514.339C398.487 515.733 398.041 517.139 397.792 518.532C397.531 519.926 397.419 521.282 397.394 522.563C397.358 523.21 397.369 523.845 397.406 524.442C397.731 524.007 398.078 523.596 398.439 523.224C399.111 522.465 399.82 521.83 400.468 521.258C401.115 520.673 401.774 520.226 402.334 519.815C402.918 519.417 403.415 519.081 403.851 518.832C404.708 518.309 405.231 518.098 405.231 518.098H405.245C405.307 518.061 405.394 518.098 405.419 518.173C405.445 518.222 405.431 518.285 405.394 518.322C405.394 518.322 404.996 518.72 404.361 519.454C403.702 520.163 402.842 521.246 401.936 522.589C401.475 523.261 401.015 523.997 400.58 524.793C400.082 525.564 399.733 526.46 399.31 527.331C399.111 527.779 398.974 528.252 398.787 528.712C398.613 529.171 398.439 529.631 398.352 530.13C398.29 530.392 398.226 530.64 398.153 530.902C398.103 531.126 398.053 531.348 397.991 531.573C397.892 532.059 397.865 532.556 397.792 533.041C397.792 533.068 397.78 533.104 397.78 533.129C397.618 534.074 397.716 535.031 397.692 535.953C397.655 536.426 397.755 536.898 397.829 537.359C397.904 537.832 397.965 538.279 398.015 538.74C398.077 539.163 398.19 539.573 398.313 539.971C398.413 539.76 398.5 539.548 398.599 539.349C399.296 538.043 400.104 536.923 400.95 536.028C401.807 535.13 402.63 534.385 403.438 533.824C404.197 533.228 404.981 532.829 405.565 532.468C406.783 531.858 407.518 531.597 407.518 531.597C407.618 531.561 407.742 531.61 407.78 531.709C407.805 531.772 407.792 531.835 407.766 531.884C407.766 531.884 407.343 532.556 406.572 533.664C406.211 534.223 405.764 534.846 405.303 535.606C404.843 536.352 404.32 537.186 403.872 538.119C403.387 539.027 402.977 540.035 402.616 541.08C402.305 542.15 401.994 543.257 401.895 544.452C401.795 545.634 401.807 546.878 402.006 548.172C402.232 549.453 402.493 550.772 402.915 552.091L403.039 552.526L403.226 553.049C403.35 553.41 403.437 553.584 403.561 553.882C403.81 554.442 404.109 554.99 404.42 555.513C405.067 556.571 405.813 557.541 406.646 558.387C408.326 560.104 410.253 561.361 411.983 562.157C412.804 562.543 413.563 562.815 414.259 563.027C414.073 562.58 413.911 562.12 413.787 561.658C413.687 561.36 413.588 561.074 413.488 560.775C413.401 560.476 413.363 560.165 413.313 559.868C413.201 559.271 413.101 558.686 413.002 558.1C412.966 556.943 412.877 555.798 413.016 554.742C413.251 552.614 413.773 550.735 414.471 549.206C414.844 548.434 415.155 547.725 415.54 547.103C415.938 546.507 416.298 545.958 416.659 545.486C417.318 544.503 418.065 543.905 418.475 543.445C418.936 543.008 419.172 542.786 419.172 542.786C419.321 542.649 419.546 542.661 419.669 542.798C419.769 542.898 419.794 543.035 419.757 543.159L419.744 543.196C419.744 543.196 419.631 543.507 419.433 544.092C419.334 544.366 419.208 544.714 419.046 545.112C418.897 545.51 418.698 545.958 418.574 546.493C418.437 547.028 418.25 547.588 418.063 548.197C417.927 548.819 417.779 549.49 417.616 550.2C417.368 551.63 417.157 553.223 417.193 554.927C417.143 555.364 417.243 555.786 417.269 556.221C417.318 556.658 417.331 557.105 417.393 557.553C417.492 557.988 417.592 558.423 417.692 558.871C417.741 559.097 417.779 559.332 417.853 559.557L418.102 560.204C418.674 562.008 419.842 563.625 421.237 565.081C421.611 565.418 421.996 565.765 422.369 566.114C422.792 566.425 423.252 566.686 423.689 566.997L424.347 567.445L425.094 567.806C425.591 568.041 426.09 568.278 426.587 568.527C427.11 568.713 427.656 568.863 428.204 569.05C428.75 569.211 429.286 569.435 429.845 569.496L431.499 569.807C431.786 569.845 432.036 569.919 432.347 569.957L433.304 570.019L435.22 570.156L435.693 570.193L435.805 570.206H435.881L435.893 570.218C435.893 570.205 435.93 570.218 435.93 570.206H436.03L436.937 570.218C438.131 570.205 439.325 570.132 440.495 569.994C442.846 569.733 445.122 569.223 447.15 568.426C449.177 567.629 450.957 566.547 452.201 565.279C452.437 564.942 452.836 564.594 452.959 564.308C453.058 564.173 453.158 564.035 453.258 563.885L453.595 563.189L453.756 562.84L453.769 562.803C453.769 562.803 453.769 562.815 453.756 562.815L453.806 562.654L453.991 562.019C454.128 561.596 454.24 561.185 454.29 560.787C454.589 559.182 454.526 557.764 454.128 556.632C453.755 555.513 453.158 554.654 452.573 554.032C452.25 553.694 451.939 553.434 451.665 553.248C451.591 553.298 451.53 553.36 451.454 553.41C450.882 553.87 450.247 554.256 449.638 554.666C449.016 555.064 448.358 555.388 447.722 555.761C447.275 555.997 446.826 556.198 446.366 556.397C446.267 556.632 446.067 557.154 445.794 557.839C445.62 558.325 445.346 558.859 445.023 559.42C444.724 559.98 444.388 560.577 443.978 561.112C443.604 561.684 443.169 562.193 442.734 562.654C442.348 563.14 441.863 563.501 441.516 563.835C441.105 564.134 440.794 564.395 440.533 564.545C440.284 564.706 440.146 564.769 440.146 564.769L440.121 564.781C439.985 564.844 439.823 564.781 439.761 564.645C439.723 564.546 439.747 564.42 439.823 564.347C439.823 564.347 439.947 564.235 440.108 564.023C440.271 563.837 440.482 563.513 440.743 563.152C440.955 562.742 441.252 562.319 441.465 561.783C441.7 561.274 441.924 560.725 442.073 560.153C442.272 559.605 442.384 559.021 442.471 558.473C442.521 558.224 442.571 557.975 442.608 557.738H442.594C442.258 557.814 441.936 557.887 441.599 557.974C440.915 558.173 440.194 558.236 439.484 558.348L438.427 558.497L437.357 558.547C436.649 558.584 435.928 558.634 435.244 558.573C434.558 558.535 433.863 558.486 433.165 558.423C433.03 558.41 432.93 558.287 432.941 558.148C432.954 558.049 433.017 557.974 433.117 557.937C433.775 557.713 434.435 557.501 435.095 557.302C435.766 557.128 436.375 556.842 437.01 556.643C437.632 556.432 438.24 556.196 438.85 555.935C439.46 555.674 440.082 555.449 440.666 555.164C441.251 554.865 441.848 554.628 442.408 554.293C442.967 553.982 443.54 553.708 444.075 553.36C444.61 552.999 445.157 552.688 445.679 552.327C446.177 551.941 446.712 551.593 447.185 551.195C447.657 550.772 448.155 550.399 448.615 549.963C448.85 549.728 449.1 549.49 449.335 549.266C449.548 549.067 449.76 548.868 449.945 548.644C450.107 548.458 450.268 548.284 450.442 548.109C450.704 547.835 450.965 547.55 451.2 547.251C451.598 546.766 452.009 546.293 452.369 545.772C452.743 545.274 453.116 544.763 453.464 544.229C453.825 543.719 454.148 543.17 454.497 542.636C455.181 541.566 455.778 540.422 456.412 539.291C456.711 538.705 457.208 538.294 457.768 538.072L457.805 538.059C460.069 537.176 462.371 536.355 464.621 535.422C466.848 534.439 469.124 533.543 471.289 532.448L474.56 530.856L477.757 529.114C478.84 528.554 479.872 527.932 480.904 527.297C481.923 526.663 482.982 526.066 483.988 525.394L486.974 523.353C487.981 522.681 488.902 521.91 489.872 521.202L491.314 520.094L492.684 518.925C493.59 518.142 494.537 517.406 495.383 516.549C496.241 515.715 497.137 514.907 497.97 514.048L500.421 511.423L502.71 508.674C503.457 507.74 504.14 506.758 504.862 505.812C506.23 503.846 507.499 501.831 508.656 499.741C509.241 498.708 509.738 497.625 510.286 496.567C510.809 495.486 511.256 494.377 511.742 493.295L513.011 489.949C513.372 488.804 513.77 487.685 514.093 486.528C514.74 484.225 515.325 481.898 515.748 479.536C516.643 474.808 517.091 469.993 517.265 465.128C517.464 460.289 517.315 455.449 517.391 450.422V450.248H517.394ZM420.278 487.349C420.303 487.772 420.228 488.182 420.066 488.531C420.066 488.531 420.066 488.531 420.066 488.543C420.029 488.705 419.979 488.867 419.917 489.016C419.917 489.016 419.631 489.688 419.084 490.957C418.81 491.593 418.486 492.376 417.939 493.21C417.69 493.633 417.403 494.093 417.118 494.59C416.969 494.826 416.82 495.087 416.658 495.349C416.484 495.585 416.285 495.834 416.086 496.083C415.277 497.066 414.481 498.274 413.336 499.28C412.988 499.629 412.615 499.989 412.242 500.35C412.876 500.213 413.498 500.101 414.12 500.025C415.016 499.876 415.911 499.802 416.77 499.741C417.641 499.653 418.5 499.641 419.32 499.629C420.217 499.602 421.074 499.615 421.907 499.641C421.933 499.591 421.945 499.554 421.97 499.517L421.996 499.479C421.996 499.479 423.538 496.742 426.063 492.699C427.307 490.658 428.8 488.319 430.405 485.806C432.01 483.305 433.801 480.693 435.592 478.067C436.102 477.32 436.601 476.587 437.111 475.853L436.564 474.946C436.141 474.224 435.693 473.427 435.27 472.655C434.872 471.848 434.424 471.064 434.101 470.217L433.592 468.96C433.43 468.537 433.244 468.127 433.119 467.704L432.322 465.128C432.11 464.271 431.911 463.399 431.726 462.54C431.639 462.105 431.514 461.67 431.465 461.234L431.278 459.928L431.141 458.908C423.578 455.823 418.266 448.32 415.767 437.098C414.298 435.43 412.968 433.676 411.774 431.923C415.464 452.749 419.606 477.495 420.278 487.349ZM469.165 395.717C453.753 397.857 432.891 406.641 420.663 436.164C422.083 442.435 425.067 449.963 431.337 453.484C431.374 453.272 431.399 453.074 431.448 452.862L431.873 450.847C432.008 450.175 432.258 449.527 432.445 448.867C432.656 448.209 432.831 447.548 433.103 446.926L433.862 445.023C434.135 444.401 434.458 443.805 434.757 443.194C435.044 442.572 435.379 441.987 435.74 441.415C436.088 440.829 436.399 440.233 436.81 439.698L437.978 438.043L439.222 436.474L440.553 434.969C441.449 433.986 442.419 433.078 443.427 432.219C444.435 431.362 445.479 430.54 446.624 429.844C446.773 429.745 446.984 429.794 447.084 429.956C447.171 430.092 447.146 430.28 447.034 430.379L447.022 430.392C446.101 431.275 445.243 432.221 444.422 433.191C443.601 434.174 442.853 435.206 442.108 436.239L441.063 437.819L440.104 439.45L439.234 441.117C438.936 441.665 438.712 442.25 438.437 442.809C438.176 443.382 437.927 443.94 437.729 444.539C437.53 445.124 437.293 445.696 437.107 446.281L436.584 448.06C436.386 448.632 436.299 449.254 436.161 449.85C436.049 450.447 435.876 451.045 435.814 451.654L435.577 453.471C435.428 454.603 435.453 455.747 435.378 456.88L435.826 459.131L436.05 460.313C436.126 460.712 436.261 461.085 436.361 461.472L436.97 463.785L437.754 466.012C437.866 466.385 438.053 466.733 438.202 467.094L438.675 468.176C438.836 468.55 439.011 468.911 439.197 469.271C443.601 459.02 461.066 431.238 486.107 430.578C507.489 429.992 517.467 442.061 520.365 447.81C520.39 447.797 520.403 447.797 520.415 447.797C520.813 447.748 521.435 447.648 522.032 447.399C522.654 447.15 523.077 446.803 523.214 446.466C523.202 446.33 523.314 446.281 523.289 446.08C523.289 445.993 523.289 445.905 523.315 445.832C523.302 445.732 523.277 445.608 523.265 445.494C523.253 445.37 523.253 445.27 523.228 445.134L523.091 444.711L522.979 444.3C522.904 444.102 522.83 443.903 522.755 443.692C522.17 442.06 521.548 440.356 520.852 438.578C520.491 437.682 520.118 436.774 519.745 435.841C519.322 434.934 518.911 434.001 518.475 433.042C518.002 432.135 517.529 431.202 517.045 430.268C516.498 429.385 516.013 428.415 515.428 427.555C514.818 426.735 514.284 425.765 513.575 425.054L512.566 423.897C512.23 423.56 511.746 423.1 511.372 422.753C509.817 421.333 508.087 420.053 506.271 419.095C504.443 418.099 502.502 417.404 500.549 416.93C499.59 416.645 498.596 416.544 497.625 416.358C496.654 416.246 495.696 416.146 494.763 416.06C493.818 416.047 492.885 416.023 492.002 415.997C491.094 416.023 490.235 416.047 489.388 416.073C488.555 416.122 487.759 416.222 486.987 416.284C486.229 416.346 485.495 416.433 484.823 416.545C483.467 416.757 482.249 416.869 481.278 417.08C479.325 417.479 478.193 417.653 478.193 417.653H478.168C477.956 417.69 477.745 417.541 477.72 417.329C477.683 417.143 477.796 416.956 477.956 416.894C477.956 416.894 479.025 416.446 480.929 415.749C481.875 415.375 483.069 415.04 484.426 414.629C485.11 414.418 485.844 414.244 486.628 414.082C487.412 413.908 488.22 413.709 489.091 413.547C489.974 413.41 490.881 413.273 491.826 413.136C492.786 413.051 493.779 413.001 494.801 412.925C495.82 412.925 496.891 412.913 497.973 412.975C499.055 413.112 500.175 413.149 501.294 413.398C502.24 413.547 503.197 413.785 504.143 414.057C503.173 410.088 501.207 403.395 498.346 399.662C496.893 397.809 484.615 393.554 469.165 395.717ZM384.116 348.228C383.842 348.29 383.556 348.34 383.282 348.39C381.181 348.8 379.426 348.962 377.933 349.198C375.557 349.497 374.015 349.696 373.493 349.771C372.846 349.982 371.092 350.554 368.454 351.438C367.596 351.711 366.651 352.01 365.631 352.346C364.598 352.657 363.466 352.956 362.258 353.292C360.579 353.752 358.752 354.287 356.774 354.785C357.358 360.595 358.229 373.957 355.99 388.563C355.853 389.459 355.242 390.206 354.409 390.517C354.124 390.629 353.824 390.678 353.526 390.678C352.954 390.678 352.381 390.479 351.933 390.106C336.62 377.316 329.133 372.327 327.168 371.083C324.132 371.145 310.025 372.153 295.085 384.346C294.489 385.639 293.953 386.982 293.481 388.364C293.295 388.887 293.119 389.445 292.934 390.005C292.934 390.067 292.92 390.142 292.92 390.204C292.884 390.627 292.722 391.012 292.511 391.349C285.507 413.482 274.449 463.87 276.214 497.5C277.246 497.847 278.316 498.208 279.423 498.569C280.121 498.794 280.83 499.017 281.552 499.24C282.309 499.477 283.107 499.713 283.901 499.938C285.794 500.485 287.747 501.107 289.81 501.629C291.863 502.177 293.966 502.799 296.181 503.271C298.382 503.769 300.634 504.341 302.971 504.764C303.98 504.95 305 505.15 306.02 505.36H306.033C307.376 505.622 308.732 505.883 310.112 506.07C312.475 506.418 314.852 506.853 317.29 507.14C317.376 507.152 317.465 507.164 317.552 507.176C320.076 507.474 322.627 507.785 325.202 508.096C327.79 508.32 330.402 508.557 333.013 508.781L334.942 508.942L336.933 509.042L340.926 509.253C342.244 509.329 343.588 509.416 344.906 509.452C346.213 509.479 347.519 509.502 348.824 509.528C350.105 509.564 351.387 509.603 352.667 509.603C353.987 509.629 355.292 509.629 356.612 509.591C359.198 509.541 361.773 509.553 364.287 509.367C365.17 509.303 366.04 509.267 366.911 509.204C368.542 509.118 370.157 509.006 371.725 508.807C372.359 508.745 372.981 508.681 373.617 508.608C374.239 508.396 374.911 508.197 375.582 507.948C376.229 507.663 376.925 507.376 377.61 507.053C378.257 506.679 378.966 506.343 379.612 505.92C380.26 505.485 380.931 505.087 381.515 504.589C381.826 504.354 382.124 504.116 382.423 503.881C382.697 503.62 382.969 503.371 383.243 503.122C383.815 502.637 384.263 502.077 384.748 501.593C385.172 501.071 385.619 500.584 385.956 500.088C387.411 498.172 388.033 496.666 388.033 496.666C388.083 496.553 388.218 496.491 388.332 496.541C388.444 496.59 388.506 496.702 388.467 496.814C388.467 496.814 388.107 498.469 386.95 500.71C386.688 501.282 386.315 501.854 385.967 502.489C385.544 503.085 385.171 503.758 384.661 504.38C384.412 504.691 384.163 505.016 383.913 505.35C383.639 505.649 383.367 505.96 383.08 506.284C382.719 506.707 382.322 507.092 381.912 507.478C382.036 507.453 382.173 507.441 382.297 507.416C383.417 507.167 384.511 506.931 385.594 506.694C389.948 505.798 393.891 504.492 397.447 503.136C400.906 501.607 404.004 500.025 406.368 498.185C406.964 497.725 407.586 497.327 408.097 496.865C408.607 496.393 409.092 495.932 409.565 495.497C410.56 494.663 411.196 493.68 411.917 492.909C412.079 492.71 412.253 492.523 412.413 492.324C412.55 492.113 412.675 491.914 412.8 491.715C413.062 491.329 413.297 490.956 413.522 490.62C414.007 489.948 414.268 489.313 414.517 488.803C415.002 487.794 415.263 487.248 415.263 487.248L415.276 487.222V487.21C413.87 468.784 400.97 400.542 400.846 399.845C400.585 398.502 401.468 397.195 402.824 396.946C404.18 396.685 405.473 397.568 405.722 398.924C405.896 399.783 407.165 406.489 408.882 415.945C409.379 417.202 412.377 424.579 417.391 431.211C430.726 401.85 452.458 392.966 468.679 390.752C470.581 390.489 472.461 390.329 474.289 390.229C462.809 376.458 435.616 348.601 384.116 348.228ZM310.598 359.027C310.088 358.977 309.589 358.928 309.079 358.865C304.962 358.38 300.833 357.758 296.865 356.725C295.272 356.352 293.693 355.917 292.163 355.444C292.709 359.998 293.456 367.811 293.47 376.818C298.532 368.607 305.311 362.735 310.598 359.027ZM301.939 373.633C316.033 365.708 327.391 366.081 327.976 366.106C328.373 366.131 328.772 366.243 329.108 366.442C329.393 366.604 335.701 370.287 351.649 383.4C352.244 378.15 352.445 373.123 352.445 368.719C352.445 363.307 352.134 358.828 351.873 355.942C351.076 356.116 350.28 356.302 349.46 356.489C347.83 356.788 346.138 357.086 344.398 357.41C343.527 357.559 342.644 357.733 341.748 357.87C340.851 357.994 339.944 358.119 339.011 358.243C337.17 358.467 335.304 358.778 333.364 358.903C331.436 359.052 329.483 359.251 327.481 359.351C325.489 359.413 323.474 359.5 321.435 359.537C320.726 359.525 320.017 359.5 319.296 359.487C315.984 361.304 308.397 365.969 301.939 373.633ZM479.104 250.873C478.456 251.408 477.798 251.968 477.151 252.578C466.392 262.506 460.657 263.725 454.264 263.874C450.63 263.414 449.225 262.182 452.522 255.563C456.951 246.718 466.243 226.898 464.9 199.95C462.547 198.258 460.582 196.827 459.127 195.782C457.659 207.763 454.177 223.663 444.374 245.088C443.466 247.103 441.638 248.534 439.473 248.957C432.135 250.4 424.123 251.134 415.653 251.134C376.779 251.134 339.46 236.117 337.892 235.483C335.666 234.587 334.085 232.584 333.713 230.22C331.213 214.407 331.225 200.684 332.258 189.648C326.1 185.854 315.738 180.703 307.478 180.703C304.853 180.703 302.439 181.225 300.437 182.47C300.338 182.532 300.238 182.594 300.126 182.644C300.089 183.676 300.014 184.784 299.89 185.978C299.764 187.247 299.567 188.591 299.268 190.022C299.193 190.37 299.094 190.731 299.007 191.104L298.871 191.651L298.795 191.925L298.683 192.311C298.559 192.672 298.508 192.908 298.335 193.381C298.161 193.804 297.974 194.314 297.788 194.7C297.066 196.292 296.121 197.773 295.052 199.154C293.92 200.597 292.651 201.941 291.32 203.172C288.708 205.623 285.858 207.776 283.148 210.028C280.436 212.23 277.799 214.531 276.02 217.107C275.573 217.729 275.163 218.463 274.877 219.023C274.69 219.433 274.429 219.943 274.329 220.242C274.192 220.59 274.056 220.914 273.919 221.324C273.346 222.892 272.923 224.572 272.625 226.289C272.264 228.341 272.078 230.444 272.127 232.497C272.14 233.865 272.252 235.209 272.476 236.503C273.011 239.613 274.367 242.711 276.208 245.125C278.049 247.588 280.462 249.442 283.062 250.686C285.662 251.931 288.412 252.59 291.036 252.988C293.66 253.399 296.174 253.511 298.437 253.523C300.689 253.536 302.705 253.448 304.396 253.361C306.063 253.262 307.418 253.187 308.339 253.112C309.26 253.063 309.758 253.05 309.758 253.05C309.758 253.05 309.348 253.312 308.539 253.797C307.731 254.27 306.538 254.929 304.932 255.613C303.341 256.335 301.324 257.044 298.923 257.629C296.523 258.189 293.713 258.612 290.564 258.537C287.442 258.437 283.947 257.84 280.5 256.335C277.066 254.867 273.671 252.49 271.021 249.268C269.703 247.663 268.558 245.859 267.625 243.943C267.389 243.483 267.178 242.923 266.941 242.413L266.68 241.741L266.556 241.417L266.493 241.243L266.406 240.982C266.046 239.937 265.784 238.867 265.561 237.809C265.25 236.254 265.075 234.699 265.001 233.156C261.928 233.368 258.769 233.467 255.547 233.467C224.261 233.467 194.953 224.149 188.647 221.996C179.379 241.293 177.961 260.627 184.442 279.538C189.841 295.277 200.079 307.93 207.878 314.524C218.489 323.519 236.315 334.418 262.314 337.366C261.916 336.931 261.543 336.508 261.194 336.085C259.565 334.157 258.308 332.365 257.326 330.847C255.41 327.786 254.726 325.846 254.726 325.846C254.701 325.771 254.726 325.684 254.8 325.659C254.862 325.634 254.937 325.659 254.974 325.709C254.974 325.709 255.261 326.119 255.858 326.853C256.467 327.575 257.35 328.632 258.557 329.889C259.751 331.158 261.294 332.614 263.097 334.219C264.453 335.376 265.983 336.608 267.675 337.852C268.26 338.275 268.857 338.698 269.479 339.121C270.113 339.569 270.785 340.016 271.469 340.452C272.178 340.912 272.925 341.36 273.684 341.796H273.696C274.33 342.181 274.965 342.542 275.624 342.915H275.637C276.285 343.276 276.93 343.637 277.602 343.998C280.586 345.516 283.836 346.934 287.269 348.191C290.715 349.372 294.346 350.467 298.127 351.189C299.074 351.363 300.007 351.587 300.964 351.736C301.921 351.886 302.878 352.022 303.85 352.172C305.752 352.52 307.729 352.607 309.671 352.831C311.612 353.005 313.577 353.03 315.53 353.142C317.482 353.18 319.424 353.13 321.364 353.142C323.291 353.055 325.208 352.968 327.098 352.881C329 352.757 330.866 352.533 332.708 352.371C334.549 352.234 336.34 351.886 338.107 351.674C338.99 351.55 339.861 351.425 340.72 351.313C341.578 351.176 342.425 351.002 343.271 350.853C344.937 350.542 346.567 350.243 348.134 349.957C349.702 349.609 351.207 349.285 352.662 348.962C355.573 348.365 358.198 347.618 360.549 347.021C361.718 346.698 362.813 346.436 363.821 346.15C364.83 345.839 365.75 345.565 366.584 345.304C369.929 344.334 371.833 343.761 371.833 343.761L371.945 343.736C372.045 343.712 372.144 343.699 372.244 343.674C372.268 343.674 372.306 343.662 372.343 343.649C372.343 343.649 374.01 343.338 376.946 342.803C378.401 342.53 380.241 342.293 382.206 341.845C384.184 341.422 386.411 340.937 388.849 340.415C391.287 339.805 393.925 339.146 396.711 338.436C399.46 337.615 402.383 336.819 405.369 335.873C408.33 334.853 411.427 333.908 414.475 332.688C416.004 332.091 417.572 331.531 419.102 330.897C420.632 330.237 422.162 329.566 423.68 328.906C425.222 328.272 426.704 327.5 428.209 326.791C429.688 326.045 431.22 325.385 432.625 324.564C434.056 323.768 435.486 322.984 436.892 322.213C438.262 321.379 439.605 320.546 440.935 319.737C442.291 318.953 443.535 318.07 444.766 317.211C445.388 316.788 445.998 316.378 446.595 315.955C447.217 315.556 447.814 315.146 448.363 314.698C449.493 313.827 450.602 312.993 451.67 312.172C452.729 311.351 453.685 310.48 454.645 309.684C455.117 309.273 455.578 308.875 456.038 308.49C456.484 308.092 456.884 307.669 457.294 307.283C457.419 307.158 457.543 307.034 457.667 306.922C458.352 306.263 459.011 305.628 459.62 305.031C460.267 304.347 460.851 303.7 461.399 303.09C462.047 302.368 462.631 301.697 463.178 301.112C464.92 298.773 466.003 297.429 466.003 297.429L466.028 297.392C466.165 297.23 466.415 297.205 466.575 297.33C466.712 297.442 466.75 297.628 466.687 297.778C466.687 297.778 466.04 299.37 464.759 302.157C464.372 302.816 463.951 303.55 463.478 304.347C472.758 311.426 482.063 313.889 491.168 311.675C507.626 307.656 518.822 289.74 520.7 285.523C520.826 285.261 532.07 259.445 511.47 248.036C497.316 240.223 483.943 247.576 479.104 250.873ZM538.13 238.357C528.016 230.108 460.843 181.413 460.371 181.699C460.292 182.439 459.781 187.363 459.834 188.603C459.86 188.641 459.897 188.665 459.934 188.69C460.568 189.151 524.234 235.035 534.198 243.184C545.318 252.254 543.191 266.985 539.459 277.734C538.899 279.364 539.757 281.131 541.375 281.691C541.712 281.815 542.059 281.865 542.395 281.865C543.688 281.865 544.895 281.069 545.33 279.775C551.54 261.921 548.978 247.215 538.13 238.357Z" fill="#110C6C"/>
</svg>
